<svg width="76" height="70" viewBox="0 0 76 70" fill="none" xmlns="http://www.w3.org/2000/svg">
<g id="analytics">
<path id="shape" d="M22.23 19.65L7.7 29.77C7.53 29.29 7.3 28.84 7 28.43L21.42 18.38C21.62 18.85 21.91 19.26 22.23 19.64V19.65ZM3 51.12C2.59 51.12 2.25 51.46 2.25 51.87V62.48C2.5 62.44 2.74 62.4 3 62.4C3.26 62.4 3.5 62.44 3.75 62.48V51.87C3.75 51.46 3.41 51.12 3 51.12ZM26 37.46C25.59 37.46 25.25 37.8 25.25 38.21V62.47C25.5 62.43 25.74 62.39 26 62.39C26.26 62.39 26.5 62.43 26.75 62.47V38.21C26.75 37.8 26.41 37.46 26 37.46ZM73 26.33C72.59 26.33 72.25 26.67 72.25 27.08V62.47C72.5 62.43 72.74 62.39 73 62.39C73.26 62.39 73.5 62.43 73.75 62.47V27.08C73.75 26.67 73.41 26.33 73 26.33ZM44.15 21.24C44.27 20.74 44.47 20.27 44.73 19.84L31 16.38C31 16.38 31 16.38 31 16.39C31 16.91 30.9 17.39 30.75 17.86L44.15 21.23V21.24ZM68.64 5.80004L52.58 18.92C52.93 19.28 53.21 19.7 53.44 20.15L69.54 6.99004C69.18 6.64004 68.88 6.23004 68.64 5.79004V5.80004ZM49 43.65C48.59 43.65 48.25 43.99 48.25 44.4V62.47C48.5 62.43 48.74 62.39 49 62.39C49.26 62.39 49.5 62.43 49.75 62.47V44.4C49.75 43.99 49.41 43.65 49 43.65Z" fill="black"/>
<path id="dot" d="M3 33.8999C4.38071 33.8999 5.5 32.7806 5.5 31.3999C5.5 30.0192 4.38071 28.8999 3 28.8999C1.61929 28.8999 0.5 30.0192 0.5 31.3999C0.5 32.7806 1.61929 33.8999 3 33.8999Z" fill="#34658A"/>
<path id="dot-2" d="M3 69.8999C4.38071 69.8999 5.5 68.7806 5.5 67.3999C5.5 66.0192 4.38071 64.8999 3 64.8999C1.61929 64.8999 0.5 66.0192 0.5 67.3999C0.5 68.7806 1.61929 69.8999 3 69.8999Z" fill="#34658A"/>
<path id="dot-3" d="M26 69.8999C27.3807 69.8999 28.5 68.7806 28.5 67.3999C28.5 66.0192 27.3807 64.8999 26 64.8999C24.6193 64.8999 23.5 66.0192 23.5 67.3999C23.5 68.7806 24.6193 69.8999 26 69.8999Z" fill="#34658A"/>
<path id="dot-4" d="M49 69.8999C50.3807 69.8999 51.5 68.7806 51.5 67.3999C51.5 66.0192 50.3807 64.8999 49 64.8999C47.6193 64.8999 46.5 66.0192 46.5 67.3999C46.5 68.7806 47.6193 69.8999 49 69.8999Z" fill="#34658A"/>
<path id="dot-5" d="M73 69.8999C74.3807 69.8999 75.5 68.7806 75.5 67.3999C75.5 66.0192 74.3807 64.8999 73 64.8999C71.6193 64.8999 70.5 66.0192 70.5 67.3999C70.5 68.7806 71.6193 69.8999 73 69.8999Z" fill="#34658A"/>
<path id="dot-6" d="M26 18.8999C27.3807 18.8999 28.5 17.7806 28.5 16.3999C28.5 15.0192 27.3807 13.8999 26 13.8999C24.6193 13.8999 23.5 15.0192 23.5 16.3999C23.5 17.7806 24.6193 18.8999 26 18.8999Z" fill="#34658A"/>
<path id="dot-7" d="M49 24.8999C50.3807 24.8999 51.5 23.7806 51.5 22.3999C51.5 21.0192 50.3807 19.8999 49 19.8999C47.6193 19.8999 46.5 21.0192 46.5 22.3999C46.5 23.7806 47.6193 24.8999 49 24.8999Z" fill="#34658A"/>
<path id="dot-8" d="M73 5.8999C74.3807 5.8999 75.5 4.78061 75.5 3.3999C75.5 2.01919 74.3807 0.899902 73 0.899902C71.6193 0.899902 70.5 2.01919 70.5 3.3999C70.5 4.78061 71.6193 5.8999 73 5.8999Z" fill="#34658A"/>
</g>
</svg>
