<svg width="85" height="74" viewBox="0 0 85 74" fill="none" xmlns="http://www.w3.org/2000/svg">
<g id="app_maintenance">
<path id="shape" d="M63.545 70.8602C63.525 71.0402 63.495 71.2202 63.495 71.4002C63.495 71.7302 63.535 72.0402 63.595 72.3502H19.395C19.455 72.0402 19.495 71.7302 19.495 71.4002C19.495 71.2102 19.455 71.0402 19.445 70.8602H63.555H63.545ZM47.495 3.41016C48.595 3.41016 49.495 4.31016 49.495 5.41016C49.495 6.51016 48.595 7.41016 47.495 7.41016H41.645C40.545 7.41016 39.645 6.51016 39.645 5.41016C39.645 4.31016 40.545 3.41016 41.645 3.41016H47.495ZM47.495 4.91016H41.645C41.365 4.91016 41.145 5.14016 41.145 5.41016C41.145 5.68016 41.375 5.91016 41.645 5.91016H47.495C47.775 5.91016 47.995 5.68016 47.995 5.41016C47.995 5.14016 47.765 4.91016 47.495 4.91016ZM19.055 40.6702C20.235 36.1302 22.745 32.0102 26.275 28.8302V50.8202C24.525 51.8102 23.025 53.2502 21.955 55.0202C21.745 55.3802 21.855 55.8402 22.215 56.0502C22.575 56.2602 23.035 56.1502 23.245 55.7902C25.125 52.6502 28.435 50.7802 32.085 50.7802C32.245 50.7802 32.395 50.8002 32.555 50.8102C32.615 50.2902 32.745 49.7902 32.955 49.3302C32.665 49.3102 32.375 49.2802 32.085 49.2802C30.595 49.2802 29.125 49.5702 27.775 50.1002V13.5602C27.775 11.4002 29.295 9.94016 31.565 9.94016H56.615C56.825 9.94016 57.025 9.97016 57.225 10.0002C57.565 9.52016 57.985 9.10016 58.475 8.77016C57.895 8.57016 57.275 8.45016 56.615 8.45016H31.565C30.035 8.45016 28.715 8.99016 27.775 9.89016V6.95016C27.775 4.08016 30.165 2.16016 32.405 2.16016H55.785C57.985 2.16016 60.535 4.25016 60.535 6.95016V7.98016C60.785 7.94016 61.025 7.90016 61.285 7.90016C61.545 7.90016 61.785 7.94016 62.035 7.98016V6.95016C62.035 3.35016 58.735 0.660156 55.785 0.660156H32.405C29.445 0.660156 26.275 3.19016 26.275 6.95016V26.8702C21.965 30.3602 18.935 35.1302 17.585 40.4102C18.105 40.4102 18.595 40.5202 19.065 40.6802L19.055 40.6702ZM9.80498 69.7102C8.29498 69.1402 6.72498 68.2902 5.41498 66.9902C3.26498 64.8602 2.16498 61.9302 2.16498 58.2802C2.16498 54.6302 3.85498 50.9502 6.79498 48.5602C8.48498 47.1902 10.465 46.2902 12.545 45.9102C12.525 45.7402 12.495 45.5702 12.495 45.3902C12.495 45.0502 12.535 44.7102 12.595 44.3802C10.145 44.7702 7.82498 45.7802 5.84498 47.3902C2.55498 50.0702 0.664978 54.0402 0.664978 58.2702C0.664978 62.5002 1.91498 65.6302 4.36498 68.0502C5.92498 69.5902 7.76498 70.5702 9.50498 71.2002C9.52498 70.6702 9.62498 70.1702 9.80498 69.6902V69.7102ZM78.655 40.5402C75.115 37.1202 70.425 35.2902 65.535 35.3502C64.595 33.4702 63.415 31.7002 62.035 30.1002V17.8202C61.785 17.8602 61.545 17.9002 61.285 17.9002C61.025 17.9002 60.785 17.8602 60.535 17.8202V46.8802C57.735 44.8802 54.335 43.7502 50.785 43.7502C46.945 43.7502 43.315 45.0402 40.405 47.3402C40.825 47.6402 41.185 48.0002 41.495 48.4102C44.125 46.3902 47.355 45.2402 50.795 45.2402C56.315 45.2402 61.425 48.2302 64.125 53.0602C64.325 53.4202 64.785 53.5502 65.145 53.3502C65.505 53.1502 65.635 52.6902 65.435 52.3302C64.525 50.7202 63.375 49.2902 62.045 48.0802V32.5002C62.955 33.7302 63.745 35.0502 64.405 36.4302C64.535 36.7002 64.805 36.8802 65.105 36.8602C69.825 36.7002 74.255 38.3802 77.625 41.6202C80.985 44.8602 82.835 49.2002 82.835 53.8402C82.835 62.8502 77.375 67.1601 72.965 69.1702C73.175 69.6002 73.335 70.0501 73.425 70.5302C78.255 68.3302 84.335 63.6302 84.335 53.8402C84.335 48.7802 82.325 44.0602 78.665 40.5402H78.655ZM33.655 18.1702H42.265C42.675 18.1702 43.015 17.8302 43.015 17.4202C43.015 17.0102 42.675 16.6702 42.265 16.6702H33.655C33.245 16.6702 32.905 17.0102 32.905 17.4202C32.905 17.8302 33.245 18.1702 33.655 18.1702ZM33.655 33.6402H42.265C42.675 33.6402 43.015 33.3002 43.015 32.8902C43.015 32.4802 42.675 32.1402 42.265 32.1402H33.655C33.245 32.1402 32.905 32.4802 32.905 32.8902C32.905 33.3002 33.245 33.6402 33.655 33.6402ZM50.295 38.4202C50.295 38.0102 49.955 37.6702 49.545 37.6702H33.655C33.245 37.6702 32.905 38.0102 32.905 38.4202C32.905 38.8302 33.245 39.1702 33.655 39.1702H49.545C49.955 39.1702 50.295 38.8302 50.295 38.4202ZM49.545 22.2002H33.655C33.245 22.2002 32.905 22.5402 32.905 22.9502C32.905 23.3602 33.245 23.7002 33.655 23.7002H49.545C49.955 23.7002 50.295 23.3602 50.295 22.9502C50.295 22.5402 49.955 22.2002 49.545 22.2002Z" fill="black"/>
<path id="dot" d="M61.275 15.4004C62.6557 15.4004 63.775 14.2811 63.775 12.9004C63.775 11.5197 62.6557 10.4004 61.275 10.4004C59.8943 10.4004 58.775 11.5197 58.775 12.9004C58.775 14.2811 59.8943 15.4004 61.275 15.4004Z" fill="#34658A"/>
<path id="dot-2" d="M17.485 47.9004C18.8657 47.9004 19.985 46.7811 19.985 45.4004C19.985 44.0197 18.8657 42.9004 17.485 42.9004C16.1043 42.9004 14.985 44.0197 14.985 45.4004C14.985 46.7811 16.1043 47.9004 17.485 47.9004Z" fill="#34658A"/>
<path id="dot-3" d="M14.485 73.9004C15.8657 73.9004 16.985 72.7811 16.985 71.4004C16.985 70.0197 15.8657 68.9004 14.485 68.9004C13.1043 68.9004 11.985 70.0197 11.985 71.4004C11.985 72.7811 13.1043 73.9004 14.485 73.9004Z" fill="#34658A"/>
<path id="dot-4" d="M37.485 53.9004C38.8657 53.9004 39.985 52.7811 39.985 51.4004C39.985 50.0197 38.8657 48.9004 37.485 48.9004C36.1043 48.9004 34.985 50.0197 34.985 51.4004C34.985 52.7811 36.1043 53.9004 37.485 53.9004Z" fill="#34658A"/>
<path id="dot-5" d="M68.485 73.9004C69.8657 73.9004 70.985 72.7811 70.985 71.4004C70.985 70.0197 69.8657 68.9004 68.485 68.9004C67.1043 68.9004 65.985 70.0197 65.985 71.4004C65.985 72.7811 67.1043 73.9004 68.485 73.9004Z" fill="#34658A"/>
</g>
</svg>
