<svg width="225" height="60" viewBox="0 0 225 60" fill="none" xmlns="http://www.w3.org/2000/svg">
<path d="M55.6402 0.740471L0.736437 55.6442C-0.254487 56.646 -0.243597 58.2685 0.758216 59.2594C1.23734 59.7277 1.86892 59.989 2.54406 59.9999H23.6692L59.9959 24.1415V2.54809C59.985 1.13248 58.8307 0 57.4151 0C56.7509 0 56.1084 0.272232 55.6293 0.740471M43.0086 35.2704C41.8326 38.4065 38.3371 39.9963 35.201 38.8311C32.0649 37.6551 30.475 34.1596 31.6402 31.0235C32.8162 27.8874 36.3008 26.2976 39.4369 27.4627C42.573 28.6388 44.1738 32.1234 42.9977 35.2704" fill="#00AD59"/>
<path d="M46.8089 60H57.4368C58.8416 60 59.9849 58.8457 59.9849 57.441V29.2378C53.9632 35.9891 44.6311 48.6207 46.8089 60Z" fill="#00AD59"/>
<path d="M86.1085 22.8566L83.8326 16.432L81.4152 22.8566H86.1085ZM87.3063 26.1234H80.1303L78.682 29.7169H74.1194L81.7419 10.7151H85.76L93.2409 29.7169H88.7328L87.3063 26.1234Z" fill="black"/>
<path d="M95.1028 17.0527H99.1971V19.0564C99.5674 18.3377 100.112 17.717 100.798 17.2814C101.462 16.9003 102.213 16.7152 102.976 16.7478C103.433 16.7478 103.88 16.8023 104.315 16.9438L104.086 20.7877C103.52 20.4828 102.878 20.3195 102.235 20.3304C101.462 20.3086 100.711 20.6244 100.188 21.1906C99.4258 22.1598 99.0773 23.3794 99.1862 24.599V29.7605H95.1028V17.0527Z" fill="black"/>
<path d="M111.611 20.3627V29.7602H107.506V20.3627H106.09V17.0633H107.506V12.958H111.611V17.0633H114.148V20.3627H111.611Z" fill="black"/>
<path d="M116.13 8.99463H120.235V18.5663C120.649 18.0327 121.172 17.5863 121.771 17.2596C122.533 16.8567 123.382 16.6716 124.243 16.7151C125.571 16.628 126.867 17.0962 127.836 18.0001C128.74 19.0128 129.186 20.3521 129.088 21.7024V29.7605H124.983V23.2269C125.103 22.3231 124.863 21.4084 124.308 20.6897C123.861 20.3086 123.295 20.1017 122.707 20.1235C122.108 20.1017 121.52 20.3195 121.085 20.7442C120.464 21.4846 120.148 22.4429 120.235 23.4011V29.7496H116.13V8.99463Z" fill="black"/>
<path d="M131.212 17.0527H135.317V19.0564C135.676 18.3268 136.232 17.717 136.918 17.2814C137.571 16.9003 138.333 16.7152 139.096 16.7478C139.553 16.7478 139.999 16.8023 140.435 16.9438L140.206 20.7877C139.64 20.4828 138.998 20.3304 138.355 20.3304C137.582 20.3086 136.831 20.6244 136.308 21.1906C135.546 22.1598 135.197 23.3794 135.306 24.599V29.7605H131.201V17.0527H131.212Z" fill="black"/>
<path d="M146.402 29.7604H142.297V17.0526H146.402V29.7604ZM144.355 9.25586C145.684 9.25586 146.751 10.323 146.751 11.6515C146.751 12.98 145.684 14.0471 144.355 14.0471C143.027 14.0471 141.959 12.98 141.959 11.6515C141.949 10.3448 143.005 9.26675 144.312 9.25586C144.322 9.25586 144.344 9.25586 144.355 9.25586Z" fill="black"/>
<path d="M154.21 20.3627V29.7602H150.116V20.3627H148.689V17.0633H150.116V12.958H154.21V17.0633H156.747V20.3627H154.21Z" fill="black"/>
<path d="M162.834 29.7604H158.74V17.0526H162.834V29.7604ZM160.787 9.25586C162.116 9.25586 163.183 10.323 163.183 11.6515C163.183 12.98 162.116 14.0471 160.787 14.0471C159.459 14.0471 158.391 12.98 158.391 11.6515C158.38 10.3448 159.437 9.26675 160.743 9.25586C160.754 9.25586 160.776 9.25586 160.787 9.25586Z" fill="black"/>
<path d="M173.723 20.3084C173.048 19.8837 172.275 19.6332 171.48 19.5897C171.056 19.5679 170.642 19.6986 170.315 19.9599C170.163 20.1123 170.065 20.3084 170.054 20.5261C170.065 20.7766 170.228 21.0053 170.457 21.1033C170.849 21.2775 171.262 21.4191 171.676 21.528L172.765 21.8655C173.538 22.0724 174.257 22.4427 174.867 22.9544C175.553 23.5751 175.923 24.4681 175.869 25.3828C175.901 26.6241 175.422 27.8328 174.551 28.7149C173.44 29.7494 171.938 30.2829 170.424 30.1631C168.518 30.2285 166.656 29.586 165.208 28.3446L166.95 25.5788C167.375 25.949 167.843 26.2539 168.344 26.5152C168.878 26.7875 169.455 26.9181 170.054 26.9181C170.5 26.9508 170.947 26.8528 171.339 26.635C171.6 26.439 171.752 26.1341 171.763 25.8074C171.763 25.4916 171.589 25.2085 171.306 25.067C170.914 24.8601 170.489 24.7076 170.054 24.6096L169.03 24.2938C168.268 24.076 167.56 23.6731 166.983 23.1287C166.373 22.5189 166.046 21.6804 166.068 20.8202C166.046 19.7203 166.493 18.6532 167.288 17.8909C168.366 16.998 169.738 16.5407 171.132 16.606C172.613 16.5733 174.072 16.9545 175.357 17.6949L173.723 20.3084Z" fill="black"/>
<path d="M86.1083 43.1977H79.9559V46.8674H85.6618V50.5697H79.9559V58.4863H75.5784V39.4954H86.1083V43.1977Z" fill="black"/>
<path d="M93.0338 49.7529C91.6944 50.9616 91.5747 53.0197 92.7834 54.37C93.4367 55.0995 94.3841 55.4916 95.3641 55.448C96.2135 55.4698 97.0411 55.1431 97.64 54.5333C98.2716 53.9017 98.6091 53.0306 98.5765 52.1377C98.6091 51.2447 98.2716 50.3845 97.64 49.7529C96.3442 48.5333 94.3297 48.5333 93.0338 49.7529ZM100.885 56.8636C97.6944 59.6077 92.9685 59.6077 89.7779 56.8636C87.2407 54.2284 87.2407 50.0469 89.7779 47.4117C92.9794 44.6785 97.6835 44.6785 100.885 47.4117C103.422 50.0469 103.422 54.2284 100.885 56.8636Z" fill="black"/>
<path d="M108.66 45.7896V52.7914C108.595 53.5427 108.856 54.2941 109.379 54.8494C109.847 55.2632 110.468 55.4701 111.088 55.4483C111.72 55.4701 112.341 55.2523 112.82 54.8494C113.321 54.2832 113.56 53.5427 113.506 52.7914V45.7896H117.589V53.1943C117.742 54.697 117.219 56.1888 116.163 57.2668C113.114 59.4774 108.987 59.4774 105.938 57.2668C104.936 56.265 104.413 54.8712 104.522 53.4556V45.8331L108.66 45.7896Z" fill="black"/>
<path d="M120.116 45.7892H124.221V47.3028C125.136 46.0723 126.606 45.3754 128.141 45.4516C130.602 45.1794 132.813 46.9544 133.085 49.4044C133.128 49.7529 133.117 50.1122 133.085 50.4607V58.4861H128.98V51.9525C129.088 51.0487 128.849 50.1449 128.304 49.4153C127.88 49.0233 127.313 48.8164 126.736 48.8382C126.094 48.8055 125.462 49.056 125.027 49.5242C124.439 50.1885 124.156 51.0705 124.232 51.9525V58.4861H120.127V45.7892H120.116Z" fill="black"/>
<path d="M140.152 49.753C139.498 50.3845 139.128 51.2557 139.15 52.1704C139.15 53.0524 139.52 53.8909 140.152 54.5007C140.74 55.0669 141.513 55.3827 142.33 55.3827C143.201 55.3827 144.028 55.0343 144.66 54.4462C145.281 53.8473 145.618 53.0306 145.596 52.1704C145.618 51.2992 145.292 50.4608 144.693 49.8292C144.094 49.1976 143.255 48.86 142.384 48.8927C141.567 48.8709 140.783 49.1758 140.206 49.753M149.462 58.4644H145.357V56.9508C144.464 58.2684 142.929 59.0197 141.339 58.9217C139.705 58.9979 138.115 58.3555 136.983 57.1794C135.665 55.8183 134.947 53.978 134.99 52.0833C134.936 50.2103 135.654 48.3918 136.983 47.0742C138.17 45.9744 139.727 45.3646 141.339 45.3646C142.885 45.2992 144.366 45.9853 145.302 47.2158V37.7312H149.408L149.462 58.4644Z" fill="black"/>
<path d="M156.529 49.8077C155.909 50.4175 155.56 51.2451 155.582 52.1162C155.56 52.9547 155.876 53.7714 156.442 54.3921C157.085 55.0345 157.956 55.3939 158.86 55.383C159.676 55.3939 160.46 55.0781 161.037 54.5009C162.333 53.1942 162.333 51.0817 161.037 49.775C160.417 49.2088 159.6 48.893 158.762 48.893C157.923 48.893 157.117 49.2196 156.518 49.8077M161.723 45.7895H165.829V58.4864H161.723V56.951C160.918 58.236 159.48 58.9873 157.967 58.922C156.17 59.02 154.428 58.3122 153.208 56.9837C151.988 55.7097 151.324 54.0109 151.346 52.2578C151.302 50.3521 152.01 48.5118 153.317 47.1289C154.482 45.9964 156.05 45.3757 157.673 45.3975C159.219 45.3213 160.711 46.0182 161.658 47.2487L161.723 45.7895Z" fill="black"/>
<path d="M173.614 49.089V58.4865H169.52V49.089H168.094V45.7896H169.52V41.6843H173.614V45.7896H176.152V49.089H173.614Z" fill="black"/>
<path d="M182.239 58.4862H178.144V45.7893H182.239V58.4862ZM180.192 37.9817C181.52 37.9817 182.587 39.0488 182.587 40.3773C182.587 41.7058 181.52 42.773 180.192 42.773C178.863 42.773 177.796 41.7058 177.796 40.3773C177.785 39.0706 178.841 37.9926 180.148 37.9817C180.159 37.9817 180.181 37.9817 180.192 37.9817Z" fill="black"/>
<path d="M189.611 49.7529C188.272 50.9616 188.152 53.0197 189.36 54.37C190.014 55.0995 190.961 55.4916 191.941 55.448C192.791 55.4698 193.618 55.1431 194.217 54.5333C194.849 53.9017 195.186 53.0306 195.164 52.1377C195.197 51.2447 194.849 50.3845 194.217 49.7529C192.921 48.5333 190.907 48.5333 189.611 49.7529ZM197.473 56.8636C194.282 59.6077 189.556 59.6077 186.366 56.8636C183.807 54.2284 183.807 50.0469 186.366 47.4117C189.567 44.6785 194.272 44.6785 197.473 47.4117C200.01 50.0469 200.01 54.2284 197.473 56.8636Z" fill="black"/>
<path d="M201.241 45.7892H205.346V47.3028C206.261 46.0723 207.731 45.3754 209.266 45.4516C211.727 45.1794 213.938 46.9544 214.21 49.4044C214.253 49.7529 214.243 50.1122 214.21 50.4607V58.4861H210.159V51.9525C210.268 51.0487 210.028 50.1449 209.484 49.4153C209.059 49.0233 208.493 48.8164 207.916 48.8382C207.273 48.8164 206.653 49.056 206.206 49.5242C205.618 50.1885 205.335 51.0705 205.411 51.9525V58.4861H201.306L201.252 45.7892H201.241Z" fill="black"/>
<path d="M218.772 39.7677C218.718 39.6588 218.642 39.5608 218.544 39.4737C218.413 39.3757 218.26 39.3212 218.097 39.3321C217.76 39.2994 217.466 39.5499 217.433 39.8875C217.433 39.9092 217.433 39.931 217.433 39.9528C217.433 40.0835 217.476 40.2141 217.574 40.3012C217.705 40.4101 217.847 40.4973 217.999 40.5517L218.38 40.715C218.609 40.8022 218.816 40.9219 218.99 41.0853C219.186 41.2813 219.284 41.5426 219.273 41.8149C219.295 42.4682 218.772 43.0127 218.119 43.0345C218.086 43.0345 218.054 43.0345 218.021 43.0345C217.694 43.0453 217.389 42.9256 217.15 42.7078C216.965 42.5118 216.834 42.2722 216.78 42.0109L217.215 41.8911C217.237 42.0762 217.324 42.2504 217.455 42.392C217.77 42.7078 218.282 42.6969 218.598 42.392C218.75 42.2395 218.827 42.0435 218.827 41.8366C218.827 41.6624 218.761 41.4991 218.631 41.3793C218.489 41.2595 218.326 41.1615 218.152 41.0962L217.792 40.9328C217.596 40.8566 217.422 40.7477 217.259 40.6061C217.074 40.4428 216.976 40.2032 216.986 39.9528C216.986 39.3865 217.444 38.9292 218.01 38.9292C218.032 38.9292 218.054 38.9292 218.075 38.9292C218.304 38.9292 218.522 38.9836 218.718 39.1034C218.881 39.2232 219.012 39.3757 219.11 39.5499L218.772 39.7786V39.7677Z" fill="black"/>
<path d="M220.58 42.9584L221.244 38.766L222.769 42.1199L224.326 38.7551L224.947 42.9584H224.489L224.119 40.1925L222.758 43.1326L221.429 40.1925L221.037 42.9584H220.58Z" fill="black"/>
</svg>
