<svg width="233" height="60" viewBox="0 0 233 60" fill="none" xmlns="http://www.w3.org/2000/svg">
<path d="M43.786 9.36283C43.6845 9.27587 43.641 9.07295 43.641 8.73959V3.08697C43.5976 2.68114 43.699 2.27531 43.9309 1.94195C44.2933 1.71005 44.7281 1.60859 45.1484 1.66656C46.4529 1.62308 47.7283 2.10138 48.6849 3C49.627 3.84065 50.1488 5.04364 50.1343 6.30462C50.1343 8.43522 49.0183 9.49328 46.7717 9.49328H44.5542C44.2933 9.52226 44.0324 9.47878 43.786 9.36283ZM41.409 18.6969C41.351 19.4216 40.7713 19.9869 40.0466 20.0303C39.7857 20.0303 39.6552 20.1608 39.6552 20.3202C39.6552 20.4797 39.7712 20.6101 40.0176 20.6101C40.3219 20.6101 40.6263 20.5666 40.9307 20.5231C41.293 20.5086 41.6409 20.5086 42.0032 20.5231C42.4091 20.5231 42.9743 20.5231 43.699 20.5956L44.7861 20.6826H47.0326C48.7284 20.7406 50.3952 20.1318 51.6417 18.9868C52.8447 17.8708 53.5114 16.2764 53.4534 14.6386C53.4534 13.5516 53.1201 12.4935 52.5113 11.5949C51.9461 10.7398 51.0764 10.1455 50.0908 9.89911C49.6415 9.79765 49.4096 9.69619 49.3951 9.59473C49.3951 9.44979 49.3951 9.46429 49.5835 9.37733L50.1488 8.957C51.3083 8.18882 51.9895 6.85538 51.9316 5.46397C51.975 4.11603 51.3518 2.82608 50.2503 2.02891C48.8733 1.13029 47.2355 0.695471 45.5977 0.796929H44.2643L42.8149 0.883892H39.5683C39.2059 0.883892 39.032 0.985349 39.032 1.20276C39.032 1.42017 39.2204 1.49264 39.5827 1.49264C40.2495 1.46365 40.8727 1.8115 41.1916 2.39126C41.5974 3.26089 41.7713 4.203 41.7134 5.1596V16.175C41.6844 17.0301 41.5829 17.8708 41.409 18.6969ZM47.0181 10.4644C48.2501 10.4354 49.4241 10.9717 50.2213 11.9138C51.0909 12.8993 51.5402 14.1748 51.4967 15.4938C51.5837 16.6967 51.1634 17.8853 50.3372 18.7694C49.4531 19.5955 48.2791 20.0159 47.0761 19.9434C46.2644 19.9724 45.4528 19.8854 44.6701 19.6825C44.2208 19.5665 43.844 19.2332 43.699 18.7984L43.6121 18.2476V11.0151C43.6121 10.7687 43.6121 10.6238 43.7425 10.5658C43.9309 10.4789 44.1338 10.4499 44.3368 10.4644H47.0181Z" fill="black"/>
<path d="M72.0926 12.2476V4.8847C72.1506 4.00057 71.9911 3.11644 71.6143 2.30479C71.2519 1.76851 70.6432 1.44964 69.991 1.44964C69.7156 1.37718 69.5707 1.26122 69.5707 1.0873C69.5707 0.898876 69.6576 0.797419 69.8315 0.811913C70.1214 0.840901 70.4113 0.884382 70.6867 0.942358C71.0925 1.00033 71.5128 1.02932 71.9187 1.02932C72.5274 1.0728 73.1507 1.0728 73.7594 1.02932H74.3392C74.4696 1.01483 74.5856 1.10179 74.6 1.23224C74.6 1.24673 74.6 1.27572 74.6 1.29021C74.6 1.42066 74.5131 1.53661 74.3102 1.60908C73.8319 1.783 73.455 2.14535 73.2521 2.60916C73.0492 3.39183 72.9622 4.21798 73.0057 5.02964V11.9432C73.1362 14.0304 72.6289 16.1175 71.5563 17.9147C70.8896 18.8423 69.9765 19.567 68.9184 20.0163C67.7734 20.5526 66.5124 20.8135 65.2515 20.8135C63.8311 20.828 62.4252 20.5091 61.1497 19.8714C60.0337 19.3351 59.1205 18.48 58.5263 17.393C57.8306 15.8856 57.4972 14.2333 57.5697 12.581V4.46438C57.6422 3.73968 57.4972 3.01499 57.1639 2.36276C56.758 1.91345 56.1928 1.63807 55.584 1.60908C55.3376 1.60908 55.2217 1.47863 55.2217 1.3192C55.2217 1.15977 55.3956 0.98584 55.729 0.98584H61.0048C61.2077 0.98584 61.3091 0.98584 61.3091 1.21774C61.3091 1.44964 61.1642 1.50762 60.8888 1.5656C60.454 1.62357 60.0627 1.89896 59.8452 2.2758C59.6278 2.88454 59.5409 3.53677 59.5844 4.18899V12.2476C59.4394 14.0593 59.8018 15.8711 60.6424 17.4799C61.8599 19.0308 63.7731 19.8714 65.7443 19.683C67.527 19.8279 69.2808 19.1322 70.4983 17.8278C71.6723 16.2189 72.2375 14.2333 72.0926 12.2476Z" fill="black"/>
<path d="M93.5293 2.68114L93.9641 6.10171V6.5945C93.9207 6.66697 93.8482 6.72494 93.7612 6.73944C93.6598 6.73944 93.5003 6.55102 93.2829 6.14519C91.6161 3.0145 89.3696 1.47815 86.5143 1.52163C84.4851 1.43467 82.5284 2.24633 81.166 3.7392C79.7746 5.44948 79.0789 7.62357 79.1948 9.82664C79.0789 12.4211 79.8471 14.972 81.3834 17.0736C82.6734 18.8563 84.7605 19.9144 86.9636 19.8854C88.355 19.8854 89.7174 19.4796 90.9059 18.7404C92.0799 18.1172 93.022 17.1316 93.6018 15.9431C93.8337 15.4358 94.0076 15.1749 94.1236 15.1604C94.2685 15.1604 94.3265 15.2474 94.3265 15.4358V15.5952L94.2105 15.9431L93.8917 17.6823V17.9287C93.7902 18.2621 93.5728 18.5375 93.2684 18.6969C91.2828 20.0883 88.9058 20.813 86.4853 20.7985C83.9054 20.9 81.3979 19.9144 79.5717 18.0882C77.7744 16.1605 76.8323 13.5806 76.9483 10.9427C76.8758 8.21782 77.8614 5.57993 79.7166 3.57977C81.4704 1.66657 83.9633 0.608514 86.5577 0.680983C88.3695 0.66649 90.1522 1.13029 91.7321 2.02892L92.2683 2.33329L92.4858 2.43475L92.7177 2.52171C92.7177 2.52171 92.8191 2.52171 92.9061 2.40576C92.993 2.28981 93.2394 2.15936 93.3119 2.15936C93.3844 2.15936 93.4858 2.3188 93.5293 2.68114Z" fill="black"/>
<path d="M100.733 11.9432V17.1465C100.66 17.8857 100.805 18.6394 101.153 19.3061C101.675 19.7699 102.341 20.0453 103.037 20.0888C103.313 20.0888 103.443 20.2337 103.458 20.3932C103.472 20.5526 103.356 20.6686 103.124 20.6686H102.399C101.878 20.6396 101.341 20.6396 100.82 20.6686H98.0658L97.2686 20.7555C96.9643 20.7555 96.8193 20.6396 96.8193 20.4222C96.8193 20.2048 96.9498 20.2048 97.2252 20.1758C97.7324 20.1323 98.1817 19.8134 98.3847 19.3351C98.6455 18.509 98.747 17.6538 98.7035 16.7842V4.55133C98.747 3.82663 98.6456 3.10194 98.3992 2.42072C98.1528 1.9859 97.7179 1.68153 97.2252 1.60906L96.5584 1.44963C96.3265 1.44963 96.2106 1.30469 96.2106 1.15975C96.2106 1.01481 96.3265 0.869873 96.5584 0.869873H97.0367C97.7469 0.956837 98.4716 0.985824 99.1818 0.97133H101.37L102.008 0.898861C102.226 0.898861 102.327 0.97133 102.327 1.15975C102.327 1.34817 102.226 1.39165 102.008 1.47862C101.559 1.63805 101.182 1.95692 100.95 2.36275C100.762 3.00048 100.689 3.68169 100.733 4.34841V9.8561C100.733 10.059 100.733 10.1605 100.849 10.1605L101.066 10.001L101.254 9.8416L107.052 4.3774C107.922 3.53675 108.371 2.92801 108.371 2.37724C108.371 1.82647 108.052 1.65254 107.4 1.53659C106.994 1.53659 106.791 1.34817 106.791 1.17425C106.791 1.00032 106.936 0.884367 107.211 0.884367H107.559C107.98 0.927849 108.414 0.956837 108.835 0.956837H111.081C111.444 0.985824 111.821 0.985824 112.183 0.956837L112.603 0.884367C112.835 0.884367 112.966 0.97133 112.995 1.15975C113.024 1.34817 112.792 1.42064 112.342 1.53659C110.589 2.44971 109.009 3.6672 107.69 5.14558L103.095 9.56622C102.907 9.75464 102.805 9.89958 102.805 10.0155C102.834 10.2474 102.936 10.4503 103.11 10.6098L110.154 18.364C110.762 19.1177 111.618 19.654 112.56 19.8859L113.139 20.0163C113.342 20.0163 113.444 20.1033 113.444 20.2772C113.444 20.5091 113.313 20.6106 113.038 20.5961H112.705C112.328 20.5671 111.951 20.5671 111.574 20.5961H109.806C109.501 20.6251 109.212 20.5091 108.994 20.2917L108.704 19.9439L101.457 12.0882L101.182 11.7693C101.11 11.6823 100.994 11.6244 100.878 11.6244C100.82 11.5954 100.733 11.7258 100.733 11.9432Z" fill="black"/>
<path d="M119.691 9.82676H127.546C127.807 9.85575 128.054 9.82676 128.3 9.7253C128.43 9.58037 128.488 9.39194 128.459 9.20352V4.34806C128.517 3.63786 128.387 2.92766 128.112 2.27543C127.822 1.84062 127.387 1.55074 126.88 1.44928C126.604 1.44928 126.474 1.27535 126.488 1.11592C126.503 0.956487 126.604 0.869524 126.822 0.869524H127.735C128.155 0.869524 128.996 1.02896 129.575 1.02896C130.242 1.04345 130.909 1.02896 131.576 0.941993C131.735 0.941993 131.909 0.941993 132.068 0.941993C132.286 0.941993 132.387 1.02896 132.387 1.21738C132.387 1.4058 132.286 1.47827 132.068 1.52175L131.532 1.6522C131.213 1.73916 130.952 1.97106 130.822 2.27543C130.633 2.66677 130.532 3.10159 130.546 3.5364V17.2332C130.489 17.9578 130.619 18.668 130.938 19.3203C131.329 19.7696 131.88 20.0305 132.474 20.0305C132.75 20.0305 132.895 20.1609 132.895 20.3204C132.895 20.4798 132.793 20.6537 132.532 20.6537H126.981C126.764 20.6537 126.662 20.5668 126.662 20.3783C126.662 20.1899 126.822 20.1174 127.111 20.074C128.083 19.9 128.561 19.0884 128.561 17.639V11.8414C128.59 11.5805 128.561 11.3051 128.445 11.0587C128.169 10.9283 127.851 10.8848 127.546 10.9138H119.691C119.357 10.8703 119.024 10.9283 118.734 11.0877C118.618 11.1892 118.56 11.4646 118.56 11.9139V17.1317C118.502 17.8564 118.647 18.5666 118.995 19.2043C119.415 19.6536 119.995 19.929 120.618 19.9435C120.952 19.9435 121.111 20.1029 121.125 20.3059C121.14 20.5088 121.009 20.5957 120.749 20.5957L120.096 20.5233C119.56 20.4943 119.038 20.4943 118.502 20.5233H115.69L114.85 20.5957C114.618 20.5957 114.516 20.5088 114.516 20.3348C114.516 20.1609 114.618 20.074 114.85 20.016L115.516 19.8421C115.951 19.7116 116.27 19.3493 116.328 18.9C116.502 17.9868 116.574 17.0447 116.545 16.1171V3.88426C116.589 3.26102 116.429 2.63778 116.096 2.10151C115.676 1.6522 115.11 1.3913 114.502 1.34782C114.241 1.34782 114.125 1.21738 114.125 1.05794C114.125 0.898512 114.226 0.768066 114.458 0.768066L115.255 0.85503C116.067 0.941993 116.879 0.985475 117.69 0.985475C118.285 0.985475 118.879 0.956487 119.473 0.869524C119.662 0.85503 119.835 0.85503 120.024 0.869524C120.27 0.869524 120.401 0.970981 120.401 1.1594C120.401 1.34782 120.299 1.36232 120.053 1.44928C119.589 1.53624 119.169 1.78264 118.85 2.14499C118.632 2.5943 118.531 3.08709 118.56 3.59438V8.69624C118.517 9.0296 118.56 9.36296 118.705 9.66733C119.009 9.81227 119.357 9.87024 119.691 9.82676Z" fill="black"/>
<path d="M139.446 3.26133V9.05889C139.417 9.33428 139.446 9.60966 139.562 9.85606C139.562 9.94302 139.866 9.9865 140.243 9.9865H142.301C143.041 10.001 143.78 9.94302 144.504 9.81258C144.852 9.78359 145.186 9.63865 145.447 9.40675C145.649 9.0444 145.78 8.63857 145.823 8.21825C145.823 7.98634 145.997 7.87039 146.186 7.88489C146.374 7.89938 146.447 8.01533 146.447 8.26173V8.58059C146.36 9.47922 146.316 10.3199 146.316 11.0735C146.316 11.6243 146.331 12.1606 146.389 12.7114V13.1317C146.389 13.2186 146.302 13.4795 146.128 13.4795C145.939 13.494 145.78 13.3636 145.765 13.1752L145.678 12.7693C145.649 12.262 145.418 11.7982 145.041 11.4649C144.562 11.204 144.026 11.088 143.49 11.117H140.591C140.287 11.1025 139.997 11.146 139.721 11.262C139.548 11.4069 139.461 11.6243 139.49 11.8417V17.5668C139.49 18.3785 139.635 18.8858 139.895 19.0887C140.548 19.3496 141.258 19.451 141.954 19.3786C145.432 19.3786 147.664 18.5524 148.664 16.8856C148.722 16.7552 148.838 16.6682 148.983 16.6247C149.157 16.6247 149.244 16.7407 149.244 17.0016C149.157 17.8132 148.809 18.5814 148.258 19.1756C147.577 20.0888 146.505 20.6395 145.36 20.625H144.316C142.62 20.4511 141.214 20.3641 140.098 20.3641C139.011 20.3352 137.91 20.3931 136.823 20.5236L136.127 20.6105C135.837 20.6105 135.692 20.5091 135.692 20.3207C135.692 20.1322 135.808 20.0598 136.055 20.0018L136.547 19.8424C137.171 19.6539 137.489 18.9872 137.489 17.8567V4.92813C137.562 4.00052 137.431 3.05841 137.084 2.18878C136.707 1.63801 136.04 1.34813 135.373 1.44959C135.127 1.44959 134.996 1.36263 134.996 1.1887C134.996 1.01477 135.199 0.797363 135.591 0.797363C135.881 0.797363 136.185 0.826351 136.475 0.869833C137.997 1.02927 139.533 1.10174 141.069 1.08724H143.968L145.852 0.985784H146.809C146.983 0.985784 147.157 0.985784 147.331 0.985784C147.635 0.985784 147.78 1.11623 147.78 1.39161V1.71048C147.708 2.08732 147.664 2.46416 147.65 2.841V3.66716C147.65 4.01501 147.592 4.34837 147.505 4.68173C147.461 4.81218 147.345 4.89914 147.2 4.89914C147.012 4.89914 146.925 4.76869 146.925 4.47882V3.98602C146.925 3.69615 146.867 3.40627 146.766 3.13088C146.592 2.69607 146.2 2.3772 145.751 2.27574C144.794 2.08732 143.823 2.01485 142.852 2.05833H140.751C140.388 2.01485 140.011 2.10182 139.692 2.29024C139.49 2.56562 139.403 2.91347 139.446 3.26133Z" fill="black"/>
<path d="M161.143 10.9574C161.143 11.0589 161.143 11.1749 161.143 11.2763C161.143 11.5082 160.911 11.6242 160.462 11.6242H156.114C155.694 11.6242 155.491 11.5082 155.491 11.2618C155.52 11.0734 155.578 10.8995 155.679 10.74L158.273 4.6236C158.273 4.44968 158.418 4.34822 158.491 4.36271C158.563 4.37721 158.723 4.52215 158.839 4.82652L158.94 5.13089L161.056 10.711L161.143 10.9574ZM161.824 13.1315C162.027 13.3924 162.172 13.7113 162.259 14.0302L162.94 15.9144C163.346 16.871 163.636 17.8855 163.767 18.9291C163.825 19.3784 163.535 19.7987 163.1 19.9002L162.68 20.0016C162.462 20.0016 162.346 20.1466 162.346 20.2915C162.346 20.4365 162.462 20.5814 162.694 20.5814H163.114C163.883 20.4944 164.651 20.4655 165.419 20.4944C166.607 20.4944 167.419 20.4944 167.883 20.5669H168.39C168.637 20.5669 168.753 20.4944 168.767 20.335C168.782 20.1756 168.637 20.0451 168.361 19.9872C167.752 19.9292 167.173 19.6973 166.694 19.3349C166.216 18.6827 165.868 17.958 165.651 17.1898L165.346 16.4216L159.549 0.768224C159.462 0.492839 159.346 0.3479 159.201 0.3479C159.056 0.3479 158.94 0.49284 158.824 0.782718L151.969 16.9579L151.592 17.9C151.389 18.3493 151.142 18.7697 150.853 19.161C150.679 19.4364 150.432 19.6828 150.142 19.8422L149.635 20.0016C149.505 20.0306 149.403 20.1611 149.418 20.306C149.418 20.4944 149.534 20.5814 149.766 20.5814L150.519 20.4944H154.273C154.534 20.4944 154.65 20.4075 154.635 20.248C154.621 20.0886 154.491 19.9727 154.23 19.9147C153.78 19.8422 153.36 19.6683 152.998 19.4074C152.766 19.1465 152.65 18.7842 152.679 18.4363C152.751 17.6971 152.954 16.9724 153.273 16.3057L154.172 14.2186C154.302 13.7983 154.519 13.4214 154.809 13.088C155.201 12.9286 155.621 12.8706 156.041 12.9141H160.882C161.216 12.9141 161.535 12.9721 161.824 13.1315Z" fill="black"/>
<path d="M174.058 2.1453C174.884 1.72497 175.811 1.56554 176.739 1.667C178.536 1.60902 180.304 2.15979 181.754 3.23234C182.942 4.14546 183.855 5.36295 184.421 6.75436C185.058 8.29072 185.392 9.92853 185.377 11.5953C185.377 14.871 184.348 17.1755 182.29 18.5379C181.087 19.3496 179.652 19.7699 178.203 19.7554C177.58 19.7554 176.956 19.6684 176.333 19.5525C175.71 19.4365 175.116 19.2626 174.521 19.0452C174.014 18.8713 173.681 18.393 173.71 17.8567V3.30481C173.652 2.88449 173.782 2.46416 174.058 2.1453ZM171.681 17.2624C171.739 17.9726 171.637 18.6828 171.42 19.3641C171.144 19.7554 170.724 20.0163 170.246 20.0743C169.999 20.0743 169.869 20.2337 169.869 20.3786C169.869 20.5236 170.028 20.712 170.347 20.683C170.608 20.683 170.869 20.6395 171.115 20.596C171.927 20.4801 172.753 20.4366 173.579 20.4366C174.463 20.4366 175.492 20.4366 176.681 20.5671C177.275 20.5671 177.681 20.654 177.913 20.654C179.826 20.654 181.696 20.0888 183.276 19.0162C184.595 18.1321 185.653 16.9001 186.319 15.4652C187.059 13.9288 187.421 12.2476 187.406 10.5373C187.508 8.01533 186.609 5.56586 184.913 3.69615C183.102 1.76846 180.377 0.797363 176.71 0.797363H174.956L173.724 0.913315H169.637C169.405 0.913315 169.289 1.00028 169.289 1.20319C169.289 1.40611 169.448 1.46408 169.738 1.49307C170.318 1.52206 170.84 1.81194 171.188 2.27574C171.536 2.92797 171.695 3.65266 171.637 4.39185L171.681 17.2624Z" fill="black"/>
<path d="M194.363 16.5954V17.0882C194.363 18.2333 194.465 18.9 194.682 19.1029C194.9 19.3058 195.595 19.4218 196.813 19.4218C198.378 19.4797 199.958 19.2768 201.465 18.842C202.48 18.6246 203.379 18.0303 203.958 17.1752C204.089 16.9288 204.234 16.7984 204.364 16.7984C204.495 16.7984 204.582 16.8853 204.582 17.0737C204.48 17.8419 204.161 18.5521 203.654 19.1319C202.654 20.2334 201.19 20.8132 199.712 20.6682H198.653L197.117 20.4653C196.219 20.4653 195.276 20.3639 194.218 20.3639C193.247 20.3639 192.276 20.4073 191.32 20.5233C191.059 20.5813 190.783 20.6103 190.522 20.6103C190.291 20.6103 190.175 20.5378 190.175 20.3639C190.175 20.1899 190.305 20.103 190.551 20.0305C191.088 19.9146 191.551 19.6102 191.856 19.1609C192.117 18.5521 192.233 17.8854 192.189 17.2187V3.8553C192.189 2.59433 191.682 1.85514 190.667 1.65222L190.03 1.52178C189.798 1.52178 189.682 1.39133 189.682 1.24639C189.682 1.10146 189.841 0.942023 190.175 0.942023C190.464 0.927529 190.769 0.927529 191.059 0.942023C191.696 0.942023 192.421 1.02899 193.218 1.02899C194.015 1.02899 194.885 1.02899 195.581 0.956517H196.19C196.421 0.956517 196.537 1.02899 196.537 1.17393C196.537 1.37684 196.392 1.50729 196.117 1.57976L195.624 1.69571C194.769 1.89862 194.349 2.75376 194.349 4.23214V16.5954H194.363Z" fill="#8B8B8B"/>
<path d="M208.336 2.63794C208.553 2.63794 208.799 2.84085 209.031 3.2177L209.379 3.75397C209.452 3.85543 209.495 3.98587 209.51 4.11632C209.466 4.46417 209.292 4.78304 209.031 5.02943C208.698 5.42077 208.437 5.60919 208.234 5.60919C208.031 5.60919 207.785 5.42077 207.48 5.04393C207.234 4.79753 207.075 4.47867 207.017 4.14531C207.089 3.79745 207.263 3.47859 207.524 3.23219C207.872 2.89883 208.147 2.63794 208.336 2.63794ZM209.234 18.1319C209.191 18.5957 209.263 19.0595 209.452 19.4799C209.683 19.7552 210.017 19.9147 210.379 19.9292L211.017 20.0016C211.35 20.0016 211.524 20.1611 211.51 20.3495C211.495 20.5379 211.379 20.5814 211.133 20.5814H206.35C206.089 20.5814 205.973 20.4944 205.973 20.306C205.973 20.1611 206.074 20.0306 206.219 20.0016L206.48 19.9147C206.756 19.8277 206.973 19.6393 207.089 19.3784C207.234 18.9871 207.292 18.5668 207.277 18.1464V11.9865C207.306 11.4937 207.234 11.0009 207.046 10.5371C206.799 10.2617 206.437 10.1168 206.074 10.1748C205.712 10.1748 205.538 10.1748 205.553 9.97186C205.567 9.76894 205.799 9.71097 206.277 9.56603C206.973 9.31963 207.64 9.01526 208.292 8.65291L209.046 8.29056C209.162 8.29056 209.234 8.42101 209.234 8.63842V18.1319Z" fill="#8B8B8B"/>
<path d="M216.887 8.94274H219.206C219.409 8.97173 219.612 8.94274 219.8 8.84129L219.989 8.60938C219.989 8.60938 220.148 8.50793 220.235 8.50793C220.38 8.50793 220.438 8.50793 220.438 8.72534C220.409 8.82679 220.38 8.94274 220.337 9.0442L220.105 9.62396C219.989 9.95732 219.8 10.1312 219.568 10.1457H216.887V18.0159C216.843 18.5232 216.945 19.016 217.191 19.4653C217.539 19.7697 218.003 19.9291 218.467 19.9001C218.815 19.9001 218.989 20.0451 218.989 20.219C218.989 20.3929 218.858 20.4799 218.583 20.4799C218.307 20.4799 218.017 20.4509 217.742 20.4074H214.003C213.756 20.4074 213.626 20.306 213.626 20.1175C213.626 19.9726 213.742 19.8567 213.872 19.8277L214.148 19.7407C214.423 19.6682 214.669 19.4798 214.785 19.2189C214.916 18.8131 214.988 18.3928 214.959 17.9725V10.1457H213.307C213.003 10.1457 212.858 10.1457 212.858 9.95732C212.858 9.68193 212.93 9.40655 213.061 9.17465C213.206 9.01521 213.408 8.92825 213.611 8.94274H214.959C215.003 7.04404 215.496 5.17433 216.409 3.50753C216.974 2.50745 217.728 1.63781 218.626 0.942104C219.38 0.362348 220.293 0.0289878 221.235 0C222.061 0 222.467 0.173927 222.467 0.536275C222.467 0.652226 222.467 0.753684 222.467 0.869635L222.293 1.40591C222.119 2.04364 221.931 2.34801 221.742 2.34801C221.554 2.34801 221.583 2.27554 221.525 2.13061C221.322 1.65231 220.829 1.40591 220.076 1.40591C217.989 1.40591 216.945 3.42056 216.945 7.44987L216.887 8.94274Z" fill="#8B8B8B"/>
<path d="M223.887 10.0588C224.351 9.46451 225.076 9.11666 225.829 9.13115C226.627 9.16014 227.366 9.4935 227.917 10.0733C228.496 10.595 228.844 11.3342 228.873 12.1169C228.873 12.4213 228.496 12.5662 227.743 12.5662H222.931C222.989 11.6531 223.322 10.7835 223.887 10.0588ZM228.235 13.3634H230.25C230.859 13.3634 231.178 13.2184 231.178 12.8996C231.12 12.5082 230.989 12.1169 230.815 11.7545C230.627 11.2907 230.395 10.8559 230.12 10.4501C229.293 9.17463 227.873 8.42095 226.351 8.46443C224.873 8.47892 223.481 9.16014 222.568 10.3197C221.51 11.5226 220.93 13.0735 220.959 14.6678C220.916 16.2622 221.467 17.813 222.525 19.016C223.481 20.1465 224.902 20.7988 226.38 20.7843C227.801 20.7698 229.177 20.248 230.279 19.3349C230.946 18.8131 231.279 18.4073 231.279 18.1319C231.279 17.8565 231.207 17.9 231.076 17.9C231.004 17.9145 230.931 17.9579 230.873 18.0014C229.946 18.8421 228.757 19.3494 227.511 19.4508C226.206 19.4508 224.989 18.8421 224.206 17.7985C223.293 16.639 222.829 15.1896 222.873 13.7112V13.3634H228.235Z" fill="#8B8B8B"/>
<path d="M43.4816 31.6983C43.3802 31.6114 43.3367 31.3795 43.3367 31.0316V26.0892C43.3077 25.7993 43.3946 25.5094 43.5976 25.292C43.8585 25.1036 44.1918 25.0311 44.5107 25.0601C45.5687 25.0311 46.6123 25.408 47.4095 26.1182C48.1776 26.8139 48.598 27.7995 48.569 28.8285C48.6414 29.6402 48.3661 30.4374 47.8298 31.0316C47.1921 31.5969 46.3659 31.8868 45.5108 31.8433H44.2208C43.815 31.8868 43.5831 31.7998 43.4816 31.6983ZM50.2213 28.1618C50.2938 27.0313 49.801 25.9443 48.9023 25.263C47.7283 24.5383 46.3659 24.1905 44.989 24.2919H41.6409C41.3075 24.3064 40.9597 24.3064 40.6263 24.2919H39.8436C39.5827 24.2919 39.4668 24.3644 39.4668 24.5094C39.4668 24.6543 39.5827 24.7123 39.8147 24.7558L40.3509 24.8427C41.1626 24.9732 41.5829 25.6399 41.5829 26.8139V36.148C41.6409 37.0176 41.5394 37.8872 41.3075 38.7134C41.0901 39.1772 40.6408 39.4961 40.119 39.5395C39.9451 39.5395 39.8436 39.641 39.8436 39.757C39.8436 39.8729 39.9451 39.9744 40.1335 39.9744H45.4238C45.6992 39.9744 45.8151 39.9019 45.8006 39.757C45.7861 39.612 45.6557 39.5395 45.3803 39.5106C44.8585 39.4816 44.3657 39.3076 43.9309 39.0178C43.7135 38.8583 43.5541 38.6409 43.4671 38.38C43.3946 37.9452 43.3657 37.4959 43.3802 37.0466V33.0463C43.3802 32.8578 43.3802 32.7419 43.5106 32.6839H45.2064C45.5542 32.6549 45.9021 32.8434 46.076 33.1477L46.2355 33.3941L49.0763 37.6843C49.5111 38.3655 50.0763 38.9598 50.7286 39.4381C51.2648 39.8149 51.9026 40.0178 52.5548 40.0033C52.9316 40.0033 53.294 39.9599 53.6563 39.8584C53.9897 39.757 54.1491 39.6555 54.1636 39.5395C54.1781 39.4236 54.1636 39.3801 53.9752 39.3656H53.6273C52.8157 39.3656 51.9316 38.5829 50.9605 37.177L50.5981 36.6553L47.4819 32.1042C49.1052 31.4664 50.1923 29.9156 50.2358 28.1618H50.2213Z" fill="#8B8B8B"/>
<path d="M56.99 31.5243C57.3669 31.0605 57.9321 30.7852 58.5409 30.7997C59.1786 30.7997 59.7729 31.075 60.2077 31.5388C60.6715 31.9447 60.9469 32.5389 60.9758 33.1622C60.9758 33.3941 60.6715 33.51 60.0772 33.51H56.2218C56.2798 32.7853 56.5407 32.1041 56.99 31.5243ZM60.4396 34.1622H62.0484C62.5412 34.1622 62.7876 34.0318 62.7876 33.7854C62.7441 33.4665 62.6426 33.1622 62.4977 32.8723C62.3528 32.5099 62.1643 32.1621 61.9469 31.8432C61.2802 30.8431 60.1352 30.2489 58.9322 30.2779C57.7582 30.2779 56.6567 30.8141 55.9175 31.7273C54.2217 33.7129 54.2217 36.6117 55.9175 38.5974C56.6712 39.525 57.8162 40.0468 59.0047 40.0468C60.1352 40.0323 61.2367 39.6119 62.1064 38.8873C62.6426 38.4814 62.9035 38.1626 62.9035 37.9451C62.9035 37.7277 62.9035 37.7567 62.7441 37.7567C62.6861 37.7712 62.6281 37.8002 62.5702 37.8437C61.8165 38.4959 60.8744 38.8873 59.8888 38.9597C58.8452 38.9742 57.8597 38.5104 57.2219 37.6843C56.4972 36.7566 56.1204 35.5971 56.1494 34.4231V34.1767H60.4396V34.1622Z" fill="#8B8B8B"/>
<path d="M67.7157 30.3216C68.2375 30.3216 68.7593 30.3795 69.2521 30.5535L69.7449 30.7129C69.9478 30.7129 70.0493 30.9013 70.0493 31.0463V31.2347C70.0493 31.3361 70.0493 31.4376 70.0493 31.5391V31.9884C70.0493 32.1333 70.0493 32.2637 70.0493 32.4087C70.0493 32.6986 69.9623 32.858 69.7884 32.858C69.6144 32.858 69.6144 32.771 69.542 32.5681C69.2521 31.5246 68.281 30.8288 67.194 30.8723C66.7881 30.8578 66.3823 30.9883 66.0634 31.2492C65.7736 31.4956 65.6141 31.8579 65.6286 32.2348C65.6286 32.6261 65.8025 33.0029 66.1069 33.2493C66.7012 33.6407 67.3389 33.9595 68.0056 34.1914C68.7303 34.4233 69.4115 34.8292 69.9623 35.3509C70.3536 35.8003 70.542 36.3945 70.5131 36.9888C70.5131 37.8149 70.1797 38.6121 69.571 39.1628C68.9767 39.7571 68.1506 40.0905 67.3099 40.076C66.5997 40.047 65.904 39.8731 65.2663 39.5397C65.1648 39.4817 65.0489 39.4382 64.9329 39.4092H64.643C64.4981 39.4092 64.3676 39.3078 64.3531 39.1484V36.8728C64.3531 36.6699 64.4836 36.5684 64.6285 36.5539C64.7735 36.5395 64.8604 36.6554 64.9184 36.8873C65.0199 37.612 65.3387 38.2787 65.8315 38.8295C66.2663 39.2788 66.8606 39.5252 67.4838 39.5252C67.9911 39.5397 68.4694 39.3658 68.8463 39.0324C69.1941 38.7135 69.3825 38.2642 69.368 37.7859C69.3535 36.9888 68.8318 36.2931 68.0636 36.0612L67.078 35.6118C66.3823 35.3365 65.7591 34.9306 65.2228 34.4088C64.8604 34.0175 64.6575 33.4957 64.6575 32.9595C64.6575 32.2493 64.9764 31.5825 65.5272 31.1332C66.1359 30.5969 66.9041 30.3071 67.7157 30.3216Z" fill="#8B8B8B"/>
<path d="M75.0783 31.6983V37.3655C75.0059 37.8728 75.1218 38.38 75.3827 38.8149C75.7306 39.1482 76.2089 39.3366 76.6872 39.3077C77.093 39.3077 77.4843 39.2352 77.8467 39.0613L78.4264 38.7859C78.5279 38.7859 78.5714 38.7859 78.5714 38.9163C78.5714 39.0468 78.267 39.4236 77.6728 39.699C77.1655 39.9744 76.6002 40.1193 76.0205 40.1338C74.2812 40.1338 73.426 39.2352 73.426 37.4379V31.6983H72.4694C72.281 31.6983 72.1796 31.6983 72.1796 31.5244C72.1796 31.3505 72.281 31.2925 72.4694 31.1186C73.2666 30.4809 73.9623 29.7272 74.5131 28.872C74.716 28.5387 74.8609 28.3647 74.9479 28.3647C75.0349 28.3647 75.1218 28.4662 75.1218 28.6546V30.6113H77.4843C77.7597 30.6258 78.0206 30.5678 78.267 30.4374C78.3395 30.3794 78.4264 30.3359 78.5134 30.3069C78.6004 30.3069 78.6294 30.3069 78.6294 30.4374C78.6004 30.5388 78.5714 30.6403 78.5279 30.7273L78.267 31.365C78.1945 31.5824 77.9916 31.7128 77.7742 31.6983H75.0783Z" fill="#8B8B8B"/>
<path d="M85.2531 37.4957C85.2966 37.945 85.1517 38.3798 84.8618 38.7277C84.4415 39.148 83.8762 39.3654 83.282 39.3509C82.3978 39.4089 81.6442 38.7422 81.5862 37.858C81.5862 37.8001 81.5862 37.7421 81.5862 37.6841C81.5862 36.9884 81.992 36.3652 82.6152 36.0463C83.4414 35.568 84.369 35.2926 85.3256 35.2491L85.2531 37.4957ZM81.2528 35.9593C80.5136 36.3507 80.0498 37.1333 80.0643 37.974C80.0353 38.5538 80.2672 39.1045 80.6876 39.4959C81.1514 39.9017 81.7601 40.1046 82.3833 40.0756C83.4994 40.0031 84.5574 39.5683 85.4126 38.8436C85.7314 39.4959 86.3547 39.9307 87.0794 40.0031C87.4272 40.0031 87.7751 39.9307 88.0939 39.7857C88.4418 39.6553 88.6157 39.5103 88.6157 39.3799C88.6157 39.2495 88.6157 39.235 88.4418 39.235H87.9055C87.5577 39.264 87.2388 39.09 87.0649 38.7857C86.862 38.3363 86.775 37.8291 86.804 37.3363V32.9881C86.8475 32.2489 86.5286 31.5387 85.9633 31.0604C85.2676 30.5676 84.427 30.3212 83.5863 30.3792C82.5718 30.3357 81.5862 30.727 80.8905 31.4662C80.4701 31.8431 80.2093 32.3504 80.1368 32.9156C80.1368 33.0895 80.2817 33.2635 80.5716 33.4084C80.8615 33.5678 81.1803 33.6403 81.5137 33.6403C81.6731 33.6403 81.7456 33.5678 81.7311 33.4374C81.7456 33.3214 81.7456 33.191 81.7311 33.0751C81.6442 32.7997 81.5862 32.5243 81.5862 32.2344C81.5862 31.4083 82.079 30.9879 83.0356 30.9879C83.6878 30.9589 84.3255 31.2053 84.7893 31.6691C85.1807 32.1764 85.3546 32.7997 85.2821 33.4374V34.8868C83.8907 35.0027 82.5138 35.3651 81.2528 35.9593Z" fill="#8B8B8B"/>
<path d="M97.5874 38.3799C96.8772 39.438 95.6887 40.0612 94.4132 40.0757C93.4856 40.1337 92.587 39.7714 91.9492 39.1046C91.3115 38.3365 91.0071 37.3509 91.0651 36.3653V31.8867C91.0941 31.5968 91.0071 31.3069 90.8332 31.075C90.5723 30.9011 90.268 30.7996 89.9491 30.8141C89.7607 30.8141 89.6737 30.7416 89.6882 30.5967C89.7027 30.4518 89.9346 30.3793 90.3839 30.3793H91.2535C91.5434 30.3503 91.8188 30.2923 92.0942 30.2054H92.3551C92.558 30.2054 92.6594 30.3793 92.6594 30.7416V36.2348L92.7609 37.6842C92.9203 38.1625 93.2247 38.5829 93.6305 38.8872C94.0509 39.1916 94.5581 39.3655 95.0799 39.351C95.7177 39.351 96.3264 39.1626 96.8337 38.7713C97.2975 38.4814 97.5874 37.9886 97.6019 37.4378V31.9881C97.6309 31.6837 97.5584 31.3794 97.3845 31.1185C97.1526 30.9301 96.8627 30.8431 96.5583 30.8721C96.3119 30.8721 96.196 30.8721 96.196 30.6692C96.196 30.4663 96.3264 30.4083 96.6018 30.4083H97.7903C98.0947 30.3793 98.399 30.3068 98.6889 30.1909C98.7759 30.1619 98.8628 30.1329 98.9643 30.1184C99.1237 30.1184 99.1962 30.2489 99.1962 30.5242V37.8292C99.1527 38.2205 99.2252 38.6118 99.3846 38.9742C99.573 39.1916 99.8629 39.3075 100.153 39.2641H100.501C100.66 39.2641 100.747 39.2641 100.762 39.4235C100.776 39.5829 100.544 39.6699 100.095 39.6989H99.3846C99.0658 39.6989 98.7469 39.7424 98.428 39.8003C98.2976 39.8438 98.1526 39.8583 98.0077 39.8728C97.7758 39.8728 97.6454 39.5105 97.6454 38.7858L97.5874 38.3799Z" fill="#8B8B8B"/>
<path d="M105.429 32.394C106.298 31.0316 107.095 30.3359 107.835 30.3359C108.168 30.3794 108.487 30.5243 108.748 30.7562C109.125 31.0316 109.313 31.249 109.342 31.4229C109.27 31.6548 109.154 31.8577 108.98 32.0172C108.733 32.3215 108.545 32.4665 108.443 32.4665C108.269 32.4085 108.096 32.336 107.951 32.2201C107.69 32.0172 107.356 31.9012 107.023 31.8867C106.588 31.8867 106.168 32.0752 105.878 32.394C105.574 32.7419 105.414 33.2057 105.429 33.6695V37.6843C105.385 38.1481 105.472 38.6119 105.675 39.0322C105.878 39.3221 106.211 39.496 106.574 39.496H107.153C107.4 39.496 107.53 39.583 107.53 39.7134C107.53 39.8439 107.414 39.9309 107.211 39.9309H104.718C104.298 39.9019 103.878 39.9019 103.458 39.9309H103.052C102.849 39.9309 102.747 39.8584 102.747 39.7134C102.747 39.5685 102.863 39.4815 103.095 39.4526C103.356 39.4236 103.588 39.2786 103.718 39.0467C103.849 38.6264 103.892 38.1771 103.863 37.7423V32.9593C103.863 32.1041 103.458 31.6693 102.617 31.6693H102.24C102.066 31.6693 101.979 31.5969 101.979 31.4519C101.979 31.3505 101.979 31.2925 102.153 31.2345H102.399C103.298 31.0896 104.153 30.7562 104.907 30.2344L105.168 30.1475C105.342 30.1475 105.429 30.2779 105.429 30.5388V32.394Z" fill="#8B8B8B"/>
<path d="M115.951 37.4957C115.995 37.945 115.85 38.3798 115.56 38.7277C115.14 39.148 114.574 39.3654 113.98 39.3509C113.111 39.4379 112.342 38.8001 112.255 37.9305C112.255 37.8435 112.255 37.7711 112.255 37.6841C112.255 37.0174 112.618 36.4087 113.198 36.0753C114.038 35.5825 114.98 35.2926 115.951 35.2491V37.4957ZM111.951 35.9593C111.212 36.3507 110.763 37.1333 110.777 37.974C110.748 38.5538 110.98 39.1045 111.4 39.4959C111.864 39.9017 112.473 40.1046 113.082 40.0756C114.198 40.0031 115.256 39.5683 116.111 38.8436C116.43 39.4959 117.053 39.9307 117.778 40.0031C118.126 40.0031 118.473 39.9307 118.792 39.7857C119.14 39.6553 119.314 39.5103 119.328 39.3799C119.343 39.2495 119.328 39.235 119.14 39.235H118.56C118.212 39.264 117.894 39.09 117.72 38.7857C117.531 38.3218 117.444 37.8291 117.473 37.3363V32.9881C117.502 32.2489 117.183 31.5387 116.618 31.0604C115.922 30.5676 115.082 30.3212 114.241 30.3792C113.227 30.3357 112.255 30.727 111.56 31.4662C111.139 31.8431 110.864 32.3504 110.806 32.9156C110.806 33.0895 110.937 33.2635 111.226 33.4084C111.516 33.5533 111.835 33.6403 112.169 33.6403C112.328 33.6403 112.4 33.5678 112.4 33.4374C112.386 33.3214 112.357 33.191 112.313 33.0751C112.226 32.7997 112.169 32.5243 112.169 32.2344C112.169 31.4083 112.661 30.9879 113.618 30.9879C114.27 30.9589 114.922 31.2053 115.386 31.6691C115.792 32.1619 115.995 32.7852 115.951 33.4229V34.8723C114.546 34.9882 113.183 35.3651 111.908 35.9593H111.951Z" fill="#8B8B8B"/>
<path d="M123.706 32.1042C124.416 31.0751 125.561 30.4229 126.822 30.3214C127.981 30.2634 129.083 30.8142 129.721 31.7708C130.271 32.7129 130.518 33.8144 130.445 34.9015V38.496C130.518 38.9743 130.909 39.3366 131.402 39.3656L131.866 39.4381C132.069 39.4381 132.185 39.5395 132.185 39.6555C132.185 39.7714 132.069 39.8874 131.822 39.8874H131.373C130.924 39.8584 130.46 39.8584 130.01 39.8874H127.996C127.996 39.8874 127.894 39.7714 127.909 39.699C127.909 39.583 127.909 39.5106 128.112 39.4816L128.445 39.3946C128.735 39.3221 128.894 39.0467 128.894 38.5684V34.6551C128.952 33.7855 128.691 32.9158 128.17 32.2201C127.662 31.6404 126.909 31.3215 126.141 31.365C125.546 31.365 124.967 31.5534 124.488 31.9157C124.053 32.1911 123.793 32.6694 123.764 33.1767V38.409C123.764 39.0467 124.285 39.3946 125.329 39.4526C125.59 39.4526 125.706 39.554 125.706 39.6845C125.706 39.8149 125.619 39.8874 125.445 39.8874C125.256 39.8874 125.054 39.8584 124.865 39.8149C124.503 39.7859 124.155 39.7859 123.793 39.8149C123.068 39.7714 122.343 39.7714 121.618 39.8149H121.169C121.024 39.8149 120.952 39.8149 120.966 39.612C120.981 39.4091 120.966 39.4381 121.184 39.3801C121.488 39.2931 121.749 39.1192 121.952 38.8873C122.111 38.5974 122.184 38.2786 122.155 37.9452V32.9158C122.184 32.539 122.126 32.1621 121.966 31.8288C121.792 31.6114 121.531 31.5099 121.256 31.5389H120.778C120.778 31.5389 120.647 31.5534 120.589 31.5389C120.531 31.5099 120.488 31.4519 120.488 31.3795C120.488 31.2635 120.589 31.191 120.778 31.1476C121.271 31.0606 121.763 30.9012 122.227 30.6983L122.821 30.3939L123.256 30.191C123.343 30.1475 123.43 30.1185 123.532 30.104C123.662 30.104 123.735 30.2055 123.72 30.4229C123.72 30.5678 123.72 30.7127 123.72 30.8577V32.1042H123.706Z" fill="#8B8B8B"/>
<path d="M136.243 31.6983V37.3655C136.185 37.8728 136.286 38.38 136.562 38.8149C136.91 39.1482 137.388 39.3366 137.866 39.3077C138.272 39.3077 138.663 39.2352 139.026 39.0613L139.605 38.7859C139.605 38.7859 139.721 38.8149 139.736 38.8873C139.736 38.8873 139.736 38.9018 139.736 38.9163C139.736 39.1482 139.446 39.4236 138.852 39.699C138.344 39.9744 137.779 40.1193 137.199 40.1338C135.46 40.1338 134.605 39.2352 134.605 37.4379V31.6983H133.59C133.387 31.6983 133.301 31.6983 133.301 31.5244C133.301 31.3505 133.387 31.2925 133.59 31.1186C134.373 30.4809 135.069 29.7127 135.634 28.872C135.837 28.5387 135.982 28.3647 136.069 28.3647C136.156 28.3647 136.243 28.4662 136.243 28.6546V30.6113H138.605C138.866 30.6258 139.127 30.5678 139.359 30.4374C139.446 30.3794 139.533 30.3359 139.62 30.3069C139.692 30.3069 139.736 30.3069 139.721 30.4374C139.707 30.5388 139.663 30.6403 139.62 30.7273L139.359 31.365C139.301 31.5824 139.098 31.7128 138.881 31.6983H136.243Z" fill="#8B8B8B"/>
<path d="M155.433 35.9592V33.4228C155.476 33.075 155.36 32.7416 155.128 32.4807C154.766 32.2778 154.346 32.1618 153.925 32.1763C153.636 32.1763 153.476 32.0604 153.476 31.9009C153.476 31.7415 153.592 31.698 153.853 31.698H157.201L158.1 31.6256C158.274 31.6256 158.361 31.698 158.361 31.8285C158.361 31.9589 158.245 32.0459 158.027 32.1039C157.447 32.2343 157.172 32.6546 157.172 33.3503V37.8724C157.071 37.9304 156.969 37.9594 156.853 37.9594C156.52 38.0464 156.201 38.1913 155.911 38.3652L155.172 38.8001C153.752 39.6407 152.114 40.09 150.461 40.0755C146.36 40.2349 142.91 37.0318 142.751 32.93C142.751 32.7416 142.751 32.5532 142.751 32.3648C142.693 30.1617 143.519 28.0311 145.055 26.4512C146.563 24.8714 148.679 24.0163 150.853 24.0887C151.809 24.0887 152.751 24.2337 153.665 24.4801C154.505 24.6685 155.317 25.0018 156.056 25.4512C156.114 25.4946 156.172 25.5236 156.245 25.5381C156.317 25.5381 156.404 25.4946 156.462 25.4512L156.723 25.2482C156.723 25.2482 156.824 25.1903 156.882 25.1758C157.027 25.1758 157.085 25.3497 157.085 25.712C157.085 25.9584 157.085 26.2193 157.085 26.4657L157.201 27.5238C157.23 27.8137 157.288 28.1035 157.361 28.3789C157.361 28.4804 157.361 28.5963 157.361 28.6978C157.361 28.8862 157.361 28.9732 157.129 28.9877C156.897 29.0022 156.955 28.9877 156.882 28.7848C156.273 27.5818 155.331 26.5672 154.172 25.886C153.012 25.1468 151.679 24.7554 150.302 24.7554C148.693 24.7265 147.157 25.4367 146.142 26.6831C145.026 28.1035 144.461 29.8718 144.533 31.669C144.475 33.6547 145.128 35.5969 146.389 37.1333C147.49 38.5392 149.186 39.3508 150.969 39.3508C152.563 39.4233 154.085 38.7421 155.085 37.4956C155.36 37.0318 155.476 36.4955 155.433 35.9592Z" fill="#8B8B8B"/>
<path d="M163.317 32.394C164.187 31.0316 164.984 30.3359 165.723 30.3359C166.057 30.3794 166.376 30.5243 166.637 30.7562C167.013 31.0316 167.216 31.249 167.231 31.4229C167.158 31.6548 167.042 31.8577 166.868 32.0172C166.622 32.3215 166.448 32.4665 166.347 32.4665C166.158 32.4085 165.999 32.336 165.839 32.2201C165.579 32.0172 165.26 31.9012 164.926 31.8867C164.491 31.8867 164.071 32.0607 163.781 32.394C163.462 32.7419 163.303 33.2057 163.317 33.6695V37.6843C163.288 38.1481 163.375 38.6119 163.564 39.0322C163.767 39.3221 164.1 39.496 164.462 39.496H165.057C165.303 39.496 165.419 39.583 165.419 39.7134C165.419 39.8439 165.303 39.9309 165.1 39.9309H162.607C162.187 39.9019 161.767 39.9019 161.346 39.9309H160.94C160.738 39.9309 160.636 39.8584 160.636 39.7134C160.636 39.5685 160.752 39.4815 160.984 39.4526C161.245 39.4236 161.491 39.2786 161.622 39.0467C161.738 38.6264 161.781 38.1771 161.752 37.7423V32.9593C161.752 32.1041 161.346 31.6693 160.52 31.6693H160.129C159.955 31.6693 159.868 31.5969 159.868 31.4519C159.868 31.3505 159.868 31.2925 160.042 31.2345H160.288C161.187 31.0896 162.056 30.7417 162.81 30.2344C162.897 30.1909 162.984 30.162 163.071 30.1475C163.245 30.1475 163.332 30.2779 163.332 30.5388V32.394H163.317Z" fill="#8B8B8B"/>
<path d="M175.492 32.162C176.217 33.2346 176.565 34.4955 176.507 35.7855C176.565 36.7711 176.29 37.7567 175.71 38.5683C175.173 39.2495 174.347 39.6264 173.492 39.5974C172.405 39.5974 171.405 39.0466 170.811 38.148C170.072 37.0899 169.695 35.829 169.738 34.539C169.695 33.5534 169.999 32.5823 170.593 31.7997C171.144 31.1184 171.985 30.7271 172.869 30.7561C173.927 30.7561 174.913 31.2779 175.492 32.162ZM169.579 31.7562C167.666 33.6694 167.622 36.7566 169.492 38.7132C170.434 39.6264 171.709 40.1192 173.014 40.0757C174.376 40.1047 175.681 39.5829 176.637 38.6263C177.594 37.7132 178.116 36.4232 178.087 35.1043C178.087 33.8143 177.579 32.5823 176.637 31.6982C174.681 29.7995 171.55 29.7995 169.593 31.6982V31.7562H169.579Z" fill="#8B8B8B"/>
<path d="M187.638 38.3799C186.914 39.438 185.725 40.0612 184.45 40.0757C183.537 40.1337 182.638 39.7714 182 39.1046C181.362 38.3365 181.058 37.3509 181.116 36.3653V31.8867C181.145 31.5968 181.058 31.3069 180.884 31.075C180.623 30.9011 180.319 30.7996 180 30.8141C179.812 30.8141 179.725 30.7416 179.739 30.5967C179.754 30.4518 179.985 30.3793 180.435 30.3793H181.304C181.594 30.3503 181.87 30.2923 182.145 30.2054H182.406C182.609 30.2054 182.71 30.3793 182.71 30.7416V36.2348L182.884 37.6118C183.044 38.0901 183.348 38.5104 183.754 38.8148C184.174 39.1191 184.682 39.2931 185.203 39.2786C185.841 39.2786 186.45 39.0901 186.957 38.6988C187.406 38.4089 187.696 37.9016 187.725 37.3654V31.9881C187.754 31.6837 187.682 31.3794 187.508 31.1185C187.276 30.9301 186.986 30.8431 186.682 30.8721C186.435 30.8721 186.319 30.8721 186.319 30.6692C186.319 30.4663 186.45 30.4083 186.725 30.4083H187.914C188.218 30.3793 188.522 30.3068 188.798 30.1909L189.088 30.1184C189.247 30.1184 189.32 30.2489 189.32 30.5242V37.8292C189.276 38.2205 189.349 38.6118 189.508 38.9742C189.696 39.1916 189.986 39.3075 190.276 39.2641H190.624C190.783 39.2641 190.87 39.2641 190.885 39.4235C190.899 39.5829 190.668 39.6699 190.218 39.6989H189.508C189.189 39.6989 188.87 39.7424 188.551 39.8003C188.421 39.8438 188.276 39.8583 188.131 39.8728C187.899 39.8728 187.769 39.5105 187.769 38.7858L187.638 38.3799Z" fill="#8B8B8B"/>
<path d="M196.03 31.8865C196.537 31.5242 197.161 31.3213 197.784 31.3358C198.769 31.3358 199.697 31.7851 200.277 32.5823C200.943 33.5244 201.277 34.6549 201.233 35.8144C201.291 36.771 201.001 37.6986 200.407 38.4523C199.842 39.1045 199.016 39.4669 198.161 39.4234C197.407 39.4669 196.668 39.235 196.074 38.7712C195.552 38.3508 195.262 37.6986 195.291 37.0319V33.191C195.291 32.6547 195.581 32.1764 196.03 31.8865ZM195.334 30.4372V30.2197C195.334 30.0023 195.334 29.9009 195.146 29.9009C195.073 29.9154 195.001 29.9444 194.943 30.0023C194.16 30.5386 193.276 30.9155 192.334 31.0894C192.146 31.0894 192.059 31.2198 192.059 31.3503C192.03 31.3938 192.03 31.4662 192.059 31.5097H192.407C192.74 31.4807 193.059 31.5677 193.334 31.7561C193.537 32.0025 193.624 32.3359 193.595 32.6547V42.0323C193.624 42.4526 193.552 42.8874 193.392 43.2788C193.247 43.5397 192.986 43.7136 192.682 43.7571C192.479 43.7571 192.392 43.873 192.392 43.989C192.392 44.0614 192.421 44.1339 192.494 44.1774H197.117C197.335 44.1774 197.436 44.1774 197.436 43.989C197.436 43.8005 197.32 43.7426 197.088 43.7426C196.566 43.815 196.045 43.6701 195.639 43.3367C195.349 42.8294 195.233 42.2642 195.291 41.6844V39.4234C196.088 39.8147 196.972 40.0321 197.856 40.0756C199.132 40.0756 200.349 39.5103 201.161 38.5103C202.103 37.4957 202.625 36.1623 202.61 34.7708C202.639 33.6113 202.233 32.4663 201.465 31.5967C200.77 30.7705 199.741 30.3067 198.653 30.3212C197.378 30.4082 196.189 31.0169 195.349 31.988V30.4372H195.334Z" fill="#8B8B8B"/>
<path d="M22.625 1.27539L25.147 26.8137C24.8426 31.7706 23.1613 36.5391 20.2915 40.5829L20.0741 56.0914H34.1187V1.27539H22.625Z" fill="black"/>
<path d="M34.1332 1.13037H22.5381L25.0746 26.8281C24.7557 31.7415 23.0889 36.4665 20.2626 40.4813L20.0452 56.1783H34.3796V1.13037H34.1332Z" fill="#8B8B8B"/>
<path d="M16.9726 24.857C17.8712 24.7265 18.4945 23.8859 18.364 22.9873C18.364 22.9583 18.364 22.9293 18.3495 22.8858L18.1611 1.27539H15.2623L15.6247 22.9003C15.4363 23.7699 15.987 24.6396 16.8567 24.8425C16.9001 24.8425 16.9291 24.857 16.9726 24.857Z" fill="black"/>
<path d="M18.1609 1.13037H15.0592L15.4216 22.8712C15.3346 23.3785 15.4505 23.9003 15.7259 24.3206C16.0158 24.712 16.4651 24.9584 16.9579 25.0018C17.4362 24.9439 17.8565 24.6975 18.1464 24.3206C18.4218 23.8858 18.5377 23.3785 18.4508 22.8712L18.3058 1.27531V1.13037H18.1609Z" fill="#8B8B8B"/>
<path d="M23.1903 23.1902C23.1903 22.1031 22.0018 8.37741 21.7409 1.27539H19.2625L20.364 23.1902C20.5669 25.6831 23.1033 25.2048 23.1903 23.1902Z" fill="black"/>
<path d="M21.7407 1.13037H19.1028L20.2913 23.1901C20.4072 24.6395 21.1899 25.0453 21.8276 25.0163C22.7263 24.8859 23.364 24.0742 23.277 23.1756C23.277 22.7988 23.1321 20.8856 22.9292 18.2477C22.5668 13.3198 22.0016 5.88437 21.8421 1.26082V1.13037H21.7407Z" fill="#8B8B8B"/>
<path d="M13.5663 23.1902L14.1171 1.27539H11.5951C11.5951 7.07296 11.4357 21.6973 11.3053 23.2916C11.1168 25.2773 13.3924 25.7266 13.5663 23.1902Z" fill="black"/>
<path d="M14.1169 1.13037H11.4355V1.27531C11.4355 7.36275 11.2761 21.7117 11.1457 23.2771C11.0587 23.8858 11.2906 24.5091 11.7689 24.9004C12.0878 25.1178 12.4791 25.1468 12.827 24.9874C13.4067 24.6105 13.7401 23.9583 13.7111 23.2626L14.2619 1.13037H14.1169Z" fill="#8B8B8B"/>
<path d="M13.8561 40.5829C13.8561 40.5829 8.4644 33.5098 8.82675 26.8861L10.4936 1.27539H0.144897V56.0769H14.2765L13.8561 40.5829Z" fill="black"/>
<path d="M14.0011 40.5828C14.0011 40.5828 8.65287 33.4808 9.00072 26.9875L10.653 1.13037H0V56.2072H14.4939L14.0011 40.5828Z" fill="black"/>
<path d="M22.625 1.2754V1.11597H21.7409V1.2754C21.9873 8.37742 23.1903 22.1032 23.1903 23.1902C23.1903 25.2048 20.6393 25.6831 20.4364 23.1902L19.2624 1.2754V1.13046H18.1754V1.2754L18.3638 22.8858C18.5522 23.7844 17.9725 24.6541 17.0883 24.8425C17.0593 24.8425 17.0304 24.8425 16.9869 24.857C16.0883 24.7845 15.436 24.0019 15.5085 23.1032C15.5085 23.0308 15.523 22.9728 15.5375 22.9003L15.2041 1.2754V1.13046H14.1171V1.2754L13.5663 23.1902C13.3924 25.6687 11.1168 25.2193 11.2908 23.1902C11.4212 21.7408 11.5951 7.08746 11.5951 1.2754V1.13046H10.5081V1.2754L8.8268 26.9151C8.46446 33.5388 13.8562 40.5829 13.8562 40.5829L14.262 56.2218H20.0596L20.2915 40.5829C23.1613 36.5391 24.8281 31.7706 25.1325 26.8282L22.625 1.2754Z" fill="white"/>
<path d="M45.163 54.381C45.163 54.5839 45.1919 54.8013 45.2644 54.9898C45.3224 55.1202 45.4238 55.2506 45.5398 55.3376C45.6702 55.4101 45.8152 55.4681 45.9601 55.497C46.134 55.5115 46.2935 55.5115 46.4674 55.497H46.8298V56.1783H41.8728V55.497H42.2352C42.4091 55.5115 42.5685 55.5115 42.7425 55.497C42.8874 55.4681 43.0323 55.4246 43.1628 55.3521C43.2932 55.2941 43.4092 55.1927 43.4817 55.0767C43.5541 54.9028 43.5976 54.6999 43.5831 54.5115V45.5977H42.0323C41.8294 45.5977 41.6264 45.6267 41.438 45.6992C41.2931 45.7716 41.1481 45.8586 41.0467 45.989C40.9452 46.105 40.8728 46.2499 40.8293 46.4094C40.7713 46.5688 40.7423 46.7427 40.7278 46.9166L40.6409 47.5979H39.8147L39.8872 44.8005H48.8734L48.9604 47.5979H48.1197L48.0327 46.9166C48.0183 46.7427 47.9748 46.5688 47.9313 46.4094C47.8878 46.2499 47.8008 46.1195 47.6994 45.989C47.5979 45.8586 47.453 45.7716 47.3081 45.6992C47.1196 45.6267 46.9167 45.5977 46.7138 45.5977H45.163V54.381Z" fill="black"/>
<path d="M53.8449 55.5262V56.2074H49.4967V55.5262H49.6127C49.7866 55.5407 49.946 55.5407 50.1199 55.5262C50.2649 55.4972 50.4098 55.4392 50.5403 55.3667C50.6562 55.2798 50.7577 55.1493 50.8156 55.0189C50.9026 54.8305 50.9316 54.613 50.9316 54.4101V45.8587C50.9316 45.6703 50.9026 45.4674 50.8156 45.2935C50.7577 45.163 50.6562 45.0471 50.5403 44.9601C50.4098 44.8876 50.2649 44.8297 50.1199 44.8152C49.946 44.8007 49.7866 44.8007 49.6127 44.8152H49.4967V44.1484H52.3955V49.0039C52.8013 48.0908 53.7434 47.511 54.7435 47.5545C55.1493 47.5545 55.5552 47.6125 55.9465 47.7429C56.2943 47.8444 56.5987 48.0473 56.8306 48.3082C57.0915 48.5836 57.2799 48.9169 57.3814 49.2793C57.5263 49.7431 57.5843 50.2359 57.5698 50.7287V54.4971C57.5698 54.7 57.5988 54.9029 57.6568 55.1058C57.7147 55.2363 57.8017 55.3522 57.9177 55.4537C58.0336 55.5262 58.1641 55.5841 58.309 55.6131C58.4684 55.6276 58.6424 55.6276 58.8018 55.6131V56.2943H56.1784V50.7287C56.1784 50.4098 56.1494 50.1054 56.0769 49.8011C56.019 49.5547 55.932 49.3228 55.7871 49.1198C55.6421 48.9314 55.4537 48.7865 55.2363 48.6995C54.9754 48.5981 54.7 48.5401 54.4246 48.5546C54.1203 48.5546 53.8304 48.6126 53.555 48.743C53.3086 48.859 53.1057 49.0474 52.9607 49.2648C52.7868 49.5112 52.6709 49.7866 52.5984 50.0764C52.5259 50.4243 52.4824 50.7722 52.4824 51.1345V54.5116C52.4824 54.7 52.5114 54.9029 52.5984 55.0768C52.6564 55.2073 52.7433 55.3232 52.8738 55.3957C53.0042 55.4682 53.1492 55.5117 53.2941 55.5407C53.468 55.5551 53.6275 55.5551 53.8014 55.5407H53.8449V55.5262Z" fill="black"/>
<path d="M63.9762 56.3525C63.4399 56.3525 62.9182 56.2655 62.4254 56.0626C61.9761 55.8742 61.5702 55.5843 61.2514 55.2075C60.918 54.7726 60.6716 54.2799 60.5267 53.7581C60.3527 53.1638 60.2658 52.5406 60.2803 51.9173C60.1933 50.7143 60.5122 49.5259 61.1934 48.5403C61.8456 47.8156 62.8022 47.4242 63.7733 47.4822C64.2661 47.4822 64.7589 47.5547 65.2227 47.7286C65.6285 47.888 65.9764 48.1344 66.2663 48.4533C66.5561 48.8012 66.788 49.207 66.9185 49.6418C67.0779 50.1781 67.1649 50.7288 67.1504 51.2941V52.0333H61.8166C61.8166 52.5261 61.8891 53.0044 61.9905 53.4827C62.0775 53.8595 62.2369 54.2074 62.4544 54.5262C62.6428 54.7871 62.9037 54.9901 63.1935 55.1205C63.5124 55.2509 63.8458 55.3234 64.1936 55.3089C64.7009 55.3234 65.1937 55.2075 65.643 54.9611C65.8314 54.8596 65.9909 54.7437 66.1503 54.6132C66.2807 54.4828 66.4112 54.3523 66.5126 54.1929C66.5996 54.2364 66.6721 54.3088 66.7156 54.3958C66.788 54.4973 66.817 54.6132 66.817 54.7437C66.817 54.9321 66.7445 55.106 66.6431 55.2654C66.4982 55.4684 66.3242 55.6423 66.1213 55.7727C65.8459 55.9467 65.556 56.0771 65.2372 56.1641C64.8314 56.2945 64.3965 56.3525 63.9762 56.3525ZM63.7733 48.3518C63.2225 48.3229 62.7007 48.5982 62.3964 49.062C62.034 49.7143 61.8311 50.439 61.8311 51.1782H65.5126C65.5126 50.7868 65.4836 50.3955 65.4111 50.0186C65.3676 49.6998 65.2662 49.4099 65.1212 49.12C64.9908 48.8881 64.8024 48.6997 64.585 48.5548C64.3386 48.4098 64.0632 48.3373 63.7733 48.3518Z" fill="black"/>
<path d="M77.8614 56.3523C77.2961 56.3523 76.7164 56.2943 76.1656 56.1638C75.7018 56.0479 75.267 55.8305 74.9046 55.5261C74.5423 55.2217 74.2814 54.8449 74.1075 54.4101C73.919 53.8738 73.8176 53.323 73.8321 52.7578V46.5544C73.8321 46.3659 73.8031 46.163 73.7306 45.9891C73.6726 45.8587 73.5712 45.7572 73.4552 45.6702C73.3248 45.5833 73.1798 45.5398 73.0349 45.5108C72.861 45.4963 72.7015 45.4963 72.5276 45.5108H72.3247V44.8296H76.9773V45.5108H76.3105C76.1656 45.5398 76.0207 45.5978 75.8902 45.6702C75.7743 45.7572 75.6728 45.8876 75.6148 46.0181C75.5424 46.2065 75.4989 46.4239 75.5134 46.6268V52.8447C75.4989 53.2506 75.5713 53.6564 75.7163 54.0332C75.8322 54.3376 76.0207 54.613 76.267 54.8159C76.499 55.0333 76.7888 55.1927 77.1077 55.2652C77.4556 55.3667 77.8179 55.4101 78.1802 55.4101C78.5861 55.4101 78.9919 55.3522 79.3687 55.2217C79.6876 55.1058 79.963 54.9318 80.2094 54.6999C80.4268 54.4825 80.6007 54.2072 80.7022 53.9173C80.8036 53.5984 80.8616 53.2506 80.8616 52.9172V46.5544C80.8616 46.3659 80.8326 46.163 80.7602 45.9891C80.6877 45.8587 80.5862 45.7572 80.4703 45.6702C80.3398 45.5833 80.1949 45.5253 80.05 45.5108C79.876 45.4963 79.7166 45.4963 79.5427 45.5108H79.2818V44.8296H83.2966V45.5108H82.5719C82.427 45.5398 82.2965 45.5978 82.1661 45.6702C82.0501 45.7572 81.9487 45.8876 81.8762 46.0181C81.8037 46.2065 81.7602 46.4239 81.7747 46.6268V52.9462C81.7747 53.439 81.7023 53.9318 81.5283 54.3956C81.3689 54.8014 81.108 55.1782 80.7747 55.4681C80.4123 55.7725 79.992 56.0044 79.5427 56.1348C78.9919 56.2943 78.4266 56.3667 77.8614 56.3523Z" fill="black"/>
<path d="M83.9488 55.5262C84.1227 55.5407 84.2821 55.5407 84.4561 55.5262C84.601 55.4972 84.7314 55.4392 84.8619 55.3667C84.9778 55.2798 85.0793 55.1493 85.1518 55.0189C85.2242 54.8305 85.2677 54.613 85.2532 54.4101V45.8587C85.2532 45.6703 85.2242 45.4674 85.1518 45.2935C85.0938 45.163 84.9923 45.0471 84.8619 44.9601C84.7314 44.8731 84.5865 44.8297 84.4416 44.8152C84.2821 44.8007 84.1082 44.8007 83.9488 44.8152H83.7458V44.1484H86.7606V54.4536C86.7606 54.6565 86.7896 54.8739 86.862 55.0624C86.92 55.2073 87.0215 55.3232 87.1374 55.4102C87.2679 55.4827 87.4128 55.5407 87.5577 55.5696C87.7317 55.5841 87.8911 55.5841 88.065 55.5696H88.268V56.2509H83.7458V55.5696L83.9488 55.5262Z" fill="black"/>
<path d="M92.7611 55.5117C92.935 55.5262 93.109 55.5262 93.2829 55.5117L93.7757 55.4392V56.1349L93.5148 56.2364H92.3553C92.0074 56.2799 91.6596 56.2799 91.3117 56.2364C91.0363 56.1639 90.8044 56.019 90.6015 55.8161C90.3986 55.5986 90.2537 55.3378 90.1812 55.0479C90.0797 54.671 90.0362 54.2797 90.0362 53.8884V48.5546H88.8333V47.9169C89.0507 47.9169 89.2536 47.8734 89.4565 47.8009C89.6884 47.7285 89.9058 47.598 90.0797 47.4096C90.2682 47.1922 90.4131 46.9603 90.5145 46.6994C90.645 46.366 90.7464 46.0327 90.8044 45.6848H91.5436V47.6415H93.6307V48.5546H91.5001V53.9318C91.4567 54.3667 91.5726 54.787 91.8335 55.1348C92.0654 55.4102 92.4132 55.5407 92.7611 55.5117Z" fill="black"/>
<path d="M94.6742 55.5258C94.8482 55.5403 95.0076 55.5403 95.1815 55.5258C95.3265 55.4968 95.4714 55.4534 95.6018 55.3809C95.7178 55.3084 95.8192 55.1925 95.8772 55.062C95.9642 54.8881 95.9932 54.6852 95.9932 54.4968V49.4094C95.9932 49.221 95.9642 49.0181 95.8772 48.8441C95.8192 48.7137 95.7178 48.5977 95.6018 48.5108C95.4714 48.4238 95.3265 48.3803 95.1815 48.3513C95.0076 48.3368 94.8482 48.3368 94.6742 48.3513V47.6846H97.573V54.4243C97.573 54.6272 97.602 54.8446 97.6745 55.033C97.7324 55.1635 97.8339 55.2939 97.9499 55.3809C98.0803 55.4534 98.2252 55.5113 98.3702 55.5403C98.5441 55.5548 98.7035 55.5548 98.8775 55.5403H99.0949V56.2215H94.4713V55.5403H94.6742V55.5258ZM95.7613 45.0467C95.7613 44.8873 95.7758 44.7279 95.8337 44.5684C95.8772 44.4525 95.9352 44.351 96.0222 44.2641C96.1091 44.1916 96.2106 44.1336 96.312 44.1046C96.428 44.0901 96.5584 44.0901 96.6744 44.1046C96.7903 44.0901 96.9063 44.0901 97.0222 44.1046C97.1237 44.1336 97.2252 44.1916 97.3121 44.2641C97.3846 44.351 97.4571 44.4525 97.5005 44.5684C97.5295 44.7279 97.5295 44.8873 97.5005 45.0467C97.5295 45.2062 97.5295 45.3511 97.5005 45.5105C97.4571 45.6265 97.3846 45.7279 97.3121 45.8149C97.2252 45.8874 97.1237 45.9453 97.0222 45.9743C96.9063 46.0033 96.7903 46.0033 96.6744 45.9743C96.5584 46.0033 96.428 46.0033 96.312 45.9743C96.2106 45.9453 96.1091 45.8874 96.0222 45.8149C95.9352 45.7279 95.8772 45.6265 95.8337 45.5105C95.7903 45.3656 95.7613 45.2062 95.7613 45.0467Z" fill="black"/>
<path d="M103.95 55.5261V56.2073H99.6021V55.5261H99.8195C99.9789 55.5406 100.153 55.5406 100.312 55.5261C100.457 55.4971 100.588 55.4536 100.704 55.3666C100.82 55.2797 100.907 55.1637 100.964 55.0188C101.022 54.8159 101.051 54.613 101.051 54.41V49.4096C101.051 49.2212 101.022 49.0183 100.95 48.8444C100.907 48.7139 100.82 48.598 100.704 48.511C100.588 48.4241 100.457 48.3806 100.312 48.3516C100.153 48.3371 99.9789 48.3371 99.8195 48.3516V47.6849H102.312L102.53 48.9748H102.602C102.747 48.7139 102.907 48.4675 103.11 48.2501C103.269 48.0762 103.457 47.9168 103.675 47.8008C103.892 47.6849 104.11 47.5979 104.356 47.5399C104.588 47.5254 104.82 47.5254 105.052 47.5399C105.298 47.5399 105.545 47.5689 105.791 47.6269C106.023 47.6704 106.24 47.7573 106.443 47.8733C106.646 47.9892 106.835 48.1487 106.994 48.3226C107.153 48.5255 107.284 48.7429 107.371 48.9893H107.501C107.646 48.7284 107.82 48.482 108.023 48.2646C108.197 48.0907 108.4 47.9313 108.617 47.8153C108.835 47.7139 109.052 47.6414 109.284 47.5979C109.53 47.5834 109.762 47.5834 110.009 47.5979C110.386 47.5979 110.748 47.6559 111.096 47.7863C111.415 47.9023 111.704 48.0907 111.922 48.3516C112.168 48.627 112.342 48.9603 112.429 49.3227C112.56 49.801 112.632 50.2793 112.618 50.7721V54.5405C112.618 54.7434 112.647 54.9463 112.705 55.1492C112.763 55.2942 112.849 55.4101 112.965 55.4971C113.081 55.584 113.212 55.6275 113.357 55.6565C113.516 55.671 113.69 55.671 113.85 55.6565V56.3377H111.067V50.7286C111.067 50.4242 111.038 50.1053 110.98 49.801C110.922 49.5546 110.835 49.3227 110.69 49.1198C110.559 48.9313 110.386 48.7864 110.168 48.6994C109.922 48.598 109.661 48.54 109.4 48.5545C109.11 48.5545 108.82 48.6125 108.559 48.7429C108.342 48.8734 108.153 49.0473 108.009 49.2647C107.864 49.4966 107.748 49.743 107.704 50.0184C107.646 50.3228 107.617 50.6271 107.617 50.9315V54.4245C107.617 54.6274 107.646 54.8304 107.704 55.0333C107.762 55.1637 107.849 55.2797 107.965 55.3811C108.081 55.4536 108.211 55.5116 108.356 55.5406C108.516 55.5551 108.69 55.5551 108.849 55.5406V56.2218H106.124V50.7286C106.124 50.4242 106.095 50.1053 106.037 49.801C105.979 49.5546 105.878 49.3227 105.747 49.1198C105.617 48.9313 105.443 48.7864 105.226 48.6994C104.979 48.598 104.718 48.54 104.443 48.5545C104.139 48.5545 103.834 48.6125 103.573 48.7574C103.327 48.9024 103.139 49.0908 102.994 49.3372C102.834 49.5836 102.733 49.8734 102.689 50.1633C102.617 50.4822 102.588 50.8011 102.588 51.1344V54.5115C102.588 54.6999 102.617 54.9028 102.689 55.0768C102.747 55.2072 102.849 55.3232 102.979 55.3956C103.11 55.4681 103.255 55.5116 103.399 55.5406C103.559 55.5551 103.733 55.5551 103.892 55.5406H103.95V55.5261Z" fill="black"/>
<path d="M118.575 48.2791C118.314 48.2791 118.068 48.3081 117.821 48.4095C117.647 48.482 117.488 48.6125 117.386 48.7719C117.27 48.9313 117.198 49.1197 117.169 49.3227C117.14 49.5546 117.14 49.7865 117.169 50.0184C116.821 50.0474 116.473 49.9604 116.169 49.801C115.922 49.627 115.792 49.3227 115.821 49.0183C115.821 48.7574 115.893 48.511 116.038 48.3081C116.212 48.1052 116.415 47.9457 116.662 47.8443C116.951 47.7138 117.256 47.6124 117.575 47.5689C117.937 47.5109 118.314 47.4819 118.691 47.4819C119.126 47.4819 119.546 47.5254 119.966 47.6269C120.3 47.7138 120.618 47.8733 120.879 48.1052C121.14 48.3371 121.329 48.627 121.43 48.9603C121.561 49.3806 121.619 49.8155 121.619 50.2503V54.381C121.59 54.5695 121.59 54.7579 121.619 54.9463C121.648 55.2072 121.836 55.4246 122.097 55.4826C122.242 55.4971 122.401 55.4971 122.546 55.4826V56.1638H120.43L120.184 54.7144H120.053L119.575 55.3376C119.415 55.5116 119.242 55.671 119.053 55.8159C118.85 55.9464 118.647 56.0623 118.415 56.1348C118.14 56.2073 117.85 56.2508 117.56 56.2363C117.227 56.2363 116.894 56.1928 116.575 56.0913C116.285 55.9899 116.009 55.8304 115.792 55.6275C115.56 55.3956 115.386 55.1347 115.27 54.8304C115.14 54.468 115.082 54.0912 115.082 53.6998C115.067 53.0041 115.386 52.3374 115.951 51.9171C116.792 51.4533 117.734 51.2214 118.691 51.2504H120.01V50.2938C120.024 50.0329 120.024 49.7575 120.01 49.4966C119.981 49.2792 119.908 49.0618 119.807 48.8734C119.691 48.6994 119.546 48.5545 119.357 48.4675C119.111 48.3516 118.85 48.2936 118.575 48.2791ZM116.633 53.8882C116.604 54.2796 116.72 54.6854 116.951 55.0043C117.212 55.2652 117.575 55.4101 117.937 55.3811C118.241 55.3811 118.531 55.3231 118.807 55.2217C119.068 55.1347 119.285 54.9753 119.473 54.7724C119.662 54.5695 119.821 54.3376 119.908 54.0767C120.01 53.7723 120.053 53.4679 120.053 53.1491V51.8591H119.039C118.647 51.8736 118.27 51.9316 117.894 52.033C117.618 52.1055 117.372 52.2359 117.154 52.4099C116.98 52.5693 116.836 52.7867 116.763 53.0186C116.662 53.294 116.618 53.5984 116.633 53.8882Z" fill="black"/>
<path d="M127.547 55.5118C127.72 55.5262 127.894 55.5262 128.068 55.5118L128.561 55.4393V56.135L128.3 56.2364H127.112C126.778 56.2799 126.431 56.2799 126.097 56.2364C125.822 56.164 125.59 56.019 125.387 55.8161C125.17 55.6132 125.025 55.3523 124.938 55.0769C124.836 54.7001 124.793 54.3088 124.793 53.9174V48.5547H123.59V47.9169C123.807 47.9169 124.01 47.888 124.213 47.83C124.445 47.7575 124.662 47.6271 124.836 47.4386C125.025 47.2212 125.17 46.9893 125.271 46.7284C125.401 46.3951 125.503 46.0617 125.561 45.7139H126.3V47.6705H128.387V48.5837H126.3V53.9609C126.257 54.3957 126.373 54.816 126.633 55.1639C126.865 55.4248 127.199 55.5552 127.547 55.5118Z" fill="black"/>
<path d="M133.489 56.3526C132.953 56.3526 132.416 56.2656 131.924 56.0627C131.474 55.8743 131.083 55.5844 130.764 55.2076C130.416 54.7872 130.17 54.2945 130.039 53.7582C129.851 53.1639 129.764 52.5407 129.778 51.9174C129.691 50.7145 130.01 49.526 130.706 48.5404C131.344 47.7722 132.315 47.3519 133.315 47.4098C133.808 47.4098 134.301 47.4823 134.764 47.6562C135.17 47.8157 135.518 48.0621 135.808 48.3809C136.112 48.7288 136.344 49.1346 136.475 49.5694C136.634 50.1057 136.707 50.6565 136.692 51.2217V51.9609H131.329C131.329 52.4537 131.387 52.932 131.503 53.4103C131.59 53.7872 131.735 54.135 131.953 54.4539C132.141 54.7148 132.402 54.9177 132.692 55.0481C133.011 55.1786 133.358 55.251 133.706 55.2366C133.967 55.2366 134.228 55.2076 134.474 55.1496C134.692 55.0916 134.909 55.0047 135.112 54.8887C135.301 54.7872 135.46 54.6713 135.619 54.5408C135.764 54.4249 135.88 54.28 135.982 54.1205C136.069 54.164 136.141 54.2365 136.199 54.3234C136.257 54.4249 136.286 54.5553 136.286 54.6713C136.286 54.8597 136.214 55.0336 136.112 55.1931C135.982 55.396 135.808 55.5699 135.59 55.7004C135.33 55.8743 135.025 56.0047 134.721 56.0917C134.329 56.2366 133.909 56.3236 133.489 56.3526ZM133.344 48.3519C132.793 48.323 132.271 48.5983 131.981 49.0621C131.619 49.7144 131.416 50.4391 131.416 51.1783H135.083C135.083 50.7869 135.054 50.3956 134.996 50.0187C134.938 49.6999 134.837 49.3955 134.692 49.1201C134.576 48.8882 134.387 48.6853 134.156 48.5549C133.909 48.4099 133.634 48.3375 133.344 48.3519Z" fill="black"/>
<path d="M152.288 50.4823C152.288 51.2939 152.186 52.0911 151.954 52.8593C151.766 53.526 151.432 54.1347 150.983 54.6565C150.534 55.1638 149.983 55.5551 149.36 55.8015C148.635 56.0769 147.867 56.2219 147.084 56.2074H142.2V55.5262H142.403C142.577 55.5407 142.736 55.5407 142.91 55.5262C143.055 55.4972 143.2 55.4392 143.33 55.3667C143.446 55.2798 143.548 55.1638 143.606 55.0189C143.678 54.8305 143.722 54.613 143.707 54.4101V46.5834C143.707 46.395 143.678 46.1921 143.606 46.0182C143.548 45.8877 143.446 45.7718 143.316 45.6993C143.2 45.6123 143.055 45.5543 142.91 45.5399C142.736 45.5254 142.577 45.5254 142.403 45.5399H142.2V44.8586H147.084C147.838 44.8586 148.577 44.9746 149.287 45.2355C149.911 45.4819 150.476 45.8587 150.925 46.3515C151.389 46.8733 151.737 47.4675 151.94 48.1343C152.172 48.8879 152.288 49.6851 152.288 50.4823ZM146.707 55.3957C147.287 55.3957 147.852 55.2943 148.374 55.0624C148.853 54.8594 149.258 54.5406 149.563 54.1203C149.896 53.6564 150.142 53.1347 150.273 52.5839C150.447 51.9027 150.534 51.1925 150.519 50.4823C150.606 49.2068 150.273 47.9314 149.563 46.8588C148.867 45.9747 147.78 45.4964 146.664 45.5978H145.215V55.3957H146.707Z" fill="black"/>
<path d="M153.78 55.5258C153.94 55.5403 154.114 55.5403 154.273 55.5258C154.418 55.4968 154.563 55.4534 154.693 55.3809C154.824 55.3084 154.925 55.1925 154.983 55.062C155.056 54.8881 155.099 54.6852 155.085 54.4968V49.4094C155.085 49.221 155.056 49.0181 154.983 48.8441C154.925 48.7137 154.824 48.5977 154.693 48.5108C154.563 48.4238 154.418 48.3658 154.273 48.3513C154.114 48.3368 153.94 48.3368 153.78 48.3513V47.6846H156.679V54.4243C156.679 54.6272 156.708 54.8446 156.795 55.033C156.853 55.178 156.954 55.2939 157.07 55.3809C157.201 55.4534 157.346 55.5113 157.491 55.5403C157.665 55.5548 157.824 55.5548 157.998 55.5403H158.201V56.2215H153.635V55.5403H153.78V55.5258ZM154.867 45.0467C154.838 44.8873 154.838 44.7279 154.867 44.5684C154.911 44.4525 154.983 44.351 155.07 44.2641C155.157 44.1916 155.244 44.1336 155.36 44.1046C155.476 44.0901 155.592 44.0901 155.708 44.1046C155.824 44.0901 155.954 44.0901 156.07 44.1046C156.172 44.1336 156.273 44.1916 156.346 44.2641C156.433 44.351 156.505 44.4525 156.549 44.5684C156.578 44.7279 156.578 44.8873 156.549 45.0467C156.578 45.2062 156.578 45.3511 156.549 45.5105C156.505 45.6265 156.433 45.7279 156.346 45.8149C156.273 45.8874 156.172 45.9453 156.07 45.9743C155.954 46.0033 155.824 46.0033 155.708 45.9743C155.592 46.0033 155.476 46.0033 155.36 45.9743C155.244 45.9453 155.157 45.8874 155.07 45.8149C154.983 45.7279 154.911 45.6265 154.867 45.5105C154.838 45.3511 154.838 45.2062 154.867 45.0467Z" fill="black"/>
<path d="M163.042 55.5265V56.2077H158.694V55.5265H158.825C158.998 55.541 159.158 55.541 159.332 55.5265C159.477 55.4975 159.622 55.4396 159.752 55.3671C159.868 55.2801 159.97 55.1497 160.028 55.0192C160.1 54.8308 160.143 54.6134 160.129 54.4105V49.4101C160.129 49.2217 160.1 49.0188 160.028 48.8448C159.97 48.6999 159.868 48.5839 159.738 48.5115C159.622 48.4245 159.477 48.3665 159.332 48.352C159.158 48.3376 158.998 48.3376 158.825 48.352V47.6853H161.404L161.607 48.9753H161.694C161.839 48.7144 162.013 48.468 162.216 48.2506C162.39 48.0767 162.578 47.9172 162.796 47.8013C163.013 47.6998 163.231 47.6274 163.463 47.5839C163.709 47.5694 163.941 47.5694 164.187 47.5839C164.579 47.5839 164.955 47.6418 165.318 47.7723C165.637 47.8882 165.927 48.0767 166.158 48.3375C166.405 48.6129 166.579 48.9318 166.68 49.2797C166.825 49.7435 166.883 50.2363 166.869 50.729V54.4975C166.869 54.7004 166.898 54.9033 166.956 55.1062C167.014 55.2367 167.086 55.3671 167.202 55.4541C167.318 55.5265 167.448 55.5845 167.593 55.6135C167.753 55.628 167.927 55.628 168.086 55.6135V56.2947H165.376V50.729C165.376 50.4247 165.347 50.1058 165.289 49.8014C165.231 49.555 165.129 49.3231 164.984 49.1202C164.84 48.9318 164.651 48.7869 164.434 48.6999C163.883 48.468 163.26 48.468 162.709 48.6999C162.463 48.8448 162.26 49.0333 162.115 49.2797C161.955 49.526 161.839 49.8159 161.781 50.1058C161.723 50.4247 161.694 50.758 161.694 51.0769V54.454C161.694 54.6424 161.723 54.8453 161.796 55.0192C161.854 55.1497 161.955 55.2656 162.071 55.3381C162.202 55.4106 162.347 55.4541 162.492 55.483C162.665 55.4975 162.825 55.4975 162.999 55.483L163.042 55.5265Z" fill="black"/>
<path d="M169.187 55.5258C169.347 55.5403 169.521 55.5403 169.68 55.5258C169.825 55.4968 169.97 55.4534 170.101 55.3809C170.231 55.3084 170.332 55.1925 170.39 55.062C170.463 54.8881 170.492 54.6852 170.492 54.4968V49.4094C170.492 49.221 170.463 49.0181 170.39 48.8441C170.332 48.7137 170.231 48.5977 170.101 48.5108C169.97 48.4238 169.825 48.3658 169.68 48.3513C169.521 48.3368 169.347 48.3368 169.187 48.3513V47.6846H172.086V54.4243C172.086 54.6272 172.115 54.8446 172.188 55.033C172.26 55.1635 172.362 55.2939 172.478 55.3809C172.608 55.4678 172.753 55.5113 172.898 55.5403C173.057 55.5548 173.231 55.5548 173.391 55.5403H173.608V56.2215H169.072V55.5403H169.187V55.5258ZM170.26 45.0467C170.231 44.8873 170.231 44.7279 170.26 44.5684C170.304 44.4525 170.376 44.351 170.463 44.2641C170.535 44.1916 170.637 44.1336 170.738 44.1046C170.854 44.0901 170.985 44.0901 171.101 44.1046C171.217 44.0901 171.333 44.0901 171.449 44.1046C171.55 44.1336 171.651 44.1916 171.738 44.2641C171.825 44.351 171.883 44.4525 171.927 44.5684C171.985 44.7134 172.014 44.8873 172.014 45.0467C172.014 45.2062 171.985 45.3656 171.927 45.5105C171.883 45.6265 171.825 45.7279 171.738 45.8149C171.651 45.8874 171.55 45.9453 171.449 45.9743C171.333 46.0033 171.217 46.0033 171.101 45.9743C170.985 46.0033 170.854 46.0033 170.738 45.9743C170.637 45.9453 170.535 45.8874 170.463 45.8149C170.376 45.7279 170.304 45.6265 170.26 45.5105C170.231 45.3511 170.231 45.2062 170.26 45.0467Z" fill="black"/>
<path d="M178.449 55.5261V56.2073H174.101V55.5261H174.231C174.405 55.5406 174.565 55.5406 174.739 55.5261C174.883 55.4971 175.028 55.4391 175.159 55.3667C175.275 55.2797 175.376 55.1493 175.434 55.0188C175.507 54.8304 175.55 54.613 175.536 54.4101V49.4097C175.536 49.2213 175.507 49.0183 175.434 48.8444C175.376 48.714 175.275 48.598 175.144 48.5111C175.014 48.4241 174.869 48.3661 174.724 48.3516C174.565 48.3371 174.391 48.3371 174.231 48.3516V47.6849H176.826L177.029 48.9749C177.174 48.714 177.362 48.4676 177.565 48.2502C177.782 48.0762 178.014 47.9313 178.275 47.8298C178.478 47.7284 178.695 47.6559 178.927 47.6124C179.174 47.5979 179.42 47.5979 179.666 47.6124C180.043 47.6124 180.42 47.6704 180.783 47.8009C181.101 47.9168 181.391 48.1052 181.623 48.3661C181.884 48.6415 182.058 48.9749 182.159 49.3372C182.29 49.8155 182.362 50.2938 182.348 50.7866V54.555C182.348 54.7579 182.377 54.9609 182.435 55.1638C182.493 55.2942 182.565 55.4247 182.681 55.5116C182.797 55.5841 182.928 55.6421 183.073 55.6711C183.232 55.6855 183.406 55.6855 183.565 55.6711V56.3523H180.783V50.7286C180.783 50.4098 180.754 50.1054 180.681 49.801C180.623 49.5546 180.536 49.3227 180.391 49.1198C180.246 48.9314 180.058 48.7864 179.84 48.6995C179.29 48.4676 178.666 48.4676 178.116 48.6995C177.869 48.8444 177.666 49.0473 177.507 49.2792C177.362 49.5401 177.246 49.8155 177.188 50.1054C177.13 50.4243 177.087 50.7431 177.087 51.0765V54.4536C177.087 54.642 177.116 54.8449 177.203 55.0188C177.261 55.1493 177.362 55.2652 177.478 55.3377C177.608 55.4102 177.753 55.4536 177.898 55.4826C178.072 55.4971 178.232 55.4971 178.406 55.4826L178.449 55.5261Z" fill="black"/>
<path d="M192.407 47.9749C192.436 48.0908 192.436 48.1923 192.407 48.3083C192.378 48.4097 192.32 48.4967 192.262 48.5691C192.189 48.6416 192.102 48.6996 192.001 48.7431C191.87 48.7721 191.755 48.7721 191.624 48.7431C191.624 48.6851 191.624 48.6126 191.624 48.5547C191.61 48.4967 191.581 48.4387 191.537 48.3807C191.508 48.3228 191.45 48.2793 191.378 48.2503C191.291 48.2213 191.204 48.2213 191.117 48.2503C191.001 48.2358 190.87 48.2358 190.754 48.2503C190.638 48.2938 190.537 48.3372 190.436 48.4097C190.624 48.6416 190.783 48.9025 190.885 49.1924C191.015 49.5547 191.073 49.9461 191.059 50.3374C191.059 50.7142 191.001 51.0911 190.87 51.4389C190.754 51.7578 190.58 52.0622 190.349 52.3086C190.088 52.555 189.783 52.7434 189.45 52.8738C189.044 53.0188 188.609 53.0912 188.175 53.0768H187.348L187.058 53.2507C186.972 53.3087 186.885 53.3811 186.812 53.4536C186.74 53.5406 186.682 53.6275 186.638 53.729C186.609 53.8304 186.609 53.9464 186.638 54.0478C186.638 54.1638 186.667 54.2653 186.711 54.3667C186.769 54.4392 186.827 54.4972 186.914 54.5406C187.015 54.5986 187.116 54.6276 187.232 54.6276H189.435C189.841 54.6276 190.262 54.6711 190.653 54.8015C190.957 54.903 191.233 55.0769 191.465 55.2943C191.682 55.5117 191.841 55.7581 191.928 56.048C192.03 56.3524 192.073 56.6857 192.073 57.0046C192.073 57.4394 191.986 57.8597 191.812 58.2511C191.639 58.6279 191.378 58.9468 191.044 59.1932C190.638 59.4686 190.204 59.6715 189.725 59.7874C189.102 59.9324 188.479 60.0048 187.841 59.9903C186.972 60.0483 186.102 59.8454 185.348 59.3816C184.435 58.7439 184.203 57.4684 184.855 56.5553C184.928 56.4393 185.015 56.3379 185.116 56.2509C185.305 56.077 185.522 55.9465 185.754 55.8451C186 55.7436 186.247 55.6567 186.508 55.6132C186.392 55.5697 186.29 55.4972 186.189 55.4248C186.087 55.3378 186 55.2508 185.913 55.1494C185.826 55.0334 185.754 54.903 185.711 54.7725C185.682 54.6131 185.682 54.4682 185.711 54.3087C185.711 54.0189 185.783 53.729 185.957 53.4826C186.174 53.2072 186.45 52.9753 186.754 52.8014C186.522 52.7144 186.319 52.584 186.145 52.4245C185.957 52.2651 185.798 52.0767 185.682 51.8593C185.551 51.6419 185.464 51.41 185.406 51.1636C185.348 50.9172 185.305 50.6563 185.305 50.3954C185.305 49.9751 185.363 49.5547 185.493 49.1634C185.609 48.8155 185.797 48.4967 186.058 48.2358C186.319 47.9749 186.638 47.772 186.986 47.6415C187.406 47.4966 187.856 47.4386 188.305 47.4386C188.493 47.4241 188.696 47.4241 188.885 47.4386L189.392 47.5546L189.827 47.7285C189.943 47.772 190.044 47.8445 190.131 47.9169C190.218 47.9169 190.305 47.743 190.407 47.6415C190.508 47.5401 190.624 47.4531 190.754 47.3662C190.885 47.2792 191.03 47.2067 191.189 47.1487C191.349 47.0908 191.508 47.0618 191.682 47.0618C191.812 47.0328 191.957 47.0328 192.088 47.0618C192.204 47.1053 192.305 47.1632 192.392 47.2357C192.465 47.3082 192.523 47.4096 192.566 47.5111C192.552 47.6705 192.494 47.83 192.407 47.9749ZM185.667 57.6133C185.667 57.8308 185.696 58.0627 185.769 58.2656C185.826 58.4685 185.928 58.6424 186.087 58.7874C186.261 58.9468 186.493 59.0627 186.725 59.1207C187.044 59.2222 187.392 59.2657 187.725 59.2512C188.218 59.2657 188.696 59.2222 189.175 59.1062C189.493 59.0337 189.798 58.8888 190.059 58.7004C190.262 58.541 190.421 58.338 190.508 58.0916C190.609 57.8453 190.653 57.5844 190.653 57.3235C190.653 57.1206 190.624 56.9031 190.537 56.7147C190.479 56.5698 190.363 56.4393 190.233 56.3379C190.073 56.2509 189.899 56.1785 189.725 56.1495C189.493 56.1205 189.247 56.1205 189.015 56.1495H187.45C187.232 56.1495 187.015 56.1495 186.798 56.1495C186.595 56.1929 186.406 56.2654 186.232 56.3814C186.073 56.4973 185.928 56.6567 185.841 56.8307C185.725 57.0771 185.667 57.338 185.667 57.6133ZM186.595 50.3664C186.566 50.8737 186.682 51.381 186.928 51.8158C187.203 52.1491 187.609 52.3376 188.044 52.2941C188.276 52.2941 188.493 52.2651 188.711 52.1781C188.885 52.1057 189.03 51.9752 189.146 51.8158C189.262 51.6274 189.349 51.4244 189.392 51.207C189.435 50.9027 189.464 50.5983 189.464 50.2939C189.493 49.7432 189.392 49.2069 189.131 48.7141C188.885 48.3517 188.464 48.1488 188.03 48.1923C187.595 48.1488 187.174 48.3517 186.928 48.7141C186.667 49.2359 186.551 49.8156 186.595 50.3954V50.3664Z" fill="black"/>
<path d="M202.784 44.6411C203.277 44.6411 203.755 44.6846 204.234 44.7861C204.582 44.8585 204.929 44.989 205.234 45.1629C205.48 45.2934 205.683 45.4963 205.843 45.7282C205.973 45.9456 206.031 46.192 206.031 46.4384C206.031 46.5978 206.002 46.7572 205.929 46.9022C205.857 47.0326 205.756 47.1486 205.64 47.25C205.509 47.3515 205.364 47.424 205.205 47.4674C205.031 47.5254 204.842 47.5544 204.654 47.5544C204.654 47.308 204.611 47.0616 204.553 46.8152C204.48 46.5833 204.379 46.3514 204.234 46.1485C204.074 45.9456 203.871 45.7861 203.654 45.6702C203.379 45.5397 203.089 45.4818 202.784 45.4963C202.248 45.4818 201.726 45.5832 201.248 45.8296C200.828 46.047 200.465 46.3804 200.219 46.7862C199.929 47.2645 199.726 47.8008 199.639 48.3516C199.509 49.0473 199.436 49.772 199.451 50.4822C199.451 51.1344 199.509 51.8011 199.639 52.4389C199.755 52.9751 199.958 53.4969 200.233 53.9752C200.494 54.381 200.842 54.7144 201.262 54.9608C201.712 55.1927 202.205 55.3086 202.712 55.3086C203.06 55.3086 203.408 55.2652 203.741 55.1927C204.016 55.1347 204.277 55.0333 204.524 54.8883C204.741 54.7724 204.944 54.6419 205.132 54.468C205.306 54.3086 205.451 54.1346 205.596 53.9462C205.683 54.0042 205.756 54.0912 205.814 54.1781C205.872 54.2941 205.9 54.439 205.9 54.5695C205.9 54.7869 205.828 55.0043 205.698 55.1927C205.538 55.4246 205.321 55.6275 205.074 55.7725C204.741 55.9609 204.379 56.0913 204.002 56.1928C203.495 56.3087 202.987 56.3667 202.465 56.3522C201.741 56.3667 201.031 56.2218 200.364 55.9319C199.799 55.6565 199.291 55.2507 198.914 54.7434C198.48 54.1926 198.161 53.5694 197.987 52.8882C197.769 52.1055 197.653 51.2938 197.668 50.4822C197.668 49.685 197.769 48.8878 198.001 48.1197C198.19 47.4385 198.523 46.8152 198.972 46.2644C199.407 45.7427 199.944 45.3368 200.567 45.0759C201.262 44.7716 202.016 44.6266 202.784 44.6411Z" fill="black"/>
<path d="M210.828 48.2791C210.568 48.2791 210.307 48.3081 210.075 48.4095C209.901 48.482 209.741 48.6125 209.64 48.7719C209.524 48.9313 209.451 49.1197 209.423 49.3227C209.394 49.5546 209.394 49.7865 209.423 50.0184C209.075 50.0329 208.727 49.9604 208.408 49.801C208.162 49.6125 208.046 49.3227 208.075 49.0183C208.075 48.7574 208.147 48.511 208.292 48.3081C208.451 48.1052 208.669 47.9457 208.915 47.8443C209.205 47.7138 209.509 47.6124 209.828 47.5689C210.191 47.5109 210.568 47.4819 210.944 47.4819C211.379 47.4819 211.799 47.5254 212.22 47.6269C212.553 47.7138 212.872 47.8733 213.133 48.1052C213.394 48.3371 213.582 48.627 213.684 48.9603C213.814 49.3806 213.872 49.8155 213.872 50.2503V54.381C213.858 54.5695 213.858 54.7579 213.872 54.9463C213.901 55.0767 213.959 55.1927 214.046 55.2942C214.133 55.3811 214.249 55.4391 214.365 55.4826C214.51 55.4971 214.669 55.4971 214.814 55.4826V56.1638H212.655L212.408 54.7144H212.278L211.8 55.3376C211.64 55.5116 211.466 55.671 211.278 55.8159C211.075 55.9464 210.872 56.0623 210.64 56.1348C210.365 56.2073 210.075 56.2508 209.785 56.2363C209.451 56.2363 209.118 56.1928 208.799 56.0913C208.509 55.9899 208.234 55.8304 208.017 55.6275C207.785 55.3956 207.611 55.1347 207.495 54.8304C207.364 54.468 207.306 54.0912 207.306 53.6998C207.263 52.9461 207.611 52.2359 208.22 51.8011C209.046 51.3373 209.988 51.1054 210.944 51.1344H212.278V50.1778C212.292 49.9169 212.292 49.6415 212.278 49.3806C212.249 49.1632 212.176 48.9458 212.075 48.7574C211.959 48.5835 211.814 48.453 211.626 48.3516C211.365 48.2791 211.089 48.2501 210.828 48.2791ZM208.886 53.8882C208.857 54.2796 208.973 54.6854 209.205 55.0043C209.466 55.2652 209.828 55.4101 210.191 55.3811C210.495 55.3811 210.785 55.3231 211.06 55.2217C211.321 55.1347 211.539 54.9753 211.727 54.7724C211.915 54.5695 212.075 54.3376 212.162 54.0767C212.263 53.7723 212.307 53.4679 212.307 53.1491V51.8591H211.278C210.901 51.8736 210.524 51.9316 210.147 52.033C209.872 52.1055 209.625 52.2359 209.408 52.4099C209.234 52.5693 209.089 52.7867 209.017 53.0186C208.915 53.294 208.872 53.5984 208.886 53.8882Z" fill="black"/>
<path d="M220.67 56.2076H216.061V55.5264C216.235 55.5409 216.409 55.5409 216.583 55.5264C216.727 55.4974 216.858 55.4394 216.988 55.3669C217.104 55.28 217.206 55.1495 217.278 55.0191C217.351 54.8307 217.38 54.6133 217.38 54.4103V49.4099C217.38 49.2215 217.351 49.0186 217.278 48.8447C217.22 48.7142 217.119 48.5983 216.988 48.5113C216.858 48.4244 216.713 48.3664 216.568 48.3519C216.394 48.3374 216.235 48.3374 216.061 48.3519V47.6852H218.525L218.858 49.2795C218.96 49.0476 219.061 48.8302 219.177 48.6128C219.278 48.4099 219.409 48.2214 219.583 48.062C219.742 47.9026 219.945 47.7721 220.163 47.6852C220.452 47.5837 220.742 47.5402 221.047 47.5402C221.496 47.5112 221.96 47.6127 222.351 47.8446C222.627 48.0475 222.786 48.3664 222.771 48.7142C222.771 48.8737 222.742 49.0186 222.684 49.1635C222.641 49.3085 222.554 49.4389 222.424 49.5259C222.293 49.6418 222.134 49.7143 221.974 49.7578C221.742 49.8158 221.51 49.8448 221.279 49.8448C221.308 49.5114 221.235 49.178 221.09 48.8882C220.945 48.6853 220.699 48.5693 220.438 48.5983C220.25 48.5983 220.061 48.6563 219.916 48.7722C219.742 48.8882 219.597 49.0331 219.496 49.207C219.38 49.4099 219.278 49.6274 219.206 49.8448C219.119 50.0912 219.061 50.3376 219.003 50.584C219.003 50.8304 219.003 51.0912 218.902 51.3376C218.8 51.584 218.902 51.8159 218.902 52.0189V54.5263C218.902 54.7147 218.931 54.9176 219.003 55.0916C219.061 55.222 219.162 55.338 219.293 55.4104C219.423 55.4829 219.568 55.5264 219.713 55.5554C219.873 55.5699 220.047 55.5699 220.206 55.5554H220.655V56.2076H220.67Z" fill="black"/>
<path d="M231.135 54.4537C231.135 54.6421 231.164 54.845 231.236 55.0189C231.308 55.1494 231.41 55.2653 231.526 55.3523C231.656 55.4248 231.801 55.4683 231.946 55.4972C232.106 55.5117 232.28 55.5117 232.439 55.4972H232.569V56.1785H229.874L229.7 54.7291C229.584 54.961 229.439 55.1784 229.279 55.3813C229.134 55.5842 228.96 55.7436 228.758 55.8886C228.555 56.019 228.323 56.135 228.091 56.2074C227.815 56.2799 227.54 56.3089 227.25 56.3089C226.757 56.3089 226.265 56.2364 225.801 56.048C225.395 55.8741 225.047 55.5987 224.786 55.2508C224.482 54.845 224.279 54.3667 224.163 53.8739C224.004 53.2217 223.931 52.5695 223.946 51.9028C223.946 51.236 224.004 50.5548 224.163 49.9026C224.264 49.3808 224.482 48.888 224.786 48.4532C225.047 48.1053 225.395 47.8155 225.801 47.6415C226.511 47.3662 227.294 47.3082 228.033 47.4821C228.265 47.5546 228.497 47.6415 228.714 47.772C228.917 47.9024 229.091 48.0474 229.25 48.2213C229.395 48.3952 229.54 48.5836 229.656 48.7866H229.743V45.7283C229.743 45.5399 229.714 45.337 229.627 45.1631C229.569 45.0326 229.468 44.9167 229.352 44.8297C229.221 44.7573 229.076 44.6993 228.931 44.6848C228.758 44.6703 228.598 44.6703 228.424 44.6848H228.294V44.0181H231.192L231.135 54.4537ZM227.468 55.3378C227.815 55.3378 228.178 55.2798 228.497 55.1349C228.787 54.99 229.018 54.7725 229.178 54.4972C229.352 54.1638 229.468 53.8159 229.526 53.4391C229.598 52.9608 229.642 52.468 229.642 51.9897C229.642 51.5114 229.598 51.0186 229.526 50.5403C229.468 50.1635 229.352 49.8011 229.178 49.4678C229.018 49.1924 228.772 48.9605 228.497 48.8011C228.163 48.6416 227.801 48.5692 227.439 48.5836C227.134 48.5836 226.83 48.6561 226.554 48.8011C226.294 48.9605 226.076 49.1924 225.931 49.4678C225.757 49.8011 225.641 50.178 225.583 50.5548C225.511 51.0331 225.482 51.5259 225.482 52.0042C225.438 52.8738 225.598 53.7435 225.946 54.5406C226.25 55.0769 226.844 55.3958 227.468 55.3378Z" fill="black"/>
</svg>
