<svg width="37" height="37" viewBox="0 0 37 37" fill="none" xmlns="http://www.w3.org/2000/svg">
<path d="M33.9717 13.4164L27.2632 11.8822V8.39084C27.2632 6.56624 26.0207 5.00653 24.2427 4.59565L4.76906 0.101135C3.60453 -0.167589 2.40111 0.105094 1.47027 0.848953C0.537483 1.59281 0 2.70264 0 3.89632V32.1318C0 35.2708 1.72926 37 4.86842 37H32.1316C35.2707 37 37 35.2708 37 32.1318V17.214C37 15.3855 35.7536 13.8234 33.9717 13.4164ZM1.94737 32.1299V3.89442C1.94737 3.29856 2.21621 2.74362 2.68357 2.37169C3.03215 2.09323 3.45472 1.94715 3.89093 1.94715C4.03699 1.94715 4.18485 1.96249 4.33285 1.99754L23.8065 6.49206C24.6945 6.69652 25.3158 7.47761 25.3158 8.38894V12.6572V35.0508H18.5V28.2354C18.5 25.552 16.317 23.3672 13.6316 23.3672C10.9462 23.3672 8.76316 25.552 8.76316 28.2354V35.0508H4.86842C2.81979 35.0508 1.94737 34.1765 1.94737 32.1299ZM16.5526 35.0508H10.7105V28.2354C10.7105 26.625 12.0211 25.3144 13.6316 25.3144C15.2421 25.3144 16.5526 26.625 16.5526 28.2354V35.0508ZM35.0526 32.1299C35.0526 34.1765 34.1802 35.0508 32.1316 35.0508H27.2632V13.878L33.5396 15.3133C34.4315 15.5177 35.0526 16.2988 35.0526 17.2121V32.1299ZM15.5789 12.6572C15.5789 12.1197 16.0152 11.6835 16.5526 11.6835H18.5C19.0375 11.6835 19.4737 12.1197 19.4737 12.6572C19.4737 13.1946 19.0375 13.6308 18.5 13.6308H16.5526C16.0152 13.6308 15.5789 13.1946 15.5789 12.6572ZM7.78947 12.6572C7.78947 12.1197 8.22568 11.6835 8.76316 11.6835H10.7105C11.248 11.6835 11.6842 12.1197 11.6842 12.6572C11.6842 13.1946 11.248 13.6308 10.7105 13.6308H8.76316C8.22568 13.6308 7.78947 13.1946 7.78947 12.6572ZM15.5789 18.499C15.5789 17.9615 16.0152 17.5253 16.5526 17.5253H18.5C19.0375 17.5253 19.4737 17.9615 19.4737 18.499C19.4737 19.0364 19.0375 19.4726 18.5 19.4726H16.5526C16.0152 19.4726 15.5789 19.0364 15.5789 18.499ZM7.78947 18.499C7.78947 17.9615 8.22568 17.5253 8.76316 17.5253H10.7105C11.248 17.5253 11.6842 17.9615 11.6842 18.499C11.6842 19.0364 11.248 19.4726 10.7105 19.4726H8.76316C8.22568 19.4726 7.78947 19.0364 7.78947 18.499Z" fill="url(#paint0_linear_1740_5103)"/>
<defs>
<linearGradient id="paint0_linear_1740_5103" x1="0" y1="0" x2="44.6474" y2="19.4006" gradientUnits="userSpaceOnUse">
<stop stop-color="#7FC6A4"/>
<stop offset="1" stop-color="#33658A"/>
</linearGradient>
</defs>
</svg>
