<svg width="212" height="60" viewBox="0 0 212 60" fill="none" xmlns="http://www.w3.org/2000/svg">
<path d="M39.1539 11.1845C41.8769 11.1845 44.0923 8.96915 44.0923 6.24608C44.0923 3.523 41.8769 1.30762 39.1539 1.30762C36.4308 1.30762 34.2154 3.523 34.2154 6.24608C34.2154 8.96915 36.4308 11.1845 39.1539 11.1845Z" fill="#00377A"/>
<path d="M6.24607 1.32324C3.523 1.32324 1.323 3.52324 1.323 6.2617C1.323 9.00016 3.53838 11.2002 6.26146 11.2002C8.98453 11.2002 11.1999 8.98478 11.1999 6.2617C11.1999 3.53863 8.96915 1.32324 6.24607 1.32324Z" fill="#00377A"/>
<path d="M6.24614 34.2307C3.52306 34.2307 1.30768 36.4461 1.30768 39.1692C1.30768 41.8922 3.52306 44.1076 6.24614 44.1076C8.96921 44.1076 11.1846 41.8922 11.1846 39.1692C11.1846 36.4461 8.96921 34.2307 6.24614 34.2307Z" fill="#00377A"/>
<path d="M22.7077 49.9077C19.923 49.9077 17.6615 52.1693 17.6615 54.9539C17.6615 57.7385 19.923 60 22.7077 60C25.4923 60 27.7538 57.7385 27.7538 54.9539C27.7538 52.1693 25.4923 49.9077 22.7077 49.9077Z" fill="#00377A"/>
<path d="M39.1539 34.2307C36.4308 34.2307 34.2154 36.4461 34.2154 39.1692C34.2154 41.8922 36.4308 44.1076 39.1539 44.1076C41.8769 44.1076 44.0923 41.8922 44.0923 39.1692C44.0923 36.4461 41.8769 34.2307 39.1539 34.2307Z" fill="#00377A"/>
<path d="M6.24615 16.4614C2.78461 16.4614 0 19.2614 0 22.7076C0 26.1537 2.8 28.9691 6.24615 28.9691C9.6923 28.9691 12.4923 26.1691 12.4923 22.7076C12.4923 19.246 9.6923 16.4614 6.24615 16.4614Z" fill="#FD4A5C"/>
<path d="M39.1539 16.4614C35.6923 16.4614 32.9077 19.2614 32.9077 22.7076C32.9077 26.1537 35.7077 28.9691 39.1539 28.9691C42.6 28.9691 45.4 26.1691 45.4 22.7076C45.4 19.246 42.6 16.4614 39.1539 16.4614Z" fill="#FD4A5C"/>
<path d="M22.7076 32.908C19.2461 32.908 16.4615 35.708 16.4615 39.1541C16.4615 42.6003 19.2615 45.4156 22.7076 45.4156C26.1538 45.4156 28.9538 42.6156 28.9538 39.1541C28.9538 35.6926 26.1538 32.908 22.7076 32.908Z" fill="#FD4A5C"/>
<path d="M22.7076 16.4614C19.2461 16.4614 16.4615 19.2614 16.4615 22.7076C16.4615 26.1537 19.2615 28.9691 22.7076 28.9691C26.1538 28.9691 28.9538 26.1691 28.9538 22.7076C28.9538 19.246 26.1538 16.4614 22.7076 16.4614Z" fill="#FD4A5C"/>
<path d="M22.7076 0C19.2461 0 16.4615 2.8 16.4615 6.26154C16.4615 9.72307 19.2615 12.5077 22.7076 12.5077C26.1538 12.5077 28.9538 9.70769 28.9538 6.26154C28.9538 2.81538 26.1538 0 22.7076 0Z" fill="#FD4A5C"/>
<path d="M60.2616 34.6306H65.9077V35.9998H61.7847V38.4768H65.1231V39.846H61.7847V42.2306H66.1693V43.5998H60.2616V34.6306Z" fill="#00377A"/>
<path d="M70.1693 41.6617H70.1385L68.7385 43.6001H67.1847L69.3385 40.4617L67.1847 37.4463H68.8309L70.1385 39.3847H70.1693L71.477 37.4463H73.1078L70.9693 40.4617L73.1385 43.6001H71.5693L70.1693 41.6617Z" fill="#00377A"/>
<path d="M78.5999 37.4614C78.8614 37.5384 79.0922 37.6307 79.3076 37.7691C79.523 37.9076 79.723 38.0614 79.9076 38.2614C80.0922 38.4461 80.2461 38.6614 80.3691 38.9076C80.4922 39.1384 80.5845 39.3999 80.6614 39.6922C80.723 39.9691 80.7691 40.2768 80.7691 40.5691C80.7691 40.9384 80.723 41.2922 80.6307 41.6307C80.5384 41.9538 80.3999 42.2461 80.2153 42.5076C80.0307 42.7537 79.8307 42.9845 79.5845 43.1691C79.3384 43.3538 79.0614 43.4922 78.7537 43.5845C78.4461 43.6768 78.123 43.723 77.7845 43.723C76.9537 43.723 76.3076 43.4307 75.8307 42.8614H75.8153V46.123H74.3999V37.4614H75.8153V38.1999H75.8461C76.323 37.6461 76.9691 37.3691 77.7999 37.3691C78.0768 37.3691 78.3537 37.3999 78.6153 37.4768M78.8461 41.923C79.1691 41.5691 79.3384 41.123 79.3384 40.5845C79.3384 39.9999 79.1691 39.5384 78.8307 39.1845C78.4922 38.8307 78.0768 38.6614 77.5691 38.6614C77.0614 38.6614 76.6153 38.8461 76.2768 39.2153C75.9384 39.5845 75.7691 40.0461 75.7691 40.5845C75.7691 41.123 75.9384 41.5845 76.2922 41.923C76.6307 42.2768 77.0614 42.4461 77.5691 42.4461C78.0768 42.4461 78.523 42.2768 78.8461 41.923Z" fill="#00377A"/>
<path d="M87.8307 41.0153H83.3384C83.4307 41.4461 83.6307 41.7999 83.9538 42.0461C84.2615 42.2922 84.6461 42.4153 85.1077 42.4153C85.7384 42.4153 86.2615 42.1691 86.6461 41.6922L87.6307 42.5384C87.3538 42.8922 86.9846 43.1845 86.5538 43.3845C86.123 43.5999 85.6154 43.7076 85.0307 43.7076C84.4461 43.7076 83.8923 43.5845 83.4154 43.323C82.9384 43.0614 82.5692 42.6922 82.2923 42.1999C82.0154 41.7076 81.8769 41.1538 81.8769 40.523C81.8769 40.0614 81.9538 39.6307 82.1077 39.2307C82.2615 38.8307 82.4615 38.5076 82.7384 38.2307C83 37.9538 83.323 37.7384 83.6923 37.5845C84.0615 37.4307 84.4615 37.3538 84.8769 37.3538C85.4769 37.3538 86 37.4922 86.4615 37.7538C86.923 38.0153 87.2615 38.3845 87.5077 38.8615C87.7538 39.323 87.8769 39.8614 87.8769 40.4614C87.8769 40.6922 87.8769 40.8768 87.8461 41.0153M83.9538 38.9538C83.6769 39.1691 83.4769 39.4768 83.3846 39.8768H86.4615C86.4 39.6307 86.3077 39.4153 86.1692 39.2307C86.0461 39.0461 85.8769 38.9076 85.6615 38.7999C85.4615 38.6922 85.2154 38.6461 84.9538 38.6461C84.5692 38.6461 84.2307 38.7538 83.9384 38.9691" fill="#00377A"/>
<path d="M92.8461 37.354V38.9232C92.6923 38.9232 92.5384 38.9079 92.4154 38.9079C92.0615 38.9079 91.7692 38.9848 91.5077 39.1386C91.2461 39.2925 91.0615 39.5079 90.9231 39.7694C90.8 40.0309 90.7231 40.3386 90.7231 40.6771V43.6002H89.3077V37.4309H90.7231V38.354H90.7384C90.9846 38.0309 91.2615 37.7694 91.6 37.6002C91.9384 37.4309 92.2923 37.3386 92.6615 37.3386C92.7384 37.3386 92.8 37.3386 92.8308 37.3386" fill="#00377A"/>
<path d="M94.1539 36.2462C93.9693 36.0616 93.877 35.8462 93.877 35.5847C93.877 35.3232 93.9693 35.1078 94.1539 34.9232C94.3385 34.7385 94.5693 34.6462 94.8308 34.6462C95.0923 34.6462 95.3077 34.7385 95.4923 34.9232C95.677 35.1078 95.7693 35.3232 95.7693 35.5847C95.7693 35.7539 95.7231 35.9078 95.6462 36.0462C95.5539 36.1847 95.4462 36.3078 95.2923 36.3847C95.1539 36.477 94.9846 36.5078 94.8154 36.5078C94.5539 36.5078 94.3231 36.4155 94.1385 36.2309M94.1077 37.4309H95.5231V43.6001H94.1077V37.4309Z" fill="#00377A"/>
<path d="M103.061 41.0153H98.5691C98.6614 41.4461 98.8614 41.7999 99.1845 42.0461C99.4922 42.2922 99.8768 42.4153 100.338 42.4153C100.969 42.4153 101.492 42.1691 101.877 41.6922L102.861 42.5384C102.584 42.8922 102.215 43.1845 101.784 43.3845C101.354 43.5999 100.846 43.7076 100.261 43.7076C99.6768 43.7076 99.1229 43.5845 98.646 43.323C98.1691 43.0614 97.7999 42.6922 97.5229 42.1999C97.246 41.7076 97.1075 41.1538 97.1075 40.523C97.1075 40.0614 97.1845 39.6307 97.3383 39.2307C97.4922 38.8307 97.6922 38.5076 97.9691 38.2307C98.2306 37.9538 98.5537 37.7384 98.9229 37.5845C99.2922 37.4307 99.6922 37.3538 100.108 37.3538C100.708 37.3538 101.231 37.4922 101.692 37.7538C102.154 38.0153 102.492 38.3845 102.738 38.8615C102.984 39.323 103.108 39.8614 103.108 40.4614C103.108 40.6922 103.108 40.8768 103.077 41.0153M99.1845 38.9538C98.9075 39.1691 98.7075 39.4768 98.6152 39.8768H101.692C101.631 39.6307 101.538 39.4153 101.4 39.2307C101.277 39.0461 101.108 38.9076 100.892 38.7999C100.692 38.6922 100.446 38.6461 100.184 38.6461C99.7999 38.6461 99.4614 38.7538 99.1691 38.9691" fill="#00377A"/>
<path d="M109.708 38.0002C110.108 38.4309 110.308 39.0925 110.308 39.9848V43.6155H108.892V40.354C108.892 40.0309 108.861 39.7694 108.8 39.5386C108.738 39.3232 108.646 39.1386 108.538 39.0155C108.415 38.8925 108.277 38.8002 108.123 38.7386C107.969 38.6771 107.769 38.6463 107.554 38.6463C107.308 38.6463 107.092 38.6925 106.892 38.7694C106.692 38.8463 106.523 38.9694 106.384 39.1232C106.246 39.2771 106.138 39.4771 106.061 39.7079C105.984 39.954 105.954 40.2155 105.954 40.5079V43.6002H104.538V37.4309H105.954V38.2771H105.969C106.231 37.9694 106.538 37.7386 106.892 37.5848C107.246 37.4309 107.631 37.3386 108.031 37.3386C108.738 37.3386 109.292 37.554 109.692 37.9848" fill="#00377A"/>
<path d="M113.2 43.3078C112.723 43.0463 112.354 42.6771 112.077 42.1848C111.815 41.7079 111.677 41.154 111.677 40.5232C111.677 39.8925 111.815 39.354 112.077 38.8617C112.354 38.3848 112.723 38.0002 113.215 37.7386C113.692 37.4771 114.246 37.3386 114.861 37.3386C115.354 37.3386 115.846 37.4309 116.308 37.6309C116.769 37.8309 117.154 38.1079 117.461 38.4771L116.508 39.3079C116.323 39.0925 116.092 38.9232 115.831 38.8002C115.569 38.6771 115.277 38.6155 114.954 38.6155C114.6 38.6155 114.277 38.6925 114 38.8463C113.723 39.0002 113.508 39.2309 113.354 39.5079C113.2 39.8002 113.123 40.1232 113.123 40.4925C113.123 40.8617 113.2 41.2002 113.354 41.4771C113.508 41.7694 113.723 41.9848 114 42.154C114.277 42.3078 114.6 42.3848 114.954 42.3848C115.092 42.3848 115.215 42.3848 115.354 42.354C115.477 42.3386 115.6 42.2925 115.708 42.2617C115.815 42.2155 115.923 42.1694 116.015 42.1232C116.108 42.0617 116.2 42.0002 116.292 41.9386C116.369 41.8771 116.446 41.8002 116.508 41.7232L117.477 42.5848C117.2 42.9078 116.815 43.1694 116.354 43.3694C115.892 43.5694 115.369 43.6771 114.8 43.6771C114.2 43.6771 113.661 43.5386 113.184 43.2771" fill="#00377A"/>
<path d="M124.354 41.0153H119.861C119.954 41.4461 120.154 41.7999 120.461 42.0461C120.784 42.2922 121.154 42.4153 121.615 42.4153C122.246 42.4153 122.769 42.1691 123.154 41.6922L124.138 42.5384C123.861 42.8922 123.492 43.1845 123.061 43.3845C122.631 43.5999 122.123 43.7076 121.538 43.7076C120.954 43.7076 120.4 43.5845 119.923 43.323C119.446 43.0614 119.077 42.6922 118.8 42.1999C118.523 41.7076 118.384 41.1538 118.384 40.523C118.384 40.0614 118.461 39.6307 118.615 39.2307C118.769 38.8307 118.969 38.5076 119.246 38.2307C119.507 37.9538 119.831 37.7384 120.2 37.5845C120.569 37.4307 120.969 37.3538 121.384 37.3538C121.984 37.3538 122.507 37.4922 122.969 37.7538C123.431 38.0153 123.769 38.3845 124.015 38.8615C124.261 39.323 124.384 39.8614 124.384 40.4614C124.384 40.6922 124.384 40.8768 124.354 41.0153ZM120.461 38.9538C120.169 39.1691 119.984 39.4768 119.892 39.8768H122.969C122.907 39.6307 122.815 39.4153 122.677 39.2307C122.554 39.0461 122.384 38.9076 122.169 38.7999C121.954 38.6922 121.723 38.6461 121.461 38.6461C121.061 38.6461 120.738 38.7538 120.446 38.9691" fill="#00377A"/>
<path d="M138.4 34.6306V43.5998H136.877V37.5845H136.861L134.4 41.8768H133.4L130.954 37.5845H130.938V43.5998H129.4V34.6306H130.938L133.892 39.9998H133.923L136.877 34.6306H138.4Z" fill="#00377A"/>
<path d="M146.354 37.4461V43.6153H145V42.7845H144.985C144.523 43.3999 143.862 43.7076 143.015 43.7076C142.677 43.7076 142.354 43.6614 142.046 43.5691C141.738 43.4768 141.462 43.3384 141.215 43.1538C140.969 42.9691 140.754 42.7538 140.585 42.4922C140.4 42.2461 140.262 41.9538 140.169 41.6153C140.077 41.2922 140.015 40.923 140.015 40.5538C140.015 40.0922 140.092 39.6615 140.246 39.2768C140.4 38.8768 140.6 38.5384 140.862 38.2615C141.123 37.9845 141.446 37.7691 141.8 37.5999C142.169 37.4307 142.554 37.3538 142.985 37.3538C143.785 37.3538 144.415 37.6307 144.892 38.1845H144.923V37.4461H146.338H146.354ZM144.492 41.9076C144.831 41.5538 145 41.1076 145 40.5691C145 40.0307 144.831 39.5691 144.508 39.1999C144.185 38.8307 143.754 38.6461 143.262 38.6461C143.015 38.6461 142.785 38.6922 142.569 38.7845C142.354 38.8768 142.169 38.9999 142 39.1691C141.831 39.3384 141.708 39.5384 141.615 39.7845C141.523 40.0307 141.477 40.2922 141.477 40.5845C141.477 41.123 141.646 41.5845 141.969 41.923C142.292 42.2768 142.723 42.4461 143.246 42.4461C143.738 42.4461 144.154 42.2768 144.492 41.923" fill="#00377A"/>
<path d="M153.292 38.0002C153.692 38.4309 153.892 39.0925 153.892 39.9848V43.6155H152.477V40.354C152.477 40.0309 152.446 39.7694 152.385 39.5386C152.323 39.3232 152.231 39.1386 152.123 39.0155C152 38.8925 151.862 38.8002 151.708 38.7386C151.554 38.6771 151.354 38.6463 151.138 38.6463C150.892 38.6463 150.677 38.6925 150.477 38.7694C150.277 38.8463 150.108 38.9694 149.969 39.1232C149.831 39.2771 149.723 39.4771 149.646 39.7079C149.569 39.954 149.538 40.2155 149.538 40.5079V43.6002H148.123V37.4309H149.538V38.2771H149.554C149.815 37.9694 150.123 37.7386 150.477 37.5848C150.831 37.4309 151.215 37.3386 151.615 37.3386C152.323 37.3386 152.877 37.554 153.277 37.9848" fill="#00377A"/>
<path d="M161.554 37.4461V43.6153H160.2V42.7845H160.185C159.723 43.3999 159.061 43.7076 158.215 43.7076C157.877 43.7076 157.554 43.6614 157.246 43.5691C156.938 43.4768 156.661 43.3384 156.415 43.1538C156.169 42.9691 155.954 42.7538 155.785 42.4922C155.6 42.2461 155.461 41.9538 155.369 41.6153C155.277 41.2922 155.215 40.923 155.215 40.5538C155.215 40.0922 155.292 39.6615 155.446 39.2768C155.6 38.8768 155.8 38.5384 156.061 38.2615C156.323 37.9845 156.646 37.7691 157 37.5999C157.369 37.4307 157.754 37.3538 158.185 37.3538C158.984 37.3538 159.615 37.6307 160.092 38.1845H160.123V37.4461H161.538H161.554ZM159.692 41.9076C160.031 41.5538 160.2 41.1076 160.2 40.5691C160.2 40.0307 160.031 39.5691 159.708 39.1999C159.369 38.8307 158.954 38.6461 158.461 38.6461C158.215 38.6461 157.985 38.6922 157.769 38.7845C157.554 38.8768 157.369 38.9999 157.2 39.1691C157.031 39.3384 156.908 39.5384 156.815 39.7845C156.723 40.0307 156.677 40.2922 156.677 40.5845C156.677 41.123 156.846 41.5845 157.169 41.923C157.492 42.2768 157.923 42.4461 158.446 42.4461C158.938 42.4461 159.354 42.2768 159.692 41.923" fill="#00377A"/>
<path d="M169.231 37.4461V42.9691C169.231 43.3538 169.2 43.7076 169.123 44.0307C169.046 44.3538 168.938 44.6461 168.785 44.923C168.631 45.1999 168.431 45.4307 168.185 45.6153C167.938 45.7999 167.646 45.9538 167.292 46.0614C166.938 46.1691 166.538 46.2153 166.092 46.2153C165.646 46.2153 165.185 46.1538 164.754 46.0461C164.323 45.9384 163.938 45.7845 163.585 45.5691L163.923 44.323C164.323 44.5384 164.662 44.6922 164.969 44.7845C165.277 44.8768 165.615 44.9384 166.015 44.9384C166.6 44.9384 167.046 44.7999 167.369 44.5076C167.692 44.2153 167.846 43.8614 167.846 43.4153V42.7538H167.815C167.338 43.2614 166.708 43.5076 165.954 43.5076C165.385 43.5076 164.862 43.3845 164.415 43.1384C163.954 42.8922 163.6 42.5384 163.338 42.0614C163.077 41.5999 162.938 41.0614 162.938 40.4614C162.938 39.8614 163.062 39.3384 163.308 38.8615C163.554 38.3845 163.908 38.0153 164.354 37.7538C164.8 37.4922 165.308 37.3538 165.877 37.3538C166.231 37.3538 166.585 37.4153 166.908 37.5384C167.231 37.6615 167.538 37.8461 167.785 38.0922H167.815V37.4461H169.231ZM167.4 41.6922C167.723 41.3538 167.877 40.923 167.877 40.3999C167.877 40.1384 167.831 39.9076 167.738 39.6768C167.646 39.4461 167.523 39.2768 167.369 39.123C167.215 38.9691 167.031 38.8615 166.815 38.7691C166.6 38.6922 166.369 38.6461 166.138 38.6461C165.615 38.6461 165.185 38.8153 164.862 39.1384C164.538 39.4615 164.369 39.8922 164.369 40.4153C164.369 40.9384 164.538 41.3845 164.862 41.7076C165.185 42.0307 165.615 42.1999 166.123 42.1999C166.631 42.1999 167.062 42.0307 167.385 41.6922" fill="#00377A"/>
<path d="M176.6 41.0153H172.108C172.2 41.4461 172.4 41.7999 172.723 42.0461C173.031 42.2922 173.415 42.4153 173.877 42.4153C174.508 42.4153 175.031 42.1691 175.415 41.6922L176.4 42.5384C176.123 42.8922 175.754 43.1845 175.323 43.3845C174.892 43.5999 174.385 43.7076 173.8 43.7076C173.215 43.7076 172.662 43.5845 172.185 43.323C171.708 43.0614 171.338 42.6922 171.062 42.1999C170.785 41.7076 170.646 41.1538 170.646 40.523C170.646 40.0614 170.723 39.6307 170.877 39.2307C171.031 38.8307 171.231 38.5076 171.508 38.2307C171.769 37.9538 172.092 37.7384 172.462 37.5845C172.831 37.4307 173.231 37.3538 173.646 37.3538C174.246 37.3538 174.769 37.4922 175.231 37.7538C175.692 38.0153 176.031 38.3845 176.277 38.8615C176.523 39.323 176.646 39.8614 176.646 40.4614C176.646 40.6922 176.646 40.8768 176.615 41.0153M172.723 38.9538C172.446 39.1691 172.246 39.4768 172.154 39.8768H175.246C175.185 39.6307 175.092 39.4153 174.954 39.2307C174.831 39.0461 174.662 38.9076 174.446 38.7999C174.246 38.6922 174 38.6461 173.738 38.6461C173.354 38.6461 173.015 38.7538 172.723 38.9691" fill="#00377A"/>
<path d="M187.123 38.0156C187.492 38.4617 187.677 39.1386 187.677 40.0309V43.6002H186.262V40.3848C186.262 39.2002 185.862 38.6156 185.046 38.6156C184.631 38.6156 184.292 38.7848 184.015 39.1232C183.738 39.4617 183.6 39.9232 183.6 40.5079V43.5848H182.185V40.3694C182.185 39.1848 181.769 38.6002 180.954 38.6002C180.523 38.6002 180.169 38.7694 179.892 39.1079C179.615 39.4463 179.477 39.9079 179.477 40.4925V43.5694H178.062V37.4002H179.477V38.2463H179.492C179.738 37.9386 180.031 37.7079 180.369 37.554C180.708 37.3848 181.046 37.3079 181.415 37.3079C182.277 37.3079 182.892 37.6463 183.246 38.3386H183.277C183.538 38.0002 183.862 37.754 184.231 37.5694C184.615 37.4002 185.031 37.3079 185.477 37.3079C186.169 37.3079 186.708 37.5386 187.077 37.9694" fill="#00377A"/>
<path d="M195.015 41.0153H190.523C190.615 41.4461 190.815 41.7999 191.123 42.0461C191.446 42.2922 191.815 42.4153 192.277 42.4153C192.908 42.4153 193.431 42.1691 193.815 41.6922L194.8 42.5384C194.523 42.8922 194.154 43.1845 193.723 43.3845C193.292 43.5999 192.784 43.7076 192.2 43.7076C191.615 43.7076 191.061 43.5845 190.584 43.323C190.107 43.0614 189.723 42.6922 189.461 42.1999C189.184 41.7076 189.046 41.1538 189.046 40.523C189.046 40.0614 189.123 39.6307 189.277 39.2307C189.431 38.8307 189.631 38.5076 189.908 38.2307C190.169 37.9538 190.492 37.7384 190.861 37.5845C191.231 37.4307 191.631 37.3538 192.046 37.3538C192.646 37.3538 193.169 37.4922 193.631 37.7538C194.092 38.0153 194.431 38.3845 194.677 38.8615C194.923 39.323 195.046 39.8614 195.046 40.4614C195.046 40.6922 195.046 40.8768 195.015 41.0153ZM191.123 38.9538C190.831 39.1691 190.646 39.4768 190.554 39.8768H193.631C193.569 39.6307 193.477 39.4153 193.338 39.2307C193.215 39.0461 193.046 38.9076 192.831 38.7999C192.615 38.6922 192.384 38.6461 192.123 38.6461C191.738 38.6461 191.4 38.7538 191.108 38.9691" fill="#00377A"/>
<path d="M201.677 38.0002C202.077 38.4309 202.277 39.0925 202.277 39.9848V43.6155H200.861V40.354C200.861 40.0309 200.831 39.7694 200.769 39.5386C200.707 39.3232 200.615 39.1386 200.507 39.0155C200.384 38.8925 200.246 38.8002 200.092 38.7386C199.938 38.6771 199.738 38.6463 199.523 38.6463C199.277 38.6463 199.061 38.6925 198.877 38.7694C198.677 38.8463 198.507 38.9694 198.369 39.1232C198.231 39.2771 198.123 39.4771 198.046 39.7079C197.969 39.954 197.923 40.2155 197.923 40.5079V43.6002H196.507V37.4309H197.923V38.2771H197.938C198.2 37.9694 198.507 37.7386 198.861 37.5848C199.215 37.4309 199.6 37.3386 200 37.3386C200.707 37.3386 201.261 37.554 201.661 37.9848" fill="#00377A"/>
<path d="M204.569 43.1846C204.261 42.8461 204.107 42.323 204.107 41.6615V38.6461H203.354V37.4461H204.107V35.3999L205.523 35.2461V37.4461H207.338V38.6461H205.523V41.523C205.523 41.8307 205.569 42.0461 205.661 42.1846C205.754 42.3076 205.907 42.3846 206.107 42.3846C206.384 42.3846 206.692 42.2922 207.015 42.123L207.384 43.3384C207.169 43.4615 206.938 43.5538 206.707 43.6153C206.477 43.6769 206.184 43.7076 205.815 43.7076C205.277 43.7076 204.846 43.5384 204.554 43.1846" fill="#00377A"/>
<path d="M69.0615 29.8769C67.6461 29.4769 66.3384 28.8769 65.1538 28.0615C63.9692 27.2461 62.923 26.2769 62.0461 25.123C61.1692 23.9846 60.4769 22.6154 59.9846 21.0461C59.4923 19.4769 59.2461 17.7692 59.2461 15.923C59.2461 14.2769 59.4461 12.7077 59.8307 11.2154C60.2153 9.72305 60.8153 8.36921 61.6153 7.13844C62.4153 5.90767 63.3846 4.84613 64.5076 3.93844C65.6461 3.03075 66.9692 2.33844 68.5076 1.83075C70.0461 1.32306 71.723 1.0769 73.523 1.0769C74.8922 1.0769 76.2153 1.26152 77.5076 1.63075C78.7845 1.99998 80.0615 2.59998 81.3076 3.44613C82.5538 4.2769 83.6922 5.33844 84.6922 6.59998L82.923 8.06152C81.6922 6.53844 80.2615 5.36921 78.6307 4.56921C77.0153 3.76921 75.3076 3.36921 73.523 3.36921C71.7384 3.36921 69.9999 3.69229 68.5076 4.32306C67.0153 4.96921 65.7692 5.84613 64.7846 6.95382C63.7846 8.0769 63.0307 9.39998 62.4922 10.9384C61.9538 12.4769 61.6922 14.1384 61.6922 15.9384C61.6922 17.8307 61.9999 19.5538 62.6153 21.1077C63.2307 22.6615 64.0615 23.9538 65.123 24.9846C66.1846 26.0154 67.4461 26.8154 68.8922 27.3692C70.3384 27.923 71.8922 28.2 73.5538 28.2C77.2769 28.2 80.4153 26.6461 82.9538 23.5538L84.723 25.0154C81.8153 28.6615 78.0769 30.4769 73.5384 30.4769C71.9692 30.4769 70.4769 30.2769 69.0615 29.8769Z" fill="#00377A"/>
<path d="M105.815 10.4461V30.3076H103.754V26.4922H103.692C102.892 27.7538 101.846 28.7384 100.554 29.4461C99.2615 30.1538 97.7846 30.5076 96.123 30.5076C94.7846 30.5076 93.5384 30.2615 92.3538 29.7845C91.1692 29.3076 90.1384 28.6461 89.2615 27.7845C88.3846 26.9384 87.6923 25.8769 87.1692 24.6307C86.6615 23.3845 86.4 22.0153 86.4 20.5384C86.4 18.6153 86.8 16.8769 87.6153 15.323C88.4307 13.7538 89.5692 12.523 91.0461 11.6153C92.523 10.7076 94.1846 10.2461 96.0307 10.2461C97.5846 10.2461 99.0307 10.5999 100.338 11.323C101.661 12.0461 102.723 13.0461 103.554 14.3384H103.631V10.4461H105.785H105.815ZM99.123 27.8922C100.031 27.5076 100.815 26.9692 101.492 26.2922C102.169 25.6153 102.708 24.7845 103.123 23.7845C103.523 22.7999 103.723 21.723 103.723 20.5538C103.723 19.0307 103.415 17.6461 102.769 16.3999C102.138 15.1384 101.246 14.1384 100.108 13.3999C98.9692 12.6615 97.6923 12.2922 96.2615 12.2922C95.2153 12.2922 94.2153 12.4922 93.2923 12.8769C92.3538 13.2769 91.5538 13.8153 90.8461 14.523C90.1538 15.2307 89.6 16.1076 89.1846 17.1538C88.7846 18.1999 88.5692 19.3384 88.5692 20.5538C88.5692 22.0307 88.8923 23.3692 89.523 24.5692C90.1692 25.7692 91.0615 26.723 92.2461 27.4153C93.4153 28.1076 94.7538 28.4461 96.2307 28.4461C97.2307 28.4461 98.1846 28.2615 99.0923 27.8615" fill="#00377A"/>
<path d="M120.646 10.2769V12.6769C120.031 12.6153 119.615 12.5999 119.384 12.5999C117.369 12.5999 115.769 13.3384 114.554 14.8307C113.338 16.3076 112.738 18.2307 112.738 20.5845V30.323H110.584V10.4461H112.738V14.2153H112.831C113.569 12.9538 114.508 11.9692 115.677 11.2769C116.846 10.5846 118.138 10.2461 119.584 10.2461C120.061 10.2461 120.415 10.2461 120.646 10.2615" fill="#00377A"/>
<path d="M140.754 20.9076H124.769C124.877 23.1538 125.615 24.9845 127 26.3692C128.385 27.7692 130.108 28.4615 132.185 28.4615C133.492 28.4615 134.677 28.1999 135.723 27.6615C136.785 27.123 137.677 26.3999 138.431 25.4615L139.969 26.7845C139.092 27.9384 138 28.8461 136.692 29.5076C135.385 30.1692 133.892 30.4922 132.215 30.4922C130.861 30.4922 129.585 30.2461 128.4 29.7538C127.2 29.2615 126.185 28.5692 125.323 27.6922C124.461 26.8153 123.785 25.7384 123.292 24.4769C122.8 23.2153 122.554 21.8461 122.554 20.3692C122.554 18.8922 122.8 17.5384 123.277 16.2769C123.769 15.0153 124.415 13.9384 125.261 13.0615C126.092 12.1846 127.077 11.4922 128.215 10.9999C129.354 10.5076 130.569 10.2461 131.861 10.2461C133.631 10.2461 135.2 10.6615 136.569 11.4922C137.938 12.323 138.985 13.4615 139.723 14.923C140.461 16.3692 140.815 18.0153 140.815 19.8307C140.815 20.4153 140.8 20.7692 140.754 20.8922M128.692 13.0922C127.677 13.6307 126.831 14.3999 126.154 15.4153C125.477 16.4153 125.046 17.5846 124.861 18.8922H138.677C138.538 17.5846 138.169 16.4307 137.6 15.4461C137.031 14.4461 136.261 13.6769 135.308 13.123C134.354 12.5692 133.261 12.2922 132.046 12.2922C130.831 12.2922 129.723 12.5538 128.708 13.0922" fill="#00377A"/>
<path d="M146.369 20.6002C145.861 20.0925 145.6 19.4925 145.6 18.7848C145.6 18.3233 145.708 17.8925 145.954 17.4925C146.184 17.0925 146.508 16.7694 146.908 16.5387C147.308 16.3079 147.754 16.1848 148.246 16.1848C148.954 16.1848 149.569 16.4464 150.092 16.954C150.6 17.4617 150.861 18.0771 150.861 18.7848C150.861 19.4925 150.6 20.1079 150.092 20.6002C149.584 21.1079 148.969 21.354 148.246 21.354C147.523 21.354 146.892 21.1079 146.369 20.6002Z" fill="#FD4A5C"/>
<path d="M163.123 18.6307H163.061L155.062 30.3076H150.846L160.738 15.7999L150.969 1.27686H155.077L163.046 13.0153H163.123L171.046 1.27686H175.169L165.415 15.8153L175.323 30.3076H171.108L163.123 18.6307Z" fill="#00377A"/>
<path d="M207.323 1.27686V30.3076H203.769V8.06147H203.723L194.261 24.4615H191.846L182.384 8.06147H182.323V30.3076H178.769V1.27686H182.338L193 20.0461H193.123L203.754 1.27686H207.323Z" fill="#00377A"/>
<path d="M209.077 1.36919H208.538V1.16919H209.846V1.36919H209.292V2.96919H209.077V1.36919Z" fill="#00377A"/>
<path d="M210.138 1.16919H210.369L211.031 2.33842L211.692 1.16919H211.923V2.96919H211.692V1.59996L211.108 2.59996H210.954L210.369 1.59996V2.96919H210.138V1.16919Z" fill="#00377A"/>
</svg>
