<svg width="93" height="64" viewBox="0 0 93 64" fill="none" xmlns="http://www.w3.org/2000/svg">
<g id="device_management">
<path id="shape" d="M45.385 13.1499C45.535 12.6699 45.645 12.1799 45.645 11.6499H54.645C54.645 12.1799 54.745 12.6699 54.905 13.1499H45.395H45.385ZM51.285 58.2899C51.285 59.1699 50.565 59.8899 49.685 59.8899C48.805 59.8899 48.085 59.1699 48.085 58.2899C48.085 57.4099 48.805 56.6899 49.685 56.6899C50.565 56.6899 51.285 57.4099 51.285 58.2899ZM84.365 22.9499H81.095C80.685 22.9499 80.345 23.2899 80.345 23.6999C80.345 24.1099 80.685 24.4499 81.095 24.4499H84.365C84.775 24.4499 85.115 24.1099 85.115 23.6999C85.115 23.2899 84.775 22.9499 84.365 22.9499ZM92.365 24.2999V58.9499C92.365 61.1399 90.325 62.1599 88.945 62.1599H87.815C87.855 61.9099 87.895 61.6699 87.895 61.4099C87.895 61.1499 87.855 60.9099 87.815 60.6599H88.945C89.615 60.6599 90.865 60.1599 90.865 58.9499V28.4099C90.865 27.4599 90.105 26.7199 89.135 26.7199H75.815C74.805 26.7199 74.145 27.3899 74.145 28.4099V58.7399C74.145 59.7799 75.205 60.6599 76.085 60.6599H77.975C77.935 60.9099 77.895 61.1499 77.895 61.4099C77.895 61.6699 77.935 61.9099 77.975 62.1599H76.085C74.285 62.1599 72.645 60.5299 72.645 58.7399V54.1299H69.145V56.5399C69.145 59.7099 66.565 62.2899 63.395 62.2899H36.395C33.225 62.2899 30.645 59.7099 30.645 56.5399V54.1299H12.305C6.55501 54.1299 2.75501 52.3699 1.00501 51.3299C0.77501 51.1899 0.63501 50.9499 0.63501 50.6899V49.9799C0.63501 49.5699 0.97501 49.2299 1.38501 49.2299H8.85501C8.15501 48.4499 7.73501 47.4199 7.73501 46.2899V5.0599C7.73501 2.6299 9.71501 0.649902 12.145 0.649902H77.165C79.595 0.649902 81.575 2.6299 81.575 5.0599V20.6499H88.675C90.415 20.6499 92.355 22.2099 92.355 24.2999H92.365ZM72.645 47.8299H69.145V52.6199H72.645V47.8299ZM76.255 20.6499H76.635V6.1999H12.715V46.3299H15.465C15.435 46.5499 15.395 46.7699 15.395 46.9999C15.395 47.2799 15.435 47.5599 15.475 47.8299H11.955C11.545 47.8299 11.205 47.4899 11.205 47.0799V5.4499C11.205 5.0399 11.545 4.6999 11.955 4.6999H77.375C77.785 4.6999 78.125 5.0399 78.125 5.4499V20.6499H80.085V5.0599C80.085 3.4499 78.775 2.1499 77.175 2.1499H12.155C10.545 2.1499 9.24501 3.4599 9.24501 5.0599V46.2699C9.24501 47.8799 10.555 49.1799 12.155 49.1799H12.555C12.965 49.1799 13.305 49.5199 13.305 49.9299C13.305 50.2399 13.115 50.5099 12.845 50.6199C12.745 50.6699 12.625 50.6999 12.505 50.6999H3.06501C4.97501 51.5999 8.05501 52.6099 12.305 52.6099H30.645V47.8199H25.315C25.365 47.5499 25.395 47.2799 25.395 46.9899C25.395 46.7599 25.355 46.5399 25.325 46.3199H30.645V17.3899C30.645 14.4699 32.835 12.0599 35.655 11.6899C35.655 12.2099 35.765 12.7099 35.925 13.1799C33.805 13.4199 32.155 15.1999 32.155 17.3799V56.5099C32.155 58.8499 34.065 60.7599 36.405 60.7599H63.405C65.745 60.7599 67.655 58.8499 67.655 56.5099V53.4299C67.655 53.4299 67.655 53.3799 67.655 53.3499C67.655 53.3199 67.655 53.2999 67.655 53.2699V17.3999C67.655 15.3899 66.245 13.6999 64.365 13.2699C64.525 12.7999 64.625 12.3099 64.645 11.7899C67.225 12.3599 69.155 14.6599 69.155 17.3999V46.3299H72.655V24.2999C72.655 22.1199 74.525 20.6499 76.265 20.6499H76.255ZM90.865 24.2999C90.865 23.1099 89.675 22.1499 88.685 22.1499H76.255C75.235 22.1499 74.145 23.0099 74.145 24.2999V25.6399C74.625 25.3599 75.185 25.2099 75.815 25.2099H89.135C89.775 25.2099 90.365 25.3899 90.865 25.6899V24.2999ZM34.785 17.0999H65.015C65.975 17.0999 66.765 17.8899 66.765 18.8499V53.9699C66.765 54.9299 65.975 55.7199 65.015 55.7199H34.785C33.825 55.7199 33.035 54.9299 33.035 53.9699V18.8399C33.035 17.8799 33.825 17.0899 34.785 17.0899V17.0999ZM65.015 18.5999H34.785C34.645 18.5999 34.535 18.7099 34.535 18.8499V53.9699C34.535 54.1099 34.645 54.2199 34.785 54.2199H65.015C65.155 54.2199 65.265 54.1099 65.265 53.9699V18.8399C65.265 18.6999 65.155 18.5899 65.015 18.5899V18.5999Z" fill="black"/>
<path id="dot" d="M20.395 49.5C21.7757 49.5 22.895 48.3807 22.895 47C22.895 45.6193 21.7757 44.5 20.395 44.5C19.0143 44.5 17.895 45.6193 17.895 47C17.895 48.3807 19.0143 49.5 20.395 49.5Z" fill="#34658A"/>
<path id="dot-2" d="M40.645 14.1499C42.0257 14.1499 43.145 13.0306 43.145 11.6499C43.145 10.2692 42.0257 9.1499 40.645 9.1499C39.2643 9.1499 38.145 10.2692 38.145 11.6499C38.145 13.0306 39.2643 14.1499 40.645 14.1499Z" fill="#34658A"/>
<path id="dot-3" d="M59.645 14.1499C61.0257 14.1499 62.145 13.0306 62.145 11.6499C62.145 10.2692 61.0257 9.1499 59.645 9.1499C58.2643 9.1499 57.145 10.2692 57.145 11.6499C57.145 13.0306 58.2643 14.1499 59.645 14.1499Z" fill="#34658A"/>
<path id="dot-4" d="M82.895 63.8999C84.2757 63.8999 85.395 62.7806 85.395 61.3999C85.395 60.0192 84.2757 58.8999 82.895 58.8999C81.5143 58.8999 80.395 60.0192 80.395 61.3999C80.395 62.7806 81.5143 63.8999 82.895 63.8999Z" fill="#34658A"/>
</g>
</svg>
