<svg width="89" height="83" viewBox="0 0 89 83" fill="none" xmlns="http://www.w3.org/2000/svg">
<g id="diagnostics">
<path id="shape" d="M19.3961 65.5998C19.3061 65.4698 19.1661 65.3598 18.9961 65.3098C18.3861 65.1298 17.6161 65.0098 16.4861 64.9298C16.4061 64.7198 16.3261 64.5098 16.2261 64.3098C16.9861 63.4298 17.4361 62.8298 17.7361 62.2698C17.8361 62.0798 17.8461 61.8598 17.7761 61.6698C17.7561 61.6098 17.7261 61.5498 17.6861 61.4898C17.4461 61.1298 17.1761 60.7998 16.8661 60.4898C16.5561 60.1798 16.2161 59.9098 15.8561 59.6698C15.7361 59.5898 15.5961 59.5498 15.4661 59.5498C15.3361 59.5498 15.2061 59.5698 15.0861 59.6398C14.5261 59.9398 13.8961 60.3998 13.0461 61.1398C12.8361 61.0398 12.6261 60.9498 12.4061 60.8798C12.3261 59.7598 12.2161 59.0298 12.0461 58.4398C11.9861 58.1498 11.7661 57.9198 11.4561 57.8598C10.6061 57.6898 9.71606 57.6898 8.88606 57.8598C8.62606 57.9098 8.42606 58.0898 8.33606 58.3198C8.33606 58.3398 8.31606 58.3698 8.31606 58.3898C8.10606 59.0898 8.00606 60.0098 7.94606 60.8798C7.72606 60.9598 7.50606 61.0498 7.29606 61.1498C6.44606 60.4098 5.85606 59.9798 5.31606 59.6798C5.07607 59.5198 4.74606 59.5098 4.48606 59.6798C4.12606 59.9198 3.78606 60.1898 3.48606 60.4998C3.17606 60.8098 2.90606 61.1398 2.66606 61.4998C2.52606 61.7098 2.50606 61.9698 2.59606 62.1898C2.60606 62.2198 2.62606 62.2498 2.63606 62.2798C2.98606 62.9198 3.56606 63.6398 4.13606 64.2998C4.03606 64.5098 3.94606 64.7298 3.86606 64.9498C2.99606 65.0098 2.12606 65.1098 1.42606 65.3198C1.14606 65.3798 0.916064 65.5998 0.846064 65.8998C0.756064 66.3198 0.716064 66.7498 0.716064 67.1898C0.716064 67.6298 0.756064 68.0598 0.846064 68.4798C0.896064 68.7298 1.07606 68.9298 1.29606 69.0198C1.32606 69.0298 1.35606 69.0398 1.38606 69.0498C2.08606 69.2598 2.99606 69.3598 3.86606 69.4198C3.94606 69.6398 4.03606 69.8598 4.13606 70.0698C3.58606 70.7098 3.02606 71.3998 2.67606 72.0398C2.51606 72.2798 2.50606 72.6098 2.67606 72.8698C2.91606 73.2298 3.18606 73.5698 3.49606 73.8698C3.80606 74.1798 4.13606 74.4498 4.49606 74.6898C4.70606 74.8198 4.94606 74.8498 5.16606 74.7698C5.20606 74.7598 5.24606 74.7398 5.28606 74.7198C5.92606 74.3698 6.64606 73.7898 7.30606 73.2198C7.51606 73.3198 7.72606 73.4098 7.94606 73.4798C8.00606 74.3798 8.10606 75.2698 8.32606 75.9798C8.38606 76.1898 8.53606 76.3498 8.71606 76.4398C8.77606 76.4698 8.83607 76.4898 8.90606 76.5098C9.32607 76.5898 9.75606 76.6398 10.1861 76.6398C10.6161 76.6398 11.0361 76.5998 11.4561 76.5098C11.7261 76.4598 11.9561 76.2698 12.0461 75.9898C12.2361 75.3798 12.3461 74.6098 12.4261 73.4798C12.6361 73.3998 12.8461 73.3198 13.0461 73.2198C13.7261 73.8098 14.4261 74.3698 15.0861 74.7298C15.2861 74.8298 15.5061 74.8398 15.6961 74.7698C15.7561 74.7498 15.8161 74.7198 15.8661 74.6798C16.2261 74.4398 16.5661 74.1698 16.8661 73.8698C17.1761 73.5598 17.4461 73.2198 17.6861 72.8598C17.6961 72.8398 17.7161 72.8198 17.7261 72.7998C17.7561 72.7498 17.7761 72.6998 17.7861 72.6498C17.8361 72.4698 17.8261 72.2698 17.7261 72.0898C17.4261 71.5298 16.9661 70.8998 16.2161 70.0398C16.3161 69.8398 16.3961 69.6298 16.4761 69.4198C17.3761 69.3598 18.2661 69.2598 18.9861 69.0398C19.1961 68.9798 19.3561 68.8298 19.4461 68.6398C19.4761 68.5798 19.4961 68.5198 19.5061 68.4498C19.5961 68.0298 19.6361 67.5998 19.6361 67.1698C19.6361 66.7398 19.5961 66.2998 19.5061 65.8798C19.4861 65.7798 19.4461 65.6798 19.3861 65.5998H19.3961ZM18.1161 67.7198C17.4861 67.8498 16.7061 67.9098 15.9961 67.9498C15.6261 67.9198 15.2961 68.1398 15.1961 68.5098C15.0761 68.9598 14.8961 69.3898 14.6561 69.7998C14.4561 70.1398 14.5561 70.5698 14.8661 70.7898C15.4661 71.4598 15.8861 71.9798 16.1661 72.4198C16.0561 72.5598 15.9361 72.6898 15.8061 72.8198C15.6761 72.9498 15.5461 73.0698 15.3961 73.1798C14.8561 72.8198 14.2661 72.3098 13.7261 71.8398C13.4961 71.5698 13.0961 71.4898 12.7761 71.6798C12.3761 71.9098 11.9361 72.0898 11.4861 72.2098C11.1061 72.3098 10.8761 72.6798 10.9361 73.0598C10.8861 73.9598 10.8061 74.6198 10.7061 75.1198C10.3461 75.1598 9.98606 75.1598 9.62606 75.1198C9.49606 74.4898 9.43606 73.6998 9.39606 72.9798C9.41607 72.6298 9.19606 72.2998 8.83606 72.1998C8.38606 72.0798 7.95606 71.8998 7.54606 71.6598C7.22606 71.4698 6.81606 71.5498 6.58606 71.8298C6.07607 72.2798 5.46606 72.7998 4.92606 73.1598C4.78606 73.0498 4.65606 72.9298 4.52606 72.7998C4.40606 72.6798 4.28606 72.5498 4.17606 72.4098C4.53606 71.8598 5.05606 71.2598 5.53606 70.7098C5.57606 70.6698 5.60606 70.6198 5.63606 70.5698C5.78606 70.3398 5.80606 70.0298 5.66606 69.7798C5.43606 69.3798 5.25606 68.9498 5.13606 68.4998C5.04606 68.1598 4.72606 67.9298 4.38606 67.9398C3.65606 67.8998 2.85606 67.8298 2.22606 67.7098C2.20606 67.5298 2.19606 67.3498 2.19606 67.1798C2.19606 67.0098 2.19606 66.8298 2.22606 66.6498C2.86606 66.5198 3.66606 66.4498 4.38606 66.4098C4.43606 66.4098 4.48606 66.3998 4.53606 66.3798C4.81606 66.3298 5.05606 66.1298 5.13606 65.8298C5.25606 65.3798 5.43606 64.9498 5.66606 64.5498C5.84606 64.2498 5.78606 63.8798 5.54606 63.6398C5.54606 63.6398 5.54606 63.6298 5.53606 63.6198C5.05606 63.0798 4.53606 62.4698 4.17606 61.9298C4.28606 61.7898 4.40606 61.6598 4.53606 61.5298C4.66606 61.3998 4.78606 61.2898 4.92606 61.1798C5.47606 61.5398 6.07606 62.0598 6.62606 62.5398C6.65606 62.5698 6.69606 62.5898 6.72606 62.6198C6.95606 62.7998 7.28606 62.8298 7.55606 62.6698C7.95606 62.4398 8.38606 62.2598 8.83606 62.1398C9.17606 62.0498 9.39606 61.7498 9.39606 61.4198V61.3998C9.43606 60.6698 9.50606 59.8698 9.62606 59.2398C9.97606 59.1998 10.3361 59.1998 10.6861 59.2398C10.8161 59.8798 10.8761 60.6798 10.9261 61.3998C10.9261 61.4398 10.9261 61.4798 10.9461 61.5198C10.9861 61.8098 11.1961 62.0698 11.4961 62.1498C11.9361 62.2698 12.3761 62.4498 12.7761 62.6798C13.1061 62.8698 13.5061 62.7898 13.7361 62.4998C14.4261 61.8898 14.9561 61.4598 15.3961 61.1698C15.5361 61.2798 15.6661 61.3998 15.7961 61.5298C15.9261 61.6598 16.0461 61.7898 16.1561 61.9398C15.8061 62.4698 15.3061 63.0598 14.8261 63.5898C14.5361 63.8198 14.4561 64.2298 14.6461 64.5498C14.8761 64.9498 15.0561 65.3898 15.1761 65.8398C15.2761 66.2198 15.6361 66.4398 16.0161 66.3898C16.9261 66.4398 17.5861 66.5198 18.0961 66.6198C18.1161 66.7998 18.1261 66.9798 18.1261 67.1598C18.1261 67.3398 18.1161 67.5198 18.0961 67.6998L18.1161 67.7198ZM65.3861 11.7798C65.3861 11.7798 65.4761 11.8198 65.5161 11.8298C66.2261 12.0398 67.1661 12.1398 68.0561 12.2098C68.1361 12.4398 68.2361 12.6698 68.3361 12.8898C67.7761 13.5398 67.1961 14.2598 66.8361 14.9098C66.6761 15.1498 66.6661 15.4798 66.8361 15.7398C67.0761 16.1098 67.3561 16.4498 67.6661 16.7598C67.9761 17.0698 68.3261 17.3498 68.6861 17.5898C68.8861 17.7198 69.1361 17.7498 69.3461 17.6698C69.3861 17.6598 69.4261 17.6398 69.4661 17.6198C70.0161 17.3298 70.6461 16.8598 71.5261 16.0898C71.7461 16.1898 71.9661 16.2898 72.1861 16.3698C72.2661 17.5498 72.3761 18.3098 72.5661 18.9298C72.6261 19.1398 72.7861 19.3098 72.9761 19.3898C73.0361 19.4198 73.0961 19.4398 73.1561 19.4498C73.5761 19.5398 74.0161 19.5798 74.4561 19.5798C74.8961 19.5798 75.3461 19.5398 75.7761 19.4498C75.9261 19.4198 76.0461 19.3498 76.1461 19.2498C76.2361 19.1598 76.3061 19.0498 76.3461 18.9298C76.5361 18.3098 76.6561 17.5198 76.7361 16.3698C76.9561 16.2898 77.1761 16.1998 77.3861 16.0998C78.2761 16.8798 78.8961 17.3398 79.4661 17.6398C79.6661 17.7398 79.8861 17.7498 80.0761 17.6798C80.1361 17.6598 80.1961 17.6298 80.2561 17.5898C80.6161 17.3498 80.9661 17.0698 81.2661 16.7598C81.5661 16.4498 81.8561 16.0998 82.1061 15.7298C82.1861 15.6098 82.2261 15.4698 82.2261 15.3398C82.2261 15.2098 82.2061 15.0798 82.1361 14.9598C81.8261 14.3898 81.3561 13.7498 80.5961 12.8698C80.6961 12.6598 80.7861 12.4398 80.8661 12.2198C81.7861 12.1598 82.6961 12.0598 83.4261 11.8398C83.6361 11.7798 83.7961 11.6298 83.8761 11.4498C83.9061 11.3898 83.9361 11.3198 83.9461 11.2498C84.0361 10.8198 84.0761 10.3798 84.0761 9.94977C84.0761 9.51977 84.0361 9.06977 83.9461 8.62977C83.9261 8.52977 83.8861 8.42977 83.8261 8.34977C83.7361 8.21977 83.5961 8.10977 83.4261 8.05977C82.8061 7.86977 82.0261 7.74977 80.8561 7.66977C80.7761 7.44977 80.6861 7.22977 80.5861 7.01977C81.1961 6.32977 81.7661 5.60977 82.1261 4.93977C82.2261 4.74977 82.2361 4.53977 82.1761 4.34977C82.1561 4.27977 82.1261 4.21977 82.0861 4.14977C81.8461 3.78977 81.5661 3.44977 81.2561 3.12977C80.9461 2.81977 80.5961 2.53977 80.2261 2.29977C80.1061 2.21977 79.9661 2.17977 79.8361 2.17977C79.7161 2.17977 79.5761 2.19977 79.4661 2.26977C78.8961 2.57977 78.2561 3.04977 77.3761 3.80977C77.1561 3.70977 76.9361 3.60977 76.7061 3.52977C76.6261 2.37977 76.5161 1.62977 76.3361 1.02977C76.2761 0.749766 76.0561 0.509766 75.7561 0.449766C74.8961 0.279766 73.9961 0.279766 73.1361 0.449766C72.8861 0.499766 72.6861 0.669766 72.5961 0.899766C72.5861 0.929766 72.5761 0.959766 72.5661 0.989766C72.3561 1.69977 72.2561 2.63977 72.1861 3.52977C71.9561 3.60977 71.7261 3.69977 71.5061 3.80977C70.8361 3.22977 70.1361 2.66977 69.4861 2.31977C69.2461 2.15977 68.9161 2.14977 68.6561 2.31977C68.2861 2.55977 67.9461 2.83977 67.6361 3.14977C67.3261 3.45977 67.0461 3.80977 66.8061 4.16977C66.6561 4.38977 66.6461 4.65977 66.7461 4.88977C66.7461 4.90977 66.7661 4.92977 66.7761 4.95977C67.1261 5.61977 67.7261 6.34977 68.3061 7.01977C68.1961 7.23977 68.1061 7.46977 68.0261 7.69977C66.8761 7.77977 66.1361 7.88977 65.5361 8.06977C65.2561 8.12977 65.0161 8.34977 64.9561 8.64977C64.8661 9.07977 64.8261 9.51977 64.8261 9.94977C64.8261 10.3798 64.8661 10.8298 64.9561 11.2598C65.0061 11.4998 65.1561 11.6798 65.3561 11.7798H65.3861ZM66.3861 9.39977C67.0361 9.25977 67.8561 9.19977 68.5961 9.15977C68.6461 9.15977 68.6961 9.14977 68.7461 9.13977C69.0261 9.08977 69.2661 8.88977 69.3461 8.58977C69.4661 8.12977 69.6461 7.68977 69.8861 7.27977C70.0661 6.97977 70.0061 6.59977 69.7661 6.36977C69.7661 6.36977 69.7661 6.36977 69.7561 6.35977C69.2861 5.82977 68.7361 5.18977 68.3561 4.61977C68.4761 4.47977 68.5961 4.33977 68.7261 4.20977C68.8561 4.07977 68.9961 3.95977 69.1361 3.83977C69.6961 4.20977 70.3161 4.73977 70.8761 5.22977C70.9061 5.25977 70.9461 5.27977 70.9761 5.30977C71.2161 5.48977 71.5361 5.51977 71.8061 5.35977C72.2161 5.11977 72.6561 4.93977 73.1161 4.81977C73.4561 4.72977 73.6761 4.42977 73.6761 4.08977V4.06977C73.7161 3.36977 73.7861 2.51977 73.9161 1.85977C74.2761 1.81977 74.6561 1.81977 75.0161 1.85977C75.1561 2.50977 75.2161 3.32977 75.2561 4.06977C75.2561 4.10977 75.2561 4.14977 75.2761 4.18977C75.3161 4.47977 75.5261 4.73977 75.8261 4.81977C76.2861 4.93977 76.7261 5.11977 77.1261 5.35977C77.4561 5.54977 77.8661 5.46977 78.0861 5.17977C78.7961 4.54977 79.3361 4.11977 79.7861 3.81977C79.9361 3.93977 80.0761 4.05977 80.2061 4.18977C80.3361 4.31977 80.4661 4.46977 80.5861 4.60977C80.2261 5.14977 79.7161 5.75977 79.2261 6.29977C78.9361 6.52977 78.8561 6.93977 79.0461 7.26977C79.2861 7.67977 79.4661 8.11977 79.5861 8.58977C79.6861 8.96977 80.0461 9.19977 80.4261 9.13977C81.3561 9.18977 82.0361 9.26977 82.5561 9.37977C82.5761 9.56977 82.5861 9.74977 82.5861 9.93977C82.5861 10.1298 82.5761 10.3198 82.5561 10.5098C81.9161 10.6398 81.1161 10.6998 80.3861 10.7498C80.0261 10.6998 79.6761 10.9398 79.5861 11.2998C79.4661 11.7598 79.2761 12.1998 79.0361 12.6098C78.8361 12.9498 78.9361 13.3798 79.2461 13.5998C79.8561 14.2898 80.2861 14.8298 80.5761 15.2698C80.4561 15.4198 80.3361 15.5598 80.2061 15.6898C80.0761 15.8198 79.9361 15.9498 79.7861 16.0698C79.2361 15.7098 78.6261 15.1798 78.0761 14.6898C77.8461 14.4198 77.4461 14.3498 77.1261 14.5298C76.7161 14.7698 76.2761 14.9498 75.8061 15.0698C75.4261 15.1698 75.1961 15.5398 75.2561 15.9198C75.2061 16.8398 75.1261 17.5198 75.0161 18.0398C74.6461 18.0798 74.2661 18.0798 73.8861 18.0398C73.7561 17.3898 73.6961 16.5898 73.6461 15.8498C73.6661 15.4998 73.4461 15.1698 73.0861 15.0698C72.6261 14.9498 72.1861 14.7598 71.7661 14.5198C71.4461 14.3298 71.0361 14.4098 70.8061 14.6898C70.2861 15.1498 69.6561 15.6898 69.1061 16.0598C68.9661 15.9398 68.8261 15.8198 68.6961 15.6898C68.5661 15.5598 68.4461 15.4198 68.3261 15.2798C68.6961 14.7198 69.2261 14.0998 69.7161 13.5398C69.7561 13.4898 69.7861 13.4498 69.8161 13.3898C69.9661 13.1598 69.9861 12.8498 69.8361 12.5998C69.5961 12.1898 69.4161 11.7498 69.2961 11.2898C69.2061 10.9398 68.8761 10.6998 68.5361 10.7298C67.8361 10.6898 66.9961 10.6198 66.3361 10.4898C66.3161 10.3098 66.3061 10.1198 66.3061 9.93977C66.3061 9.75977 66.3161 9.56977 66.3361 9.38977L66.3861 9.39977ZM52.7161 28.9298C52.6761 28.7498 52.5861 28.5998 52.4561 28.4998C52.3861 28.4398 52.2961 28.3898 52.1961 28.3598C51.0561 28.0098 49.5661 27.7998 47.2961 27.6598C47.0961 27.0298 46.8461 26.4098 46.5361 25.8198C47.6961 24.5098 48.8261 23.1398 49.4961 21.8798C49.5961 21.6798 49.6061 21.4598 49.5361 21.2698C49.5161 21.1998 49.4861 21.1398 49.4461 21.0698C49.0361 20.4498 48.5561 19.8598 48.0261 19.3298C47.4961 18.7998 46.9061 18.3198 46.2761 17.8998C46.1561 17.8198 46.0161 17.7798 45.8761 17.7798C45.7661 17.7798 45.6261 17.8098 45.5061 17.8698C44.4561 18.4298 43.2561 19.3298 41.5561 20.8298C40.9561 20.5198 40.3361 20.2598 39.6861 20.0598C39.5761 18.4098 39.4061 16.6098 39.0061 15.2598C38.9561 14.9698 38.7261 14.7198 38.4161 14.6598C36.9461 14.3598 35.4161 14.3598 33.9361 14.6598C33.6761 14.7098 33.4761 14.8898 33.3861 15.1198C33.3761 15.1498 33.3661 15.1798 33.3561 15.2098C32.9561 16.5498 32.7861 18.3798 32.6761 20.0598C32.0261 20.2598 31.3961 20.5298 30.7861 20.8398C29.0761 19.3398 27.9361 18.4798 26.9261 17.9398C26.6861 17.7598 26.3461 17.7498 26.0761 17.9198C25.4561 18.3298 24.8661 18.8098 24.3361 19.3398C23.8061 19.8698 23.3261 20.4598 22.9061 21.0898C22.7661 21.2998 22.7461 21.5698 22.8361 21.7898C22.8461 21.8198 22.8661 21.8598 22.8761 21.8898C23.5461 23.1198 24.7061 24.5298 25.8161 25.7998C25.4961 26.4098 25.2361 27.0398 25.0361 27.6898C23.3861 27.7998 21.5961 27.9698 20.2461 28.3698C19.9561 28.4198 19.7061 28.6498 19.6461 28.9598C19.4961 29.6898 19.4161 30.4398 19.4161 31.1898C19.4161 31.9398 19.4961 32.6998 19.6461 33.4298C19.6961 33.6798 19.8661 33.8698 20.0761 33.9698C20.1161 33.9898 20.1461 33.9998 20.1861 34.0098C21.5261 34.4098 23.3561 34.5798 25.0261 34.6898C25.2361 35.3398 25.4961 35.9798 25.8061 36.5798C24.7161 37.8198 23.5661 39.2098 22.9061 40.4498C22.7361 40.6898 22.7161 41.0298 22.8961 41.2898C23.3061 41.9098 23.7861 42.4998 24.3161 43.0298C24.8461 43.5598 25.4361 44.0398 26.0661 44.4498C26.2761 44.5898 26.5361 44.6098 26.7561 44.5198C26.7861 44.5098 26.8261 44.4898 26.8561 44.4698C28.0861 43.7998 29.5061 42.6298 30.7661 41.5198C31.3661 41.8298 31.9861 42.0898 32.6261 42.2898C32.7361 44.0398 32.8961 45.7998 33.3161 47.1598C33.3861 47.3798 33.5361 47.5398 33.7361 47.6298C33.7961 47.6598 33.8561 47.6798 33.9261 47.6998C34.6561 47.8498 35.4061 47.9298 36.1561 47.9298C36.9061 47.9298 37.6661 47.8498 38.4061 47.6998C38.5261 47.6798 38.6261 47.6298 38.7161 47.5598C38.8361 47.4698 38.9261 47.3398 38.9761 47.1798C39.3261 46.0398 39.5361 44.5598 39.6761 42.2898C40.3161 42.0898 40.9261 41.8298 41.5161 41.5298C43.2561 43.0698 44.4161 43.9398 45.4561 44.4898C45.6561 44.5898 45.8761 44.5998 46.0761 44.5298C46.1361 44.5098 46.2061 44.4798 46.2661 44.4398C46.8861 44.0298 47.4761 43.5498 48.0061 43.0198C48.5361 42.4898 49.0161 41.8998 49.4361 41.2698C49.4961 41.1798 49.5361 41.0798 49.5461 40.9798C49.5761 40.8198 49.5461 40.6498 49.4661 40.4998C48.8961 39.4398 48.0061 38.2498 46.5061 36.5398C46.8161 35.9498 47.0661 35.3298 47.2661 34.6998C49.0161 34.5898 50.7861 34.4298 52.1461 34.0098C52.3661 33.9398 52.5261 33.7898 52.6161 33.5998C52.6461 33.5398 52.6661 33.4798 52.6861 33.4098C52.8361 32.6798 52.9161 31.9298 52.9161 31.1798C52.9161 30.4298 52.8361 29.6698 52.6861 28.9298H52.7161ZM51.3261 32.6998C50.0461 33.0198 48.3661 33.1498 46.8461 33.2298C46.4761 33.1798 46.1061 33.4098 46.0161 33.7798C45.7861 34.6598 45.4261 35.5098 44.9661 36.2998C44.7561 36.6498 44.8761 37.1098 45.2261 37.3198C46.5461 38.8098 47.4161 39.9098 47.9661 40.8198C47.6661 41.2298 47.3461 41.6098 46.9861 41.9698C46.6261 42.3298 46.2361 42.6598 45.8261 42.9598C44.6961 42.2798 43.4061 41.1798 42.2661 40.1598C42.0361 39.8698 41.6261 39.7898 41.2961 39.9698C40.5061 40.4298 39.6561 40.7798 38.7761 41.0098C38.3761 41.1098 38.1361 41.5198 38.2361 41.9198C38.1161 43.8998 37.9561 45.2898 37.6961 46.3198C36.6961 46.4798 35.6661 46.4798 34.6761 46.3198C34.3561 45.0398 34.2261 43.3498 34.1461 41.8198C34.1861 41.4598 33.9561 41.1098 33.5961 41.0098C32.7161 40.7798 31.8661 40.4298 31.0761 39.9598C30.7461 39.7698 30.3161 39.8598 30.0961 40.1598C28.9561 41.1698 27.6761 42.2598 26.5561 42.9398C26.1461 42.6498 25.7661 42.3198 25.4161 41.9698C25.0661 41.6198 24.7361 41.2398 24.4461 40.8398C25.1261 39.7098 26.2261 38.4098 27.2361 37.2698C27.2861 37.2198 27.3161 37.1598 27.3461 37.0998C27.5161 36.8698 27.5461 36.5498 27.3861 36.2798C26.9361 35.4998 26.5861 34.6598 26.3561 33.7798C26.2661 33.4398 25.9661 33.2198 25.6261 33.2198C25.5961 33.2198 25.5761 33.2198 25.5461 33.2198C24.0161 33.1298 22.3261 32.9898 21.0461 32.6898C20.9661 32.1998 20.9261 31.6898 20.9261 31.1898C20.9261 30.6898 20.9661 30.1998 21.0361 29.7098C22.3161 29.3898 24.0161 29.2498 25.5361 29.1598C25.5961 29.1598 25.6561 29.1498 25.7061 29.1298C26.0061 29.0898 26.2561 28.8798 26.3361 28.5798C26.5661 27.6998 26.9161 26.8598 27.3761 26.0798C27.5561 25.7698 27.4961 25.3898 27.2361 25.1498C27.2261 25.1398 27.2161 25.1198 27.2061 25.1098C26.1961 23.9698 25.0861 22.6698 24.4061 21.5498C24.7061 21.1398 25.0261 20.7598 25.3861 20.4098C25.7361 20.0598 26.1161 19.7398 26.5161 19.4398C27.6461 20.1198 28.9461 21.2198 30.0861 22.2298C30.1261 22.2698 30.1661 22.2998 30.2161 22.3198C30.4461 22.5198 30.7961 22.5598 31.0761 22.3898C31.8561 21.9298 32.7061 21.5898 33.5761 21.3598C33.9261 21.2698 34.1461 20.9498 34.1361 20.6098C34.1361 20.5898 34.1361 20.5698 34.1361 20.5498C34.2261 19.0198 34.3661 17.3298 34.6761 16.0498C35.6661 15.8898 36.6661 15.8898 37.6561 16.0498C37.9761 17.3298 38.1161 19.0298 38.2061 20.5498C38.2061 20.5998 38.2161 20.6498 38.2261 20.6998C38.2461 21.0098 38.4661 21.2798 38.7861 21.3698C39.6561 21.5998 40.5061 21.9498 41.2861 22.4098C41.6261 22.6098 42.0561 22.5098 42.2761 22.1998C43.7861 20.8598 44.8961 19.9798 45.8061 19.4298C46.2161 19.7298 46.5961 20.0498 46.9561 20.4098C47.3161 20.7698 47.6461 21.1598 47.9461 21.5698C47.2661 22.6898 46.1761 23.9698 45.1661 25.0998C44.8461 25.3198 44.7461 25.7498 44.9461 26.0898C45.4061 26.8798 45.7561 27.7298 45.9861 28.6098C46.0861 28.9998 46.4861 29.2398 46.8861 29.1498C48.8761 29.2698 50.2761 29.4398 51.3061 29.6898C51.3861 30.1898 51.4261 30.6898 51.4261 31.1898C51.4261 31.6898 51.3861 32.1998 51.3061 32.7098L51.3261 32.6998ZM36.1961 23.2098C31.7961 23.2098 28.2161 26.7898 28.2161 31.1898C28.2161 35.5898 31.7961 39.1698 36.1961 39.1698C40.5961 39.1698 44.1761 35.5898 44.1761 31.1898C44.1761 26.7898 40.5961 23.2098 36.1961 23.2098ZM36.1961 37.7198C32.5961 37.7198 29.6661 34.7898 29.6661 31.1898C29.6661 27.5898 32.5961 24.6598 36.1961 24.6598C39.7961 24.6598 42.7261 27.5898 42.7261 31.1898C42.7261 34.7898 39.7961 37.7198 36.1961 37.7198ZM79.4361 80.6398L58.0361 59.2398C57.9361 59.1398 57.9361 58.9798 58.0361 58.8898L59.4761 57.4498C60.1561 56.7698 60.1561 55.6598 59.4761 54.9798L58.6561 54.1598C58.3161 53.8198 57.8761 53.6498 57.4261 53.6498C56.9761 53.6498 56.5161 53.8298 56.1561 54.1798C56.0561 54.2798 55.8961 54.2798 55.8061 54.1798L53.4761 51.8498C54.0961 51.3398 54.6961 50.7898 55.2661 50.2098C55.9561 49.5198 56.6061 48.7998 57.2061 48.0498L59.5661 50.4098C59.6661 50.5098 59.6661 50.6698 59.5461 50.7898C58.8661 51.4698 58.8661 52.5798 59.5461 53.2598L60.3661 54.0798C61.0461 54.7598 62.1561 54.7598 62.8461 54.0798L64.2861 52.6398C64.4161 52.5098 64.5161 52.5098 64.6361 52.6398L86.4261 74.4298C86.5561 74.5598 86.6461 74.7198 86.7061 74.8898C87.2661 75.2198 87.7461 75.6498 88.1461 76.1598C88.4561 75.2098 88.2461 74.1198 87.4861 73.3698L65.6961 51.5798C65.0361 50.9198 63.8861 50.9198 63.2261 51.5798L61.7861 53.0198C61.6861 53.1198 61.5261 53.1198 61.4361 53.0198L60.6161 52.1998C60.5161 52.0998 60.5161 51.9398 60.6361 51.8198C61.3161 51.1398 61.3161 50.0298 60.6361 49.3398L58.1361 46.8398C65.6761 36.3198 64.7261 21.5498 55.2861 12.1098C50.1961 7.01977 43.4361 4.21977 36.2361 4.21977C29.0361 4.21977 22.2761 7.01977 17.1861 12.1098C12.0961 17.1998 9.29606 23.9598 9.29606 31.1598C9.29606 38.3598 12.0961 45.1198 17.1861 50.2098C26.7461 59.7698 41.7661 60.6298 52.2961 52.7898L54.7461 55.2398C55.4261 55.9198 56.5361 55.9198 57.2461 55.2198C57.3461 55.1198 57.5061 55.1198 57.5961 55.2198L58.4161 56.0398C58.5161 56.1398 58.5161 56.2998 58.4161 56.3898L56.9761 57.8298C56.2961 58.5098 56.2961 59.6198 56.9761 60.2998L78.7661 82.0898C79.2861 82.6098 79.9761 82.8998 80.7061 82.8998C80.7561 82.8998 80.8061 82.8898 80.8561 82.8898C80.1961 82.2898 79.6961 81.5198 79.4361 80.6398ZM18.2461 49.1498C13.4461 44.3498 10.7961 37.9598 10.7961 31.1598C10.7961 24.3598 13.4461 17.9798 18.2461 13.1698C23.0461 8.36977 29.4361 5.71977 36.2361 5.71977C43.0361 5.71977 49.4161 8.36977 54.2261 13.1698C64.1461 23.0898 64.1461 39.2298 54.2261 49.1398C44.3061 59.0598 28.1661 59.0598 18.2561 49.1398L18.2461 49.1498ZM52.7461 14.6298C43.6361 5.51977 28.8161 5.51977 19.7061 14.6298C10.5961 23.7398 10.5961 38.5598 19.7061 47.6798C24.2661 52.2298 30.2461 54.5098 36.2261 54.5098C42.2061 54.5098 48.1961 52.2298 52.7461 47.6798C61.8561 38.5698 61.8561 23.7498 52.7461 14.6298ZM51.5361 46.4698C43.0861 54.9098 29.3461 54.9098 20.9061 46.4698C12.4561 38.0198 12.4561 24.2798 20.9061 15.8398C25.1261 11.6198 30.6761 9.50977 36.2261 9.50977C41.7761 9.50977 47.3161 11.6198 51.5461 15.8398C59.9961 24.2898 59.9961 38.0298 51.5461 46.4698H51.5361Z" fill="black"/>
<path id="dot" d="M10.196 69.6797C11.5768 69.6797 12.696 68.5604 12.696 67.1797C12.696 65.799 11.5768 64.6797 10.196 64.6797C8.81533 64.6797 7.69604 65.799 7.69604 67.1797C7.69604 68.5604 8.81533 69.6797 10.196 69.6797Z" fill="#34658A"/>
<path id="dot-2" d="M84.186 81.6699C85.5667 81.6699 86.686 80.5506 86.686 79.1699C86.686 77.7892 85.5667 76.6699 84.186 76.6699C82.8053 76.6699 81.686 77.7892 81.686 79.1699C81.686 80.5506 82.8053 81.6699 84.186 81.6699Z" fill="#34658A"/>
<path id="dot-3" d="M74.4861 12.4497C75.8668 12.4497 76.9861 11.3304 76.9861 9.94971C76.9861 8.569 75.8668 7.44971 74.4861 7.44971C73.1054 7.44971 71.9861 8.569 71.9861 9.94971C71.9861 11.3304 73.1054 12.4497 74.4861 12.4497Z" fill="#34658A"/>
<path id="dot-4" d="M36.186 33.6797C37.5667 33.6797 38.686 32.5604 38.686 31.1797C38.686 29.799 37.5667 28.6797 36.186 28.6797C34.8053 28.6797 33.686 29.799 33.686 31.1797C33.686 32.5604 34.8053 33.6797 36.186 33.6797Z" fill="#34658A"/>
</g>
</svg>
