<svg width="169" height="60" viewBox="0 0 169 60" fill="none" xmlns="http://www.w3.org/2000/svg">
<path d="M166.487 32.3615C164.956 30.2963 162.693 28.8265 159.588 27.9928C163.364 25.7039 165.52 22.9096 166.109 19.5953C166.423 17.7886 166.234 16.0225 165.505 14.2099C164.808 12.4758 163.745 11.0409 162.252 9.84124C160.738 8.71421 158.839 7.88927 156.477 7.43033C154.159 6.97428 151.022 6.74481 147.127 6.68091H125.946L123.558 20.1878C123.546 20.1327 123.523 20.0775 123.509 20.0194L121.069 33.8633C121.095 33.811 121.136 33.7645 121.162 33.7151L117.801 52.7004L126.692 52.7381H143.458C147.598 52.7381 151.095 52.4709 153.982 51.9045C156.617 51.2625 159.08 50.2139 161.398 48.7035C165.206 46.217 167.405 43.2077 168.044 39.5885C168.523 36.8435 168.021 34.4268 166.49 32.3557M131.258 26.4475L133.544 13.4779H148.507C151.545 13.4779 153.7 14.0298 155.127 15.1191C156.55 16.2171 157.023 17.7886 156.649 19.9061C156.274 22.0614 155.222 23.7084 153.497 24.8034C151.722 25.9043 149.175 26.4882 145.872 26.4882L143.287 26.4504H131.256L131.258 26.4475ZM155.829 44.3202C153.979 45.3863 151.22 45.9033 147.653 45.9033L142.927 45.8714H127.941L130.047 33.9184H148.899C153.131 33.9184 155.986 34.4994 157.453 35.638C158.949 36.8348 159.565 38.2581 159.272 39.9428C158.917 41.7205 157.793 43.1845 155.829 44.3173" fill="black"/>
<path d="M81.9828 60L84.2165 47.3441H95.693C111.454 47.3441 120.525 41.189 122.663 29.0589C124.763 17.1583 117.775 11.375 101.299 11.375H81.4396L75.27 46.3972H75.238L72.8358 60H81.9799H81.9828ZM89.1197 19.6389H102.298C111.213 19.6389 114.998 22.7847 113.856 29.2652C112.694 35.8705 107.771 39.2138 99.2339 39.2138H85.788L85.7996 39.1267H85.6834L89.1197 19.6389Z" fill="black"/>
<path d="M55.1664 33.5553H68.4032L68.3306 33.7122C64.723 41.4532 58.3878 45.8916 50.943 45.8916C45.7319 45.8916 41.186 43.9135 38.1738 40.3117C35.2604 36.8318 34.1276 32.2366 34.9961 27.3741C36.8202 17.1465 46.9577 8.82453 57.589 8.82453C63.6046 8.82453 68.6995 11.4562 71.5549 16.0515C71.7088 16.2955 71.825 16.522 71.9325 16.7922L72.1387 17.2714L79.7287 11.5521L79.5022 11.2093C75.3078 4.63011 67.863 0.851074 59.0849 0.851074C43.6086 0.851074 28.8875 12.7662 26.279 27.406C25.0503 34.2931 26.6741 40.8345 30.851 45.8132C35.2662 51.0882 41.9442 53.9958 49.6562 53.9958C64.3453 53.9958 76.551 43.0741 79.3366 27.4438L79.6648 25.7068H56.5607L55.1664 33.5553Z" fill="black"/>
<path d="M40.1898 1.41767C40.1898 1.41767 40.2159 1.21434 39.0308 1.23177H38.9291C38.8884 1.23177 38.8507 1.23758 38.8129 1.23758H38.8187C37.8456 1.23758 36.5618 1.29277 35.1094 1.48158V1.49029C34.6417 1.57743 33.4508 1.99571 32.8553 2.36752C24.574 8.12176 18.1778 16.1911 15.8918 25.3787C13.6058 34.5721 16.0167 42.5688 21.4514 48.2795C22.134 48.9069 23.4644 49.2497 24.1557 49.3688C25.5877 49.5372 26.9384 49.6244 27.836 49.6738C27.8505 49.6447 27.8505 49.604 27.836 49.5489L27.9783 49.5663C24.0134 43.7627 21.6431 37.0121 21.8639 30.8134C22.2299 20.4494 29.4597 7.76158 40.1898 1.42058" fill="#0083CA"/>
<path d="M17.8757 48.8748C12.2841 42.9608 9.77149 34.6039 12.104 24.9719C14.4713 15.1539 21.248 6.57919 29.9448 0.604181C30.0058 0.560611 30.0609 0.514135 30.1161 0.479279C30.6506 0.121998 30.2846 0.0232377 29.9099 0.00290472C29.8199 0 29.7211 0 29.6311 0C29.5875 0.00290472 29.5468 0.00290472 29.5178 0.00871415V0C28.5563 0.00580944 27.2608 0.0609991 25.8113 0.255615L25.8026 0.264329C25.3379 0.348566 24.1528 0.790083 23.5515 1.1677C15.2643 7.10785 8.86231 15.4357 6.56468 24.9283C4.26705 34.4267 6.66635 42.6819 12.1011 48.5814C12.7779 49.2292 14.1053 49.5806 14.7967 49.7055C16.2287 49.8827 17.5794 49.9728 18.4798 50.0163C18.5234 49.9147 18.4421 49.6823 18.1051 49.235C18.0151 49.1072 17.9367 48.991 17.8728 48.8748" fill="#0083CA"/>
<path d="M14.2215 5.61768C14.2215 5.61768 -11.3749 21.4368 6.11153 44.1139C6.11153 44.1139 -6.32066 26.8715 14.2215 5.61768Z" fill="#0083CA"/>
</svg>
