<svg width="37" height="37" viewBox="0 0 37 37" fill="none" xmlns="http://www.w3.org/2000/svg">
<path d="M34.1724 11.3608L22.2526 1.36769C20.0774 -0.456869 16.9207 -0.454922 14.7455 1.36769L2.82573 11.3608C1.02052 12.8582 0 13.8961 0 17.8198V30.1847C0 34.6438 2.35632 37 6.81579 37H14.6053V27.2638C14.6053 25.116 16.3521 23.3694 18.5 23.3694C20.6479 23.3694 22.3947 25.116 22.3947 27.2638V37H30.1842C34.6437 37 37 34.6438 37 30.1847V17.8198C36.9981 13.8981 35.9776 12.8602 34.1724 11.3608ZM35.0507 30.1847C35.0507 33.5515 33.5493 35.0528 30.1823 35.0528H24.3402V27.2638C24.3402 24.0431 21.719 21.4221 18.4981 21.4221C15.2772 21.4221 12.656 24.0431 12.656 27.2638V35.0528H6.81389C3.44689 35.0528 1.94547 33.5515 1.94547 30.1847V17.8198C1.94547 14.6205 2.56661 14.1045 4.06803 12.8602L15.9957 2.86115C17.4445 1.64413 19.5517 1.64608 21.0005 2.86115L32.9282 12.8602C34.4296 14.1064 35.0507 14.6205 35.0507 17.8198V30.1847Z" fill="url(#paint0_linear_1740_4590)"/>
<defs>
<linearGradient id="paint0_linear_1740_4590" x1="0" y1="0" x2="44.6474" y2="19.4006" gradientUnits="userSpaceOnUse">
<stop stop-color="#7FC6A4"/>
<stop offset="1" stop-color="#33658A"/>
</linearGradient>
</defs>
</svg>
