<svg width="210" height="210" viewBox="0 0 210 210" fill="none" xmlns="http://www.w3.org/2000/svg">
<g id="inner">
<path id="Vector" d="M24.9603 167.861C24.341 167.859 23.7305 167.713 23.177 167.435C22.6235 167.158 22.142 166.755 21.7704 166.26C-4.66514 130.636 -6.49787 81.4174 17.3161 46.5595C17.9114 45.6903 18.8276 45.0933 19.863 44.8997C20.8985 44.7061 21.9685 44.9318 22.8376 45.5271C23.7066 46.1224 24.3037 47.0385 24.4973 48.074C24.6909 49.1095 24.4652 50.1796 23.8699 51.0487C1.93504 83.1574 3.6866 128.571 28.1386 161.515C28.7656 162.361 29.0322 163.42 28.88 164.461C28.7278 165.503 28.1693 166.441 27.3266 167.072C26.6447 167.585 25.8139 167.862 24.9603 167.861Z" fill="white"/>
<path id="Vector_2" d="M106.599 209.4C84.3618 209.431 62.6856 202.418 44.6807 189.366C43.8803 188.732 43.3554 187.813 43.2153 186.801C43.0751 185.79 43.3306 184.763 43.9285 183.935C44.5264 183.107 45.4206 182.541 46.425 182.356C47.4294 182.171 48.4665 182.38 49.3206 182.94C65.3015 194.476 84.3926 200.919 104.096 201.426C123.799 201.933 143.196 196.481 159.749 185.782C160.186 185.498 160.675 185.303 161.188 185.207C161.7 185.112 162.227 185.119 162.737 185.227C163.247 185.336 163.73 185.543 164.16 185.838C164.59 186.134 164.957 186.511 165.241 186.948C165.525 187.385 165.721 187.874 165.816 188.386C165.911 188.899 165.904 189.425 165.796 189.935C165.688 190.446 165.48 190.929 165.185 191.359C164.89 191.789 164.513 192.156 164.076 192.44C146.969 203.552 126.998 209.445 106.599 209.4Z" fill="white"/>
<path id="Vector_3" d="M185.126 171.447C184.389 171.447 183.665 171.241 183.038 170.853C182.411 170.464 181.904 169.909 181.575 169.249C181.246 168.588 181.108 167.849 181.176 167.115C181.244 166.38 181.515 165.679 181.96 165.09C194.503 148.195 201.305 127.727 201.37 106.685C201.434 85.6431 194.758 65.1336 182.319 48.162C181.692 47.3175 181.425 46.2583 181.579 45.2173C181.732 44.1764 182.292 43.239 183.137 42.6114C183.981 41.9838 185.041 41.7174 186.082 41.8708C187.122 42.0241 188.06 42.5847 188.687 43.4292C202.205 61.7534 209.466 83.9417 209.397 106.712C209.328 129.483 201.933 151.627 188.305 169.869C187.932 170.359 187.452 170.757 186.9 171.031C186.349 171.304 185.742 171.447 185.126 171.447Z" fill="white"/>
<path id="Vector_4" d="M165.105 29.1481C164.241 29.1473 163.401 28.8619 162.716 28.3361C145.939 15.6971 125.542 8.79099 104.538 8.63849C83.5348 8.486 63.0394 15.0952 46.0814 27.4893C45.2323 28.1123 44.1706 28.3724 43.1296 28.2126C42.0887 28.0527 41.154 27.4858 40.531 26.6367C39.908 25.7876 39.6479 24.7257 39.8078 23.6848C39.9677 22.6439 40.5345 21.7091 41.3836 21.0861C59.6954 7.62129 81.8685 0.435785 104.597 0.600929C127.326 0.766073 149.392 8.27301 167.506 22.0025C168.168 22.5063 168.656 23.205 168.901 24.0004C169.145 24.7958 169.134 25.6479 168.869 26.4367C168.604 27.2255 168.098 27.9113 167.423 28.3977C166.748 28.8841 165.937 29.1465 165.105 29.1481Z" fill="white"/>
</g>
</svg>
