<svg width="20" height="23" viewBox="0 0 20 23" fill="none" xmlns="http://www.w3.org/2000/svg">
<g id="instagram 1" clip-path="url(#clip0_1697_1615)">
<path id="Vector" d="M10.0052 6.22969C7.16596 6.22969 4.87578 8.43398 4.87578 11.1668C4.87578 13.8996 7.16596 16.1039 10.0052 16.1039C12.8445 16.1039 15.1347 13.8996 15.1347 11.1668C15.1347 8.43398 12.8445 6.22969 10.0052 6.22969ZM10.0052 14.3766C8.17043 14.3766 6.67043 12.9371 6.67043 11.1668C6.67043 9.39648 8.16596 7.95703 10.0052 7.95703C11.8445 7.95703 13.3401 9.39648 13.3401 11.1668C13.3401 12.9371 11.8401 14.3766 10.0052 14.3766ZM16.541 6.02773C16.541 6.66797 16.0053 7.1793 15.3445 7.1793C14.6794 7.1793 14.1481 6.66367 14.1481 6.02773C14.1481 5.3918 14.6838 4.87617 15.3445 4.87617C16.0053 4.87617 16.541 5.3918 16.541 6.02773ZM19.9383 7.19649C19.8624 5.65391 19.4963 4.2875 18.3222 3.16172C17.1526 2.03594 15.7329 1.68359 14.1302 1.60625C12.4785 1.51602 7.52757 1.51602 5.87578 1.60625C4.27757 1.6793 2.85793 2.03164 1.68382 3.15742C0.509713 4.2832 0.148106 5.64961 0.067749 7.19219C-0.026001 8.78203 -0.026001 13.5473 0.067749 15.1371C0.143642 16.6797 0.509713 18.0461 1.68382 19.1719C2.85793 20.2977 4.27311 20.65 5.87578 20.7273C7.52757 20.8176 12.4785 20.8176 14.1302 20.7273C15.7329 20.6543 17.1526 20.302 18.3222 19.1719C19.4919 18.0461 19.8579 16.6797 19.9383 15.1371C20.032 13.5473 20.032 8.78633 19.9383 7.19649ZM17.8044 16.843C17.4561 17.6852 16.782 18.334 15.9026 18.6734C14.5856 19.1762 11.4606 19.0602 10.0052 19.0602C8.54989 19.0602 5.42043 19.1719 4.10793 18.6734C3.23293 18.3383 2.55882 17.6895 2.20614 16.843C1.68382 15.5754 1.80436 12.5676 1.80436 11.1668C1.80436 9.76602 1.68828 6.75391 2.20614 5.49063C2.55436 4.64844 3.22846 3.99961 4.10793 3.66016C5.42489 3.15742 8.54989 3.27344 10.0052 3.27344C11.4606 3.27344 14.5901 3.16172 15.9026 3.66016C16.7776 3.99531 17.4517 4.64414 17.8044 5.49063C18.3267 6.7582 18.2061 9.76602 18.2061 11.1668C18.2061 12.5676 18.3267 15.5797 17.8044 16.843Z" fill="white"/>
</g>
<defs>
<clipPath id="clip0_1697_1615">
<rect width="20" height="22" fill="white" transform="translate(0.000732422 0.170898)"/>
</clipPath>
</defs>
</svg>
