<svg width="91" height="83" viewBox="0 0 91 83" fill="none" xmlns="http://www.w3.org/2000/svg">
<g id="integrations">
<path id="shape" d="M27.72 5.87C28.01 6.16 28.01 6.64 27.72 6.93L22.65 12C22.5 12.15 22.31 12.22 22.12 12.22C21.93 12.22 21.74 12.15 21.59 12L18.58 8.99C18.29 8.7 18.29 8.22 18.58 7.93C18.8701 7.64 19.35 7.64 19.64 7.93L22.12 10.41L26.66 5.87C26.9501 5.58 27.43 5.58 27.72 5.87ZM23.5 19.9C24.1 19.9 24.69 19.83 25.26 19.73C24.81 19.34 24.43 18.88 24.15 18.36C23.9401 18.38 23.72 18.4 23.5 18.4C18.84 18.4 15.05 14.61 15.05 9.95C15.05 5.29 18.84 1.5 23.5 1.5C28.16 1.5 31.95 5.29 31.95 9.95C31.95 10.7 31.84 11.42 31.66 12.11C32.12 12.49 32.5 12.94 32.8 13.45C33.21 12.36 33.4501 11.18 33.4501 9.95C33.4501 4.46 28.99 0 23.5 0C18.01 0 13.55 4.46 13.55 9.95C13.55 15.44 18.01 19.9 23.5 19.9ZM66.5201 63C66.86 63.46 67.1101 63.98 67.2801 64.54C71.5801 64.93 74.9601 68.55 74.9601 72.95C74.9601 77.61 71.17 81.4 66.51 81.4C61.85 81.4 58.06 77.61 58.06 72.95C58.06 71.66 58.3601 70.45 58.87 69.36C58.48 68.95 58.16 68.47 57.93 67.95C57.07 69.42 56.56 71.13 56.56 72.95C56.56 78.44 61.0201 82.9 66.51 82.9C72 82.9 76.4601 78.44 76.4601 72.95C76.4601 67.46 72.0001 63.01 66.5301 63H66.5201ZM58.87 13.54C58.35 12.45 58.06 11.24 58.06 9.95C58.06 5.29 61.85 1.5 66.51 1.5C71.17 1.5 74.9601 5.29 74.9601 9.95C74.9601 14.35 71.5801 17.97 67.2801 18.36C67.1101 18.92 66.86 19.44 66.5201 19.9C72.0001 19.9 76.4501 15.43 76.4501 9.95C76.4501 4.47 71.99 0 66.5 0C61.01 0 56.55 4.46 56.55 9.95C56.55 11.78 57.06 13.48 57.92 14.95C58.15 14.42 58.4701 13.95 58.8601 13.54H58.87ZM71.43 5.87C71.14 5.58 70.66 5.58 70.37 5.87L65.83 10.41L63.35 7.93C63.06 7.64 62.5801 7.64 62.2901 7.93C62 8.22 62 8.7 62.2901 8.99L65.3 12C65.4501 12.15 65.64 12.22 65.83 12.22C66.0201 12.22 66.21 12.15 66.36 12L71.43 6.93C71.72 6.64 71.72 6.16 71.43 5.87ZM12.76 39.97L8.22005 44.51L5.74005 42.03C5.45005 41.74 4.97005 41.74 4.68005 42.03C4.39005 42.32 4.39005 42.8 4.68005 43.09L7.69005 46.1C7.84005 46.25 8.03005 46.32 8.22005 46.32C8.41005 46.32 8.60005 46.25 8.75005 46.1L13.82 41.03C14.11 40.74 14.11 40.26 13.82 39.97C13.53 39.68 13.05 39.68 12.76 39.97ZM80.5 32C76.82 32 73.62 34.01 71.89 36.98C71.99 36.98 72.09 36.95 72.2001 36.95C72.6701 36.95 73.12 37.04 73.55 37.16C75.08 34.95 77.62 33.5 80.5 33.5C85.16 33.5 88.9501 37.29 88.9501 41.95C88.9501 46.61 85.16 50.4 80.5 50.4C77.62 50.4 75.08 48.95 73.55 46.74C73.12 46.86 72.6701 46.95 72.2001 46.95C72.09 46.95 71.99 46.92 71.89 46.92C73.61 49.89 76.83 51.9 80.5 51.9C85.99 51.9 90.4501 47.44 90.4501 41.95C90.4501 36.46 85.99 32 80.5 32ZM19.1 46.94C19.1 46.94 19.0401 46.94 19 46.94C18.47 46.94 17.96 46.83 17.48 46.68C15.96 48.92 13.4 50.39 10.5 50.39C5.84005 50.39 2.05005 46.6 2.05005 41.94C2.05005 37.28 5.84005 33.49 10.5 33.49C13.4 33.49 15.96 34.97 17.48 37.2C17.96 37.04 18.47 36.94 19 36.94C19.0301 36.94 19.06 36.94 19.1 36.94C17.37 33.98 14.17 31.98 10.5 31.98C5.01005 31.98 0.550049 36.44 0.550049 41.93C0.550049 47.42 5.01005 51.88 10.5 51.88C14.17 51.88 17.37 49.88 19.1 46.92V46.94ZM65.3 77.59C65.4501 77.74 65.64 77.81 65.83 77.81C66.0201 77.81 66.21 77.74 66.36 77.59L71.43 72.52C71.72 72.23 71.72 71.75 71.43 71.46C71.14 71.17 70.66 71.17 70.37 71.46L65.83 76L63.35 73.52C63.06 73.23 62.5801 73.23 62.2901 73.52C62 73.81 62 74.29 62.2901 74.58L65.3 77.59ZM58.8601 62.55L52.51 53.18L45.7001 56.62C45.4901 56.73 45.2401 56.73 45.0201 56.62L38.3 53.23L32.05 62.44C31.7 62.08 31.2801 61.8 30.84 61.56L36.9501 52.55L31.16 49.63C30.91 49.5 30.75 49.24 30.75 48.96V42.71H23.92C23.9601 42.46 24 42.22 24 41.96C24 41.7 23.9601 41.46 23.92 41.21H30.75V34.97C30.75 34.86 30.7701 34.75 30.82 34.65C30.82 34.63 30.83 34.62 30.84 34.6C30.92 34.46 31.0301 34.35 31.17 34.28L37.34 31.16L30.2 20.63C30.68 20.45 31.12 20.21 31.52 19.91L38.69 30.48L45.0201 27.28C45.23 27.17 45.48 27.17 45.7001 27.28L52.12 30.52L58.9501 20.45C59.3 20.81 59.7201 21.1 60.16 21.33L53.47 31.2L59.55 34.27C59.68 34.34 59.8 34.44 59.8801 34.59C59.8801 34.61 59.9 34.62 59.9 34.64C59.95 34.74 59.97 34.86 59.97 34.96V41.03H67.3C67.2401 41.33 67.2101 41.63 67.2101 41.94C67.2101 42.14 67.2501 42.33 67.2701 42.53H59.97V48.94C59.97 49.22 59.81 49.48 59.56 49.61L53.8601 52.49L60.05 61.62C59.6101 61.87 59.21 62.18 58.87 62.55H58.8601ZM44.6301 42.42L32.25 36.17V48.49L44.6301 54.74V42.42ZM57.55 34.95L52.3801 32.34C52.2101 32.36 52.03 32.32 51.87 32.22C51.7701 32.15 51.69 32.07 51.64 31.97L45.3601 28.8L33.17 34.96L45.31 41.09C45.31 41.09 45.38 41.09 45.42 41.09L57.56 34.96L57.55 34.95ZM58.46 48.49V41.83C58.46 41.83 58.46 41.8 58.46 41.79C58.46 41.78 58.46 41.76 58.46 41.75V36.17L46.12 42.4V54.72L58.46 48.49ZM81.0201 46.31C81.2101 46.31 81.4 46.24 81.55 46.09L86.62 41.02C86.91 40.73 86.91 40.25 86.62 39.96C86.33 39.67 85.8501 39.67 85.5601 39.96L81.0201 44.5L78.54 42.02C78.25 41.73 77.7701 41.73 77.48 42.02C77.19 42.31 77.19 42.79 77.48 43.08L80.4901 46.09C80.6401 46.24 80.83 46.31 81.0201 46.31ZM31.4 70C31.74 70.92 31.94 71.91 31.94 72.95C31.94 77.61 28.15 81.4 23.49 81.4C18.83 81.4 15.04 77.61 15.04 72.95C15.04 68.29 18.83 64.5 23.49 64.5C23.57 64.5 23.65 64.51 23.73 64.52C23.89 64 24.1101 63.51 24.42 63.07C24.1101 63.04 23.81 63 23.49 63C18 63 13.54 67.46 13.54 72.95C13.54 78.44 18 82.9 23.49 82.9C28.98 82.9 33.44 78.44 33.44 72.95C33.44 71.49 33.12 70.1 32.55 68.85C32.23 69.3 31.84 69.68 31.4 70ZM26.75 71.77L22.21 76.31L19.73 73.83C19.44 73.54 18.9601 73.54 18.67 73.83C18.38 74.12 18.38 74.6 18.67 74.89L21.68 77.9C21.83 78.05 22.02 78.12 22.21 78.12C22.4 78.12 22.59 78.05 22.74 77.9L27.81 72.83C28.1 72.54 28.1 72.06 27.81 71.77C27.52 71.48 27.0401 71.48 26.75 71.77Z" fill="black"/>
<path id="dot" d="M19 44.4502C20.3807 44.4502 21.5 43.3309 21.5 41.9502C21.5 40.5695 20.3807 39.4502 19 39.4502C17.6193 39.4502 16.5 40.5695 16.5 41.9502C16.5 43.3309 17.6193 44.4502 19 44.4502Z" fill="#34658A"/>
<path id="dot-2" d="M28.5 18.4502C29.8807 18.4502 31 17.3309 31 15.9502C31 14.5695 29.8807 13.4502 28.5 13.4502C27.1193 13.4502 26 14.5695 26 15.9502C26 17.3309 27.1193 18.4502 28.5 18.4502Z" fill="#34658A"/>
<path id="dot-3" d="M62.5 19.4502C63.8807 19.4502 65 18.3309 65 16.9502C65 15.5695 63.8807 14.4502 62.5 14.4502C61.1193 14.4502 60 15.5695 60 16.9502C60 18.3309 61.1193 19.4502 62.5 19.4502Z" fill="#34658A"/>
<path id="dot-4" d="M72.2001 44.4502C73.5808 44.4502 74.7001 43.3309 74.7001 41.9502C74.7001 40.5695 73.5808 39.4502 72.2001 39.4502C70.8194 39.4502 69.7001 40.5695 69.7001 41.9502C69.7001 43.3309 70.8194 44.4502 72.2001 44.4502Z" fill="#34658A"/>
<path id="dot-5" d="M62.5 68.4502C63.8807 68.4502 65 67.3309 65 65.9502C65 64.5695 63.8807 63.4502 62.5 63.4502C61.1193 63.4502 60 64.5695 60 65.9502C60 67.3309 61.1193 68.4502 62.5 68.4502Z" fill="#34658A"/>
<path id="dot-6" d="M28.5 68.4502C29.8807 68.4502 31 67.3309 31 65.9502C31 64.5695 29.8807 63.4502 28.5 63.4502C27.1193 63.4502 26 64.5695 26 65.9502C26 67.3309 27.1193 68.4502 28.5 68.4502Z" fill="#34658A"/>
</g>
</svg>
