<svg width="326" height="326" viewBox="0 0 326 326" fill="none" xmlns="http://www.w3.org/2000/svg">
<path d="M38.4765 264.222C37.5438 264.224 36.6235 264.009 35.7881 263.594C34.9527 263.18 34.2251 262.576 33.6626 261.832C12.4097 233.607 0.81724 199.284 0.603716 163.952C0.418983 128.628 12.1246 94.2701 33.8366 66.4074C34.8253 65.162 36.2649 64.3565 37.8435 64.1654C39.422 63.9743 41.0123 64.4131 42.2695 65.3866C42.8899 65.8654 43.4092 66.4625 43.7973 67.1433C44.1855 67.8241 44.4348 68.5751 44.5308 69.3529C44.6268 70.1307 44.5676 70.9198 44.3567 71.6746C44.1457 72.4294 43.7872 73.1348 43.3019 73.7501C2.22766 125.95 2.21606 200.376 43.3019 254.71C43.7768 255.332 44.1236 256.043 44.3225 256.8C44.5213 257.557 44.5681 258.347 44.4603 259.122C44.3524 259.897 44.092 260.644 43.6941 261.318C43.2962 261.992 42.7686 262.581 42.1419 263.05C41.0808 263.831 39.7934 264.242 38.4765 264.222Z" fill="white"/>
<path d="M162.999 325.399H160.679C124.558 324.876 89.6359 312.356 61.4097 289.81C60.7967 289.322 60.2868 288.717 59.9095 288.03C59.5322 287.343 59.2952 286.588 59.2121 285.809C59.129 285.03 59.2015 284.242 59.4254 283.491C59.6494 282.74 60.0203 282.041 60.5165 281.435C61.522 280.202 62.9746 279.417 64.5569 279.252C66.1393 279.087 67.7226 279.554 68.9611 280.553C95.0099 301.517 127.319 313.171 160.752 313.663C194.184 314.155 226.822 303.456 253.476 283.268C254.747 282.311 256.345 281.896 257.92 282.113C259.496 282.33 260.922 283.162 261.886 284.428C262.361 285.051 262.708 285.762 262.907 286.52C263.106 287.279 263.153 288.069 263.045 288.845C262.937 289.622 262.677 290.369 262.279 291.044C261.881 291.719 261.353 292.309 260.726 292.78C232.538 313.94 198.246 325.386 162.999 325.399Z" fill="white"/>
<path d="M286.952 262.956C285.624 262.957 284.332 262.521 283.275 261.715C282.654 261.237 282.132 260.642 281.742 259.962C281.352 259.283 281.099 258.533 281 257.755C280.901 256.978 280.957 256.188 281.164 255.432C281.371 254.676 281.726 253.969 282.208 253.351C302.74 227.175 313.788 194.809 313.546 161.542C313.303 128.274 301.785 96.0728 280.874 70.1988C280.383 69.5874 280.018 68.8847 279.801 68.1314C279.583 67.3781 279.518 66.5891 279.607 65.8102C279.697 65.0312 279.94 64.2777 280.323 63.5934C280.705 62.9091 281.22 62.3075 281.837 61.8236C283.082 60.8351 284.667 60.3791 286.247 60.5551C287.827 60.7311 289.273 61.5249 290.27 62.7632C312.755 90.7652 325.134 125.535 325.403 161.447C325.673 197.359 313.817 232.311 291.755 260.647C291.186 261.376 290.457 261.964 289.624 262.364C288.791 262.765 287.877 262.967 286.952 262.956Z" fill="white"/>
<path d="M68.5083 46.0843C67.6075 46.0872 66.7176 45.8875 65.9044 45.4999C65.0913 45.1124 64.3756 44.547 63.8104 43.8455C63.3203 43.2343 62.956 42.5321 62.7385 41.7794C62.5209 41.0267 62.4544 40.2384 62.5428 39.46C62.6312 38.6815 62.8728 37.9282 63.2536 37.2434C63.6344 36.5587 64.1469 35.9561 64.7616 35.4703C92.8732 13.3275 127.503 1.07599 163.285 0.6146C199.067 0.153212 234.001 11.5077 262.674 32.9183C263.301 33.3886 263.829 33.9784 264.227 34.6537C264.625 35.329 264.886 36.0764 264.994 36.8528C265.101 37.6292 265.054 38.4193 264.855 39.1775C264.657 39.9356 264.309 40.6469 263.834 41.2703C262.868 42.5329 261.443 43.3631 259.868 43.5803C258.293 43.7976 256.696 43.3843 255.424 42.4303C228.916 22.5448 196.574 11.989 163.439 12.4087C130.304 12.8283 98.2394 24.1998 72.2434 44.7503C71.1852 45.605 69.8684 46.0753 68.5083 46.0843Z" fill="white"/>
</svg>
