<svg width="48" height="44" viewBox="0 0 48 44" fill="none" xmlns="http://www.w3.org/2000/svg">
<g id="mobile-maintenance-icon">
<path id="Vector" d="M15.3738 15.8347C12.2295 18.3052 10.3205 21.9548 10.0959 25.9413C5.99714 25.0991 2.01066 27.6818 1.16844 31.7806C1.05615 32.286 1 32.7913 1 33.2966C1 40.9327 9.02911 40.8204 9.02911 40.8204H38.1136C38.1136 40.8204 47.1533 39.6413 47.1533 30.8261C47.1533 25.3236 42.6615 20.8318 37.159 20.888C37.0468 20.888 36.8783 20.888 36.766 20.888C36.2045 19.765 35.5308 18.6982 34.6886 17.7437M15.3738 29.254V4.43675C15.3738 2.75232 16.7213 1.34863 18.4058 1.29248H31.5443C33.2287 1.34863 34.5763 2.75232 34.6324 4.43675V27.6257M15.3738 8.19863C15.3176 6.85109 16.3844 5.78429 17.6758 5.72814C17.732 5.72814 17.8443 5.72814 17.9004 5.72814H31.9935C33.3972 5.67199 34.5763 6.7388 34.6324 8.14249V8.19863M23.5713 3.17324C23.1829 3.17324 22.971 3.15399 22.971 3.51562C22.971 3.85251 23.2344 3.89844 23.6275 3.89844H25.2558H26.884C27.2209 3.89844 27.553 3.90866 27.553 3.51562C27.553 3.17874 27.2209 3.17324 26.8279 3.17324H25.1996H23.5713ZM23.5713 3.17324C23.5713 3.11709 23.5713 3.11709 23.5713 3.17324ZM36.5414 30.1523C34.1271 25.829 28.6808 24.2568 24.3013 26.6712C22.9537 27.4011 21.8308 28.4679 21.0447 29.7593M21.55 29.647C18.6865 27.7941 14.8685 28.5802 13.0156 31.4437C12.9594 31.4999 12.9033 31.6122 12.9033 31.6683M19.0795 10.3322H23.9082M19.0795 13.4204H28.007M19.0795 19.0351H23.9082M19.0795 22.1794H28.007" stroke="url(#paint0_linear_1697_2363)" stroke-width="1.5" stroke-linecap="round" stroke-linejoin="round"/>
<path id="Vector_2" d="M36.5781 6.5542C36.5781 5.43165 35.7007 4.5542 34.5781 4.5542C33.4556 4.5542 32.5781 5.43165 32.5781 6.5542C32.5781 7.67675 33.4556 8.5542 34.5781 8.5542C35.7007 8.5542 36.5781 7.67675 36.5781 6.5542Z" fill="#00213E" stroke="white" stroke-width="1.5"/>
<path id="Vector_3" d="M12.0518 25.9316C12.0518 24.8091 11.1743 23.9316 10.0518 23.9316C8.92921 23.9316 8.05176 24.8091 8.05176 25.9316C8.05176 27.0542 8.92921 27.9316 10.0518 27.9316C11.1163 27.9316 12.0518 27.0703 12.0518 25.9316Z" fill="#00213E" stroke="white" stroke-width="1.5"/>
<path id="Vector_4" d="M23.2324 29.4604C23.2324 28.3379 22.355 27.4604 21.2324 27.4604C20.1099 27.4604 19.2324 28.3379 19.2324 29.4604C19.2324 30.583 20.1099 31.4604 21.2324 31.4604C22.355 31.4604 23.2324 30.583 23.2324 29.4604Z" fill="#00213E" stroke="white" stroke-width="1.5"/>
<path id="Vector_5" d="M10.8018 40.8203C10.8018 39.6978 9.9243 38.8203 8.80176 38.8203C7.67921 38.8203 6.80176 39.6978 6.80176 40.8203C6.80176 41.9429 7.67921 42.8203 8.80176 42.8203C9.9243 42.8203 10.8018 41.9429 10.8018 40.8203Z" fill="#00213E" stroke="white" stroke-width="1.5"/>
<path id="Vector_6" d="M40.1514 40.8203C40.1514 39.6978 39.2739 38.8203 38.1514 38.8203C37.0288 38.8203 36.1514 39.6978 36.1514 40.8203C36.1514 41.9429 37.0288 42.8203 38.1514 42.8203C39.2739 42.8203 40.1514 41.9429 40.1514 40.8203Z" fill="#00213E" stroke="white" stroke-width="1.5"/>
</g>
<defs>
<linearGradient id="paint0_linear_1697_2363" x1="0.719262" y1="21.0705" x2="47.4004" y2="21.0705" gradientUnits="userSpaceOnUse">
<stop stop-color="#7FC6A4"/>
<stop offset="1" stop-color="#33658A"/>
</linearGradient>
</defs>
</svg>
