<svg width="464" height="464" viewBox="0 0 464 464" fill="none" xmlns="http://www.w3.org/2000/svg">
<path d="M61.8318 382.916C60.5152 382.916 59.2136 382.636 58.0136 382.094C56.8136 381.552 55.7427 380.761 54.8721 379.773C19.7252 340.263 0.307487 288.84 0.00589659 234.924C-0.383419 181.296 18.517 129.315 53.2597 88.4622C54.8927 86.6444 57.1717 85.5372 59.61 85.3771C62.0482 85.217 64.4525 86.0166 66.3091 87.6053C68.1658 89.1939 69.3276 91.4456 69.5466 93.8794C69.7655 96.3131 69.0242 98.7361 67.4809 100.631C1.68784 177.666 2.25623 292.32 68.8264 367.349C70.0242 368.694 70.8079 370.357 71.0834 372.137C71.3589 373.917 71.1143 375.739 70.3792 377.383C69.644 379.027 68.4496 380.424 66.9394 381.406C65.4293 382.388 63.6678 382.912 61.8667 382.916H61.8318Z" fill="white"/>
<path d="M233.019 464H232.137C180.041 463.754 129.471 446.382 88.2209 414.561C86.357 413.009 85.1685 410.793 84.9057 408.382C84.6429 405.971 85.3264 403.551 86.8122 401.634C88.2979 399.716 90.4699 398.451 92.8705 398.103C95.2711 397.756 97.7128 398.354 99.6813 399.771C177.19 459.871 288.871 460.288 359.443 400.734C361.347 399.18 363.785 398.437 366.231 398.665C368.678 398.893 370.937 400.074 372.521 401.953C374.104 403.832 374.885 406.258 374.696 408.708C374.506 411.158 373.361 413.435 371.507 415.048C334.075 446.6 284.916 464 233.019 464Z" fill="white"/>
<path d="M402.71 382.196C400.908 382.191 399.147 381.667 397.637 380.685C396.127 379.704 394.932 378.307 394.197 376.662C393.462 375.018 393.217 373.196 393.493 371.416C393.768 369.636 394.552 367.974 395.75 366.629C460.441 293.618 461.949 176.714 399.23 100.502C398.448 99.5541 397.861 98.462 397.502 97.2875C397.142 96.1131 397.018 94.8793 397.135 93.6568C397.253 92.4342 397.61 91.2467 398.186 90.1621C398.762 89.0776 399.547 88.1171 400.494 87.3356C401.442 86.5542 402.534 85.967 403.708 85.6076C404.882 85.2482 406.116 85.1237 407.339 85.2411C408.561 85.3585 409.749 85.7155 410.833 86.2919C411.918 86.8682 412.878 87.6525 413.66 88.6C446.591 128.655 464.477 180.414 463.99 234.319C463.492 288.711 444.271 340.111 409.716 379.041C408.841 380.036 407.763 380.833 406.555 381.377C405.346 381.922 404.035 382.201 402.71 382.196Z" fill="white"/>
<path d="M374.245 73.2198C371.865 73.229 369.573 72.3237 367.842 70.691C294.474 1.89142 170.277 1.25343 96.6428 69.299C94.807 70.9109 92.4139 71.7413 89.9744 71.6129C87.5348 71.4845 85.2421 70.4075 83.5857 68.6118C81.9294 66.816 81.0406 64.4439 81.1092 62.0019C81.1777 59.5598 82.1982 57.2413 83.9528 55.5414C103.825 37.291 127.106 23.1466 152.46 13.9206C177.75 4.6506 204.483 -0.06232 231.419 0.00062221H231.569C288.477 0.00062221 341.406 20.2542 380.636 57.0262C382.023 58.306 382.99 59.9751 383.412 61.8144C383.833 63.6537 383.689 65.5775 382.998 67.3334C382.307 69.0893 381.101 70.5954 379.539 71.6541C377.977 72.7128 376.132 73.2747 374.245 73.2662V73.2198Z" fill="white"/>
</svg>
