<svg width="37" height="37" viewBox="0 0 37 37" fill="none" xmlns="http://www.w3.org/2000/svg">
<path d="M35.0979 24.9614L29.9513 21.8923C27.679 20.5369 24.7484 21.1991 23.2783 23.3937L21.5612 25.9584C16.9541 23.8221 13.1783 20.0384 11.0422 15.4114L13.597 13.7133C15.7973 12.2509 16.4671 9.32203 15.1197 7.0475L12.0743 1.90642C11.2331 0.48289 9.58368 -0.251259 7.92272 0.0778459C5.24533 0.613372 2.88728 2.25694 1.45219 4.58405C0.0268421 6.89752 -0.366286 9.6044 0.348335 12.2022C3.60015 24.0344 12.9739 33.4032 24.811 36.6534C25.658 36.8851 26.5129 37 27.3638 37C29.126 37 30.8627 36.5073 32.4224 35.5453C34.7474 34.1101 36.3889 31.7518 36.9244 29.0742C37.2476 27.4598 36.5155 25.8065 35.0979 24.9614ZM35.0142 28.6905C34.5839 30.8404 33.2677 32.7352 31.4003 33.8881C29.5485 35.0292 27.3873 35.3408 25.3291 34.7761C14.1503 31.707 5.29633 22.8601 2.22755 11.6861C1.65702 9.61606 1.97024 7.45647 3.1113 5.60646C4.26404 3.73894 6.15679 2.41858 8.34154 1.98237C8.46811 1.95705 8.59671 1.94344 8.72328 1.94344C9.40285 1.94344 10.0475 2.2998 10.4 2.89959L13.4434 8.03871C14.2632 9.42135 13.8561 11.2012 12.5164 12.0912L9.28186 14.243C8.89437 14.502 8.7448 14.9986 8.92199 15.4289C11.2898 21.1036 15.8871 25.7131 21.5379 28.0772C21.9721 28.2583 22.4665 28.1083 22.7216 27.7208L24.8927 24.4784C25.7884 23.1425 27.5661 22.7394 28.9526 23.5651L34.0991 26.6341C34.8098 27.0567 35.1759 27.8824 35.0142 28.6905Z" fill="url(#paint0_linear_1740_2895)"/>
<defs>
<linearGradient id="paint0_linear_1740_2895" x1="0" y1="0" x2="44.6474" y2="19.4006" gradientUnits="userSpaceOnUse">
<stop stop-color="#7FC6A4"/>
<stop offset="1" stop-color="#33658A"/>
</linearGradient>
</defs>
</svg>
