<svg width="19" height="23" viewBox="0 0 19 23" fill="none" xmlns="http://www.w3.org/2000/svg">
<g id="rss 1" clip-path="url(#clip0_1697_1621)">
<path id="Vector" d="M1.08542 7.7377C0.527294 7.70762 0.0396424 8.12871 0.00319464 8.6959C-0.0332531 9.26309 0.392228 9.75508 0.952771 9.7916C6.0463 10.13 10.5249 14.6342 10.8599 19.8291C10.8963 20.3791 11.3416 20.7959 11.8378 20.7959C11.8603 20.7959 11.8828 20.7946 11.9054 20.7932C12.4661 20.757 12.8915 20.2656 12.855 19.6975C12.4952 13.5041 7.19807 8.1373 1.08542 7.7377ZM1.35812 1.5459C0.608722 1.5459 0.000976562 2.16078 0.000976562 2.9209C0.000976562 3.68102 0.608722 4.2959 1.35812 4.2959C9.59004 4.2959 16.2867 11.0807 16.2867 19.4209C16.2867 20.181 16.8944 20.7959 17.6438 20.7959C18.3932 20.7959 19.001 20.181 19.001 19.4209C19.001 9.56387 11.0871 1.5459 1.35812 1.5459ZM2.67709 15.2916C1.2152 15.2916 0.000976562 16.5248 0.000976562 18.0459C0.000976562 19.567 1.2152 20.7959 2.67709 20.7959C4.13899 20.7959 5.39477 19.5661 5.39477 18.0459C5.39477 16.5257 4.21533 15.2916 2.67709 15.2916Z" fill="white"/>
</g>
<defs>
<clipPath id="clip0_1697_1621">
<rect width="19" height="22" fill="white" transform="translate(0.000976562 0.170898)"/>
</clipPath>
</defs>
</svg>
