<svg xmlns="http://www.w3.org/2000/svg" viewBox="0 0 2118.86 400"><defs><style>.cls-1{fill:#fff;}</style></defs><title>logo white - no subtext</title><g id="Layer_2" data-name="Layer 2"><g id="logo"><g id="logo_white_-_no_subtext" data-name="logo white - no subtext"><g id="outer"><path class="cls-1" d="M53.3,330.1a8,8,0,0,1-6-2.71C17,293.33.26,249,0,202.52A192.73,192.73,0,0,1,45.91,76.26,8.07,8.07,0,0,1,58.17,86.75C1.45,153.16,1.94,252,59.33,316.68a8.06,8.06,0,0,1-6,13.42Z"/><path class="cls-1" d="M200.88,400h-.76A204.72,204.72,0,0,1,76.05,357.38a8.07,8.07,0,0,1,9.88-12.75c66.82,51.81,163.1,52.17,223.94.83a8.07,8.07,0,0,1,10.4,12.34C288,385,245.62,400,200.88,400Z"/><path class="cls-1" d="M347.17,329.48a8.06,8.06,0,0,1-6-13.42c55.77-62.94,57.07-163.72,3-229.42a8.06,8.06,0,1,1,12.44-10.26C385,110.91,400.42,155.53,400,202c-.43,46.89-17,91.2-46.79,124.76A8,8,0,0,1,347.17,329.48Z"/><path class="cls-1" d="M322.63,63.12a8,8,0,0,1-5.52-2.18C253.86,1.63,146.79,1.08,83.31,59.74A8.07,8.07,0,0,1,72.37,47.88,176.58,176.58,0,0,1,131.43,12,196.46,196.46,0,0,1,199.5,0h.13c49.06,0,94.69,17.46,128.51,49.16a8.07,8.07,0,0,1-5.51,14Z"/></g><g id="middle"><path class="cls-1" d="M92.65,287.26a5.19,5.19,0,0,1-4.15-2.06A141.7,141.7,0,0,1,60,200.82a135.65,135.65,0,0,1,28.65-84.09,5.21,5.21,0,0,1,7.27-.88,5.11,5.11,0,0,1,.89,7.21c-35.41,45-35.42,109.16,0,156a5.11,5.11,0,0,1-1,7.19A5.2,5.2,0,0,1,92.65,287.26Z"/><path class="cls-1" d="M200,340H198a140.38,140.38,0,0,1-85.58-30.68,5.1,5.1,0,0,1-.77-7.22,5.19,5.19,0,0,1,7.28-.76A129.25,129.25,0,0,0,278,303.68a5.19,5.19,0,0,1,7.25,1,5.12,5.12,0,0,1-1,7.2A140.42,140.42,0,0,1,200,340Z"/><path class="cls-1" d="M306.86,286.17a5.22,5.22,0,0,1-3.17-1.07,5.12,5.12,0,0,1-.92-7.21A126.74,126.74,0,0,0,301.62,120a5.11,5.11,0,0,1,.83-7.22,5.19,5.19,0,0,1,7.27.81A137.52,137.52,0,0,1,311,284.18,5.17,5.17,0,0,1,306.86,286.17Z"/><path class="cls-1" d="M118.54,99.21a5.18,5.18,0,0,1-4.05-1.93,5.12,5.12,0,0,1,.82-7.22,140.19,140.19,0,0,1,170.62-2.2,5.12,5.12,0,0,1,1,7.2,5.2,5.2,0,0,1-7.25,1,129.42,129.42,0,0,0-157.92,2A5.18,5.18,0,0,1,118.54,99.21Z"/></g><g id="inner"><path class="cls-1" d="M131,254.19a3.45,3.45,0,0,1-2.75-1.38c-22.79-30.71-24.37-73.14-3.84-103.19a3.42,3.42,0,0,1,5.65,3.87c-18.91,27.68-17.4,66.83,3.68,95.23a3.43,3.43,0,0,1-.7,4.79A3.38,3.38,0,0,1,131,254.19Z"/><path class="cls-1" d="M201.38,290A90.73,90.73,0,0,1,148,272.73a3.42,3.42,0,0,1,4-5.54,84.39,84.39,0,0,0,95.2,2.45,3.42,3.42,0,0,1,3.73,5.74A90.6,90.6,0,0,1,201.38,290Z"/><path class="cls-1" d="M269.08,257.28a3.42,3.42,0,0,1-2.73-5.48A84.9,84.9,0,0,0,266.66,151a3.42,3.42,0,1,1,5.49-4.08,91.43,91.43,0,0,1-.33,109A3.44,3.44,0,0,1,269.08,257.28Z"/><path class="cls-1" d="M251.82,134.61a3.39,3.39,0,0,1-2.06-.7,84.37,84.37,0,0,0-100.55-.73,3.42,3.42,0,0,1-4.05-5.52,90.88,90.88,0,0,1,108.73.79,3.43,3.43,0,0,1-2.07,6.16Z"/></g><g id="text"><path class="cls-1" d="M559.92,257.32a48.61,48.61,0,0,0,23.68-5.6q10.23-5.59,10.24-18.08,0-12.79-10.72-18.72t-27.36-9.76a134.8,134.8,0,0,1-14.88-4.64,46.49,46.49,0,0,1-12.64-7,32.4,32.4,0,0,1-8.64-10.4,32,32,0,0,1-.48-26.88,31.71,31.71,0,0,1,8.16-10.88,40.76,40.76,0,0,1,13.6-7.68,57.16,57.16,0,0,1,19-2.88,54.38,54.38,0,0,1,17.28,2.56,44.81,44.81,0,0,1,13.28,6.88,36.44,36.44,0,0,1,13.6,21H590.64a27.94,27.94,0,0,0-3-6.56,22.12,22.12,0,0,0-5.76-6.08,31.8,31.8,0,0,0-9.12-4.48,43,43,0,0,0-13.12-1.76q-14.73,0-22.56,6.24a19.7,19.7,0,0,0-7.84,16.16q0,11.52,8.64,16.8t23.68,8.8A151.41,151.41,0,0,1,579,199.56a61.15,61.15,0,0,1,14.4,7.52A32.75,32.75,0,0,1,603.12,218a31.52,31.52,0,0,1,3.52,15.36,30.18,30.18,0,0,1-3.84,15.52,34.29,34.29,0,0,1-10.4,11,48.24,48.24,0,0,1-15,6.72,69.48,69.48,0,0,1-17.76,2.24q-20.16,0-32.8-9t-15.2-21.12h13.12q1.59,6.41,10.08,12.48T559.92,257.32Z"/><path class="cls-1" d="M630.32,202a69.11,69.11,0,0,1,5-26.08,64.55,64.55,0,0,1,13.92-21.44A67.2,67.2,0,0,1,670,140a62.9,62.9,0,0,1,25.92-5.28,65.13,65.13,0,0,1,46.88,19.68,68.52,68.52,0,0,1,13.92,21.44,67.91,67.91,0,0,1-13.92,73.44,65.86,65.86,0,0,1-21,14.24,64.39,64.39,0,0,1-25.92,5.28A62.9,62.9,0,0,1,670,263.56a68.64,68.64,0,0,1-20.8-14.24,63.08,63.08,0,0,1-13.92-21.12A68.74,68.74,0,0,1,630.32,202Zm13.12,0a59.71,59.71,0,0,0,4,22.24,52.65,52.65,0,0,0,69.28,28.64,53.66,53.66,0,0,0,16.8-11.36,50.43,50.43,0,0,0,11.2-17.28,63.38,63.38,0,0,0,0-44.32,52.8,52.8,0,0,0-69.6-29.12,50.47,50.47,0,0,0-16.64,11.52,52.85,52.85,0,0,0-11,17.6A60.11,60.11,0,0,0,643.44,202Z"/><path class="cls-1" d="M814,266H800.88V57H814Z"/><path class="cls-1" d="M959,244.2a63.83,63.83,0,0,1-7.36,8.64,49.36,49.36,0,0,1-10.72,8,69.55,69.55,0,0,1-14.24,5.92,62.27,62.27,0,0,1-17.92,2.4q-21.44,0-34.4-13.12t-13-39V138h13.12v79q0,20.81,9.12,30.56t25.12,9.76a54.78,54.78,0,0,0,17.12-2.56A60.63,60.63,0,0,0,940.07,248a58.7,58.7,0,0,0,11-9.12,76.87,76.87,0,0,0,7.84-9.76V138h13.12V266H959.59Z"/><path class="cls-1" d="M999,138h28.48l3.2-45.44h9.92V138h42.24v11.2h-42.24v79.68a48.47,48.47,0,0,0,1.76,14.24,21.18,21.18,0,0,0,5,8.8,16.31,16.31,0,0,0,8,4.32,46.3,46.3,0,0,0,10.56,1.12,83.84,83.84,0,0,0,11.52-.64,66.81,66.81,0,0,0,8-1.6V266q-7.68,2.88-19.52,2.88a58.21,58.21,0,0,1-15.36-1.92,30.22,30.22,0,0,1-12.16-6.4,29.5,29.5,0,0,1-8-12.32q-2.88-7.84-2.88-19.36V149.16H999Z"/><path class="cls-1" d="M1116.39,90.6a10.3,10.3,0,0,1,2.72-7.36,9.43,9.43,0,0,1,7.2-2.88,9.86,9.86,0,0,1,10.24,10.24,9.43,9.43,0,0,1-2.88,7.2,10.3,10.3,0,0,1-7.36,2.72,9.35,9.35,0,0,1-9.92-9.92Zm3.52,47.36H1133V266h-13.12Z"/><path class="cls-1" d="M1172.71,202a69.11,69.11,0,0,1,5-26.08,64.55,64.55,0,0,1,13.92-21.44,67.2,67.2,0,0,1,20.8-14.4,62.9,62.9,0,0,1,25.92-5.28,65.13,65.13,0,0,1,46.88,19.68,68.52,68.52,0,0,1,13.92,21.44,67.91,67.91,0,0,1-13.92,73.44,65.86,65.86,0,0,1-21,14.24,64.39,64.39,0,0,1-25.92,5.28,62.9,62.9,0,0,1-25.92-5.28,68.64,68.64,0,0,1-20.8-14.24,63.08,63.08,0,0,1-13.92-21.12A68.74,68.74,0,0,1,1172.71,202Zm13.12,0a59.71,59.71,0,0,0,4,22.24,52.65,52.65,0,0,0,69.28,28.64,53.66,53.66,0,0,0,16.8-11.36,50.43,50.43,0,0,0,11.2-17.28,63.38,63.38,0,0,0,0-44.32,52.8,52.8,0,0,0-69.6-29.12,50.47,50.47,0,0,0-16.64,11.52,52.85,52.85,0,0,0-11,17.6A60.11,60.11,0,0,0,1185.83,202Z"/><path class="cls-1" d="M1341.34,138h11.84l1.28,18.24a98.06,98.06,0,0,1,8-7,68.59,68.59,0,0,1,10.88-7,67.51,67.51,0,0,1,13.76-5.28,64.69,64.69,0,0,1,17-2.08q24,0,37.61,14.88t13.59,40.48V266h-13.12V190.12q0-20.16-10.08-31.84t-29.27-11.68a56.36,56.36,0,0,0-16.16,2.24,59.05,59.05,0,0,0-13.45,5.76,68.14,68.14,0,0,0-10.72,7.84,80.37,80.37,0,0,0-8,8.16V266h-13.12Z"/><path class="cls-1" d="M1514.46,266H1502V57h13.12V160.36a59.76,59.76,0,0,1,21-18.56q13-7,29.6-7a63.22,63.22,0,0,1,25.92,5.12,59.27,59.27,0,0,1,19.68,13.92,61.94,61.94,0,0,1,12.64,21,75.47,75.47,0,0,1,4.48,26.24,81.23,81.23,0,0,1-4.32,27,63.07,63.07,0,0,1-12.48,21.44,56.83,56.83,0,0,1-19.84,14.24,65.2,65.2,0,0,1-26.4,5.12,64.43,64.43,0,0,1-29.76-6.88,48,48,0,0,1-20.48-19.36Zm51.2-9a48.71,48.71,0,0,0,20.8-4.32,44.67,44.67,0,0,0,15.68-12,53.84,53.84,0,0,0,9.76-17.92,69.38,69.38,0,0,0,3.36-21.76,61.65,61.65,0,0,0-3.52-20.8,53.52,53.52,0,0,0-10.08-17.44A47.64,47.64,0,0,0,1586,150.92a46.86,46.86,0,0,0-20.32-4.32,54.27,54.27,0,0,0-21.76,4.16,45.48,45.48,0,0,0-16.16,11.52,49.62,49.62,0,0,0-9.92,17.28,69.54,69.54,0,0,0,.16,43.2,54.69,54.69,0,0,0,10.08,17.92,45.84,45.84,0,0,0,16,12A51.36,51.36,0,0,0,1565.66,257Z"/><path class="cls-1" d="M1763.1,244.2a64.56,64.56,0,0,1-7.36,8.64,49.36,49.36,0,0,1-10.72,8,69.55,69.55,0,0,1-14.24,5.92,62.32,62.32,0,0,1-17.92,2.4q-21.45,0-34.4-13.12t-13-39V138h13.12v79q0,20.81,9.12,30.56t25.12,9.76a54.78,54.78,0,0,0,17.12-2.56,60.63,60.63,0,0,0,14.24-6.72,59,59,0,0,0,11-9.12,77.77,77.77,0,0,0,7.84-9.76V138h13.12V266h-12.48Z"/><path class="cls-1" d="M1821.34,90.6a10.25,10.25,0,0,1,2.72-7.36,9.43,9.43,0,0,1,7.2-2.88A9.86,9.86,0,0,1,1841.5,90.6a9.43,9.43,0,0,1-2.88,7.2,10.31,10.31,0,0,1-7.36,2.72,9.35,9.35,0,0,1-9.92-9.92Zm3.52,47.36H1838V266h-13.12Z"/><path class="cls-1" d="M1901.65,266h-13.12V57h13.12Z"/><path class="cls-1" d="M1930.45,138h28.48l3.2-45.44h9.92V138h42.24v11.2h-42.24v79.68a48.47,48.47,0,0,0,1.76,14.24,21.18,21.18,0,0,0,5,8.8,16.31,16.31,0,0,0,8,4.32,46.3,46.3,0,0,0,10.56,1.12,83.84,83.84,0,0,0,11.52-.64,66.81,66.81,0,0,0,8-1.6V266q-7.68,2.88-19.52,2.88a58.21,58.21,0,0,1-15.36-1.92,30.22,30.22,0,0,1-12.16-6.4,29.5,29.5,0,0,1-8-12.32q-2.88-7.84-2.88-19.36V149.16h-28.48Z"/><path class="cls-1" d="M2035.14,108.55a41.57,41.57,0,0,1,12.22-29.68,43.46,43.46,0,0,1,13.28-9,40,40,0,0,1,16.3-3.33,40.46,40.46,0,0,1,16.36,3.33,42.11,42.11,0,0,1,22.24,22.27,40.68,40.68,0,0,1,3.32,16.38,40.26,40.26,0,0,1-3.32,16.32,43.26,43.26,0,0,1-9,13.29,41.4,41.4,0,0,1-29.63,12.25,40.64,40.64,0,0,1-16.3-3.27,42.11,42.11,0,0,1-22.24-22.27A40.73,40.73,0,0,1,2035.14,108.55Zm5,0a36.91,36.91,0,0,0,2.86,14.57,36.05,36.05,0,0,0,7.88,11.72,36.55,36.55,0,0,0,26.05,10.55,37.2,37.2,0,0,0,14.42-2.79,35.83,35.83,0,0,0,11.68-7.76,37,37,0,0,0,7.88-11.72,37.84,37.84,0,0,0,0-29.15A37.25,37.25,0,0,0,2103,82.25a36.7,36.7,0,0,0-26.1-10.66,36.14,36.14,0,0,0-14.37,2.85,37.69,37.69,0,0,0-11.68,7.81A36.27,36.27,0,0,0,2043,94,37,37,0,0,0,2040.15,108.55Zm29.38,20.29H2065V88.14H2079a21.3,21.3,0,0,1,5.32.65,12.8,12.8,0,0,1,4.45,2,9.77,9.77,0,0,1,3.05,3.69,12.66,12.66,0,0,1,1.11,5.57q0,5.63-3.26,8.26a15.48,15.48,0,0,1-8,3.22l13.86,17.26h-5.81L2076,111.65h-6.51Zm9.57-21.57a12,12,0,0,0,6.18-1.58c1.78-1,2.68-2.89,2.68-5.54s-.88-4.5-2.63-5.59a11.74,11.74,0,0,0-6.35-1.64h-9.45v14.35Z"/></g></g></g></g></svg>