<svg width="86" height="75" viewBox="0 0 86 75" fill="none" xmlns="http://www.w3.org/2000/svg">
<g id="site_maintenance">
<path id="shape" d="M66.19 57.28H12.81C12.92 56.86 13 56.43 13 55.98C13 55.91 12.98 55.85 12.98 55.78H66.02C66.02 55.85 66 55.91 66 55.98C66 56.43 66.08 56.87 66.19 57.28ZM78 11.98C77.74 11.98 77.5 11.94 77.25 11.9V41.98C77.25 42.12 77.14 42.23 77 42.23H63C62.86 42.23 62.75 42.12 62.75 41.98V7.97998C62.75 7.83998 62.86 7.72998 63 7.72998H73.08C73.04 7.47998 73 7.23998 73 6.97998C73 6.71998 73.04 6.47998 73.08 6.22998H63C62.04 6.22998 61.25 7.01998 61.25 7.97998V41.98C61.25 42.94 62.04 43.73 63 43.73H77C77.96 43.73 78.75 42.94 78.75 41.98V11.9C78.5 11.94 78.26 11.98 78 11.98ZM85.75 2.97998V47.22C85.75 48.74 84.52 49.97 83 49.97H78.43V54.54C78.43 56.01 77.26 57.21 75.81 57.28C75.92 56.87 76 56.44 76 55.99C76 55.9 75.98 55.82 75.97 55.73C76.52 55.6 76.93 55.13 76.93 54.54V49.97H17.14C15.62 49.97 14.39 48.74 14.39 47.22V9.04998H9.82C9.13 9.04998 8.57 9.60998 8.57 10.3V51.04C8.38 51.02 8.19 50.98 8 50.98C7.68 50.98 7.37 51.02 7.07 51.07V16.7H3C2.31 16.7 1.75 17.26 1.75 17.95V62.19C1.75 62.88 2.31 63.44 3 63.44H31.06C31.04 63.62 31.01 63.8 31.01 63.98C31.01 64.31 31.05 64.63 31.11 64.94H29.56C28.97 71.02 28.87 71.38 28.82 71.56C28.62 72.28 28.1 72.64 27.87 72.79C27.78 72.85 27.64 72.94 27.45 73.07C27.34 73.14 27.17 73.25 26.97 73.38C27.21 73.39 27.45 73.4 27.69 73.4H43.82C44.06 73.4 44.3 73.4 44.54 73.38C44.35 73.26 44.18 73.15 44.07 73.08C43.87 72.95 43.73 72.86 43.69 72.83C43.42 72.64 42.89 72.28 42.7 71.56C42.65 71.38 42.55 71.02 41.96 64.94H40.91C40.97 64.63 41.01 64.31 41.01 63.98C41.01 63.79 40.97 63.62 40.96 63.44H68.88C69.57 63.44 70.13 62.88 70.13 62.19V60.89C70.42 60.94 70.71 60.98 71.02 60.98C71.23 60.98 71.43 60.94 71.63 60.92V62.19C71.63 63.71 70.4 64.94 68.88 64.94H43.48C43.96 69.91 44.11 70.98 44.16 71.17C44.21 71.34 44.34 71.45 44.51 71.56C44.62 71.64 44.74 71.71 44.9 71.81C46.72 72.98 46.94 73.19 47.07 73.45C47.19 73.68 47.17 74.01 47.04 74.23C46.91 74.45 46.63 74.9 43.84 74.9H27.71C24.92 74.9 24.65 74.45 24.51 74.23C24.37 74.01 24.36 73.68 24.48 73.45C24.61 73.19 24.83 72.98 26.66 71.81C26.82 71.71 26.93 71.64 26.97 71.61C27.21 71.44 27.34 71.34 27.39 71.17C27.44 70.99 27.59 69.91 28.07 64.95H3C1.48 64.95 0.25 63.72 0.25 62.2V17.95C0.25 16.43 1.48 15.2 3 15.2H7.07V10.3C7.07 8.77998 8.3 7.54998 9.82 7.54998H14.39V2.97998C14.39 1.45998 15.62 0.22998 17.14 0.22998H83C84.52 0.22998 85.75 1.45998 85.75 2.97998ZM84.25 2.97998C84.25 2.28998 83.69 1.72998 83 1.72998H17.14C16.45 1.72998 15.89 2.28998 15.89 2.97998V47.22C15.89 47.91 16.45 48.47 17.14 48.47H83C83.69 48.47 84.25 47.91 84.25 47.22V2.97998ZM58.75 7.97998V41.98C58.75 42.94 57.96 43.73 57 43.73H43C42.04 43.73 41.25 42.94 41.25 41.98V7.97998C41.25 7.01998 42.04 6.22998 43 6.22998H57C57.96 6.22998 58.75 7.01998 58.75 7.97998ZM57.25 7.97998C57.25 7.83998 57.14 7.72998 57 7.72998H43C42.86 7.72998 42.75 7.83998 42.75 7.97998V41.98C42.75 42.12 42.86 42.23 43 42.23H57C57.14 42.23 57.25 42.12 57.25 41.98V7.97998ZM37 6.22998H26.92C26.96 6.47998 27 6.71998 27 6.97998C27 7.23998 26.96 7.47998 26.92 7.72998H37C37.14 7.72998 37.25 7.83998 37.25 7.97998V41.98C37.25 42.12 37.14 42.23 37 42.23H23C22.86 42.23 22.75 42.12 22.75 41.98V11.9C22.5 11.94 22.26 11.98 22 11.98C21.74 11.98 21.5 11.94 21.25 11.9V41.98C21.25 42.94 22.04 43.73 23 43.73H37C37.96 43.73 38.75 42.94 38.75 41.98V7.97998C38.75 7.01998 37.96 6.22998 37 6.22998Z" fill="black"/>
<path id="dot" d="M22 9.47998C23.3807 9.47998 24.5 8.36069 24.5 6.97998C24.5 5.59927 23.3807 4.47998 22 4.47998C20.6193 4.47998 19.5 5.59927 19.5 6.97998C19.5 8.36069 20.6193 9.47998 22 9.47998Z" fill="#34658A"/>
<path id="dot-2" d="M78 9.47998C79.3807 9.47998 80.5 8.36069 80.5 6.97998C80.5 5.59927 79.3807 4.47998 78 4.47998C76.6193 4.47998 75.5 5.59927 75.5 6.97998C75.5 8.36069 76.6193 9.47998 78 9.47998Z" fill="#34658A"/>
<path id="dot-3" d="M71 58.48C72.3807 58.48 73.5 57.3607 73.5 55.98C73.5 54.5993 72.3807 53.48 71 53.48C69.6193 53.48 68.5 54.5993 68.5 55.98C68.5 57.3607 69.6193 58.48 71 58.48Z" fill="#34658A"/>
<path id="dot-4" d="M8 58.48C9.38071 58.48 10.5 57.3607 10.5 55.98C10.5 54.5993 9.38071 53.48 8 53.48C6.61929 53.48 5.5 54.5993 5.5 55.98C5.5 57.3607 6.61929 58.48 8 58.48Z" fill="#34658A"/>
<path id="dot-5" d="M36 66.48C37.3807 66.48 38.5 65.3607 38.5 63.98C38.5 62.5993 37.3807 61.48 36 61.48C34.6193 61.48 33.5 62.5993 33.5 63.98C33.5 65.3607 34.6193 66.48 36 66.48Z" fill="#34658A"/>
</g>
</svg>
