<svg width="88" height="62" viewBox="0 0 88 62" fill="none" xmlns="http://www.w3.org/2000/svg">
<g id="site_hosting">
<path id="shape" d="M15.745 32.6499C13.675 32.6499 11.995 34.3299 11.995 36.3999C11.995 38.4699 13.675 40.1499 15.745 40.1499C17.815 40.1499 19.495 38.4699 19.495 36.3999C19.495 34.3299 17.815 32.6499 15.745 32.6499ZM15.745 38.6499C14.505 38.6499 13.495 37.6399 13.495 36.3999C13.495 35.1599 14.505 34.1499 15.745 34.1499C16.985 34.1499 17.995 35.1599 17.995 36.3999C17.995 37.6399 16.985 38.6499 15.745 38.6499ZM7.645 60.3999C7.715 60.0799 7.745 59.7399 7.745 59.3999C7.745 59.2299 7.71499 59.0699 7.69499 58.8999H15.025V51.3299C15.265 51.3599 15.495 51.3999 15.745 51.3999C16.015 51.3999 16.265 51.3599 16.525 51.3199V58.8999H44.025V51.3299C44.265 51.3599 44.495 51.3999 44.745 51.3999C45.015 51.3999 45.265 51.3599 45.525 51.3199V58.8999H73.025V51.3199C73.275 51.3599 73.515 51.3999 73.775 51.3999C74.035 51.3999 74.275 51.3599 74.525 51.3199V58.8999H80.305C80.285 59.0699 80.255 59.2299 80.255 59.3999C80.255 59.7399 80.295 60.0799 80.355 60.3999H7.645ZM35.745 47.1499H39.825C39.785 46.8999 39.745 46.6599 39.745 46.3999C39.745 46.1399 39.785 45.8999 39.825 45.6499H35.745C35.605 45.6499 35.495 45.5399 35.495 45.3999V24.1099C35.575 24.1399 35.655 24.1499 35.745 24.1499H53.995V45.3999C53.995 45.5399 53.885 45.6499 53.745 45.6499H49.665C49.705 45.8999 49.745 46.1399 49.745 46.3999C49.745 46.6599 49.705 46.8999 49.665 47.1499H53.745C54.705 47.1499 55.495 46.3599 55.495 45.3999V23.6399C55.515 23.5699 55.535 23.4899 55.535 23.3999C55.535 23.3099 55.525 23.2399 55.495 23.1599V16.6299C55.515 16.5599 55.535 16.4799 55.535 16.3899C55.535 16.2999 55.525 16.2299 55.495 16.1499V9.6199C55.515 9.5499 55.535 9.4699 55.535 9.3799C55.535 9.2899 55.525 9.2199 55.495 9.1399V2.3999C55.495 1.4399 54.705 0.649902 53.745 0.649902H35.745C34.785 0.649902 33.995 1.4399 33.995 2.3999V45.3999C33.995 46.3599 34.785 47.1499 35.745 47.1499ZM35.495 2.3999C35.495 2.2599 35.605 2.1499 35.745 2.1499H53.745C53.885 2.1499 53.995 2.2599 53.995 2.3999V8.6499H35.745C35.655 8.6499 35.575 8.6599 35.495 8.6899V2.3999ZM35.495 10.1099C35.575 10.1399 35.655 10.1499 35.745 10.1499H53.995V15.6499H35.745C35.655 15.6499 35.575 15.6599 35.495 15.6899V10.0999V10.1099ZM35.495 17.1099C35.575 17.1399 35.655 17.1499 35.745 17.1499H53.995V22.6499H35.745C35.655 22.6499 35.575 22.6599 35.495 22.6899V17.0999V17.1099ZM64.745 47.1499H68.855C68.815 46.8999 68.775 46.6599 68.775 46.3999C68.775 46.1399 68.815 45.8999 68.855 45.6499H64.745C64.605 45.6499 64.495 45.5399 64.495 45.3999V24.1099C64.575 24.1399 64.655 24.1499 64.745 24.1499H82.995V45.3999C82.995 45.5399 82.885 45.6499 82.745 45.6499H78.695C78.735 45.8999 78.775 46.1399 78.775 46.3999C78.775 46.6599 78.735 46.8999 78.695 47.1499H82.745C83.705 47.1499 84.495 46.3599 84.495 45.3999V23.6399C84.515 23.5699 84.535 23.4899 84.535 23.3999C84.535 23.3099 84.525 23.2399 84.495 23.1599V16.6299C84.515 16.5599 84.535 16.4799 84.535 16.3899C84.535 16.2999 84.525 16.2299 84.495 16.1499V9.6199C84.515 9.5499 84.535 9.4699 84.535 9.3799C84.535 9.2899 84.525 9.2199 84.495 9.1399V2.3999C84.495 1.4399 83.705 0.649902 82.745 0.649902H64.745C63.785 0.649902 62.995 1.4399 62.995 2.3999V45.3999C62.995 46.3599 63.785 47.1499 64.745 47.1499ZM64.495 2.3999C64.495 2.2599 64.605 2.1499 64.745 2.1499H82.745C82.885 2.1499 82.995 2.2599 82.995 2.3999V8.6499H64.745C64.655 8.6499 64.575 8.6599 64.495 8.6899V2.3999ZM64.495 10.1099C64.575 10.1399 64.655 10.1499 64.745 10.1499H82.995V15.6499H64.745C64.655 15.6499 64.575 15.6599 64.495 15.6899V10.0999V10.1099ZM64.495 17.1099C64.575 17.1399 64.655 17.1499 64.745 17.1499H82.995V22.6499H64.745C64.655 22.6499 64.575 22.6599 64.495 22.6899V17.0999V17.1099ZM6.745 47.1499H10.825C10.785 46.8999 10.745 46.6599 10.745 46.3999C10.745 46.1399 10.785 45.8999 10.825 45.6499H6.745C6.605 45.6499 6.495 45.5399 6.495 45.3999V24.1099C6.575 24.1399 6.655 24.1499 6.745 24.1499H24.995V45.3999C24.995 45.5399 24.885 45.6499 24.745 45.6499H20.665C20.705 45.8999 20.745 46.1399 20.745 46.3999C20.745 46.6599 20.705 46.8999 20.665 47.1499H24.745C25.705 47.1499 26.495 46.3599 26.495 45.3999V23.6399C26.515 23.5699 26.535 23.4899 26.535 23.3999C26.535 23.3099 26.525 23.2399 26.495 23.1599V16.6299C26.515 16.5599 26.535 16.4799 26.535 16.3899C26.535 16.2999 26.525 16.2299 26.495 16.1499V9.6199C26.515 9.5499 26.535 9.4699 26.535 9.3799C26.535 9.2899 26.525 9.2199 26.495 9.1399V2.3999C26.495 1.4399 25.705 0.649902 24.745 0.649902H6.745C5.785 0.649902 4.995 1.4399 4.995 2.3999V45.3999C4.995 46.3599 5.785 47.1499 6.745 47.1499ZM6.495 2.3999C6.495 2.2599 6.605 2.1499 6.745 2.1499H24.745C24.885 2.1499 24.995 2.2599 24.995 2.3999V8.6499H6.745C6.655 8.6499 6.575 8.6599 6.495 8.6899V2.3999ZM6.495 10.1099C6.575 10.1399 6.655 10.1499 6.745 10.1499H24.995V15.6499H6.745C6.655 15.6499 6.575 15.6599 6.495 15.6899V10.0999V10.1099ZM6.495 17.1099C6.575 17.1399 6.655 17.1499 6.745 17.1499H24.995V22.6499H6.745C6.655 22.6499 6.575 22.6599 6.495 22.6899V17.0999V17.1099ZM44.745 32.6499C42.675 32.6499 40.995 34.3299 40.995 36.3999C40.995 38.4699 42.675 40.1499 44.745 40.1499C46.815 40.1499 48.495 38.4699 48.495 36.3999C48.495 34.3299 46.815 32.6499 44.745 32.6499ZM44.745 38.6499C43.505 38.6499 42.495 37.6399 42.495 36.3999C42.495 35.1599 43.505 34.1499 44.745 34.1499C45.985 34.1499 46.995 35.1599 46.995 36.3999C46.995 37.6399 45.985 38.6499 44.745 38.6499ZM73.745 32.6499C71.675 32.6499 69.995 34.3299 69.995 36.3999C69.995 38.4699 71.675 40.1499 73.745 40.1499C75.815 40.1499 77.495 38.4699 77.495 36.3999C77.495 34.3299 75.815 32.6499 73.745 32.6499ZM73.745 38.6499C72.505 38.6499 71.495 37.6399 71.495 36.3999C71.495 35.1599 72.505 34.1499 73.745 34.1499C74.985 34.1499 75.995 35.1599 75.995 36.3999C75.995 37.6399 74.985 38.6499 73.745 38.6499Z" fill="black"/>
<path id="dot" d="M2.745 61.8999C4.12571 61.8999 5.245 60.7806 5.245 59.3999C5.245 58.0192 4.12571 56.8999 2.745 56.8999C1.36428 56.8999 0.244995 58.0192 0.244995 59.3999C0.244995 60.7806 1.36428 61.8999 2.745 61.8999Z" fill="#34658A"/>
<path id="dot-2" d="M15.745 48.8999C17.1257 48.8999 18.245 47.7806 18.245 46.3999C18.245 45.0192 17.1257 43.8999 15.745 43.8999C14.3643 43.8999 13.245 45.0192 13.245 46.3999C13.245 47.7806 14.3643 48.8999 15.745 48.8999Z" fill="#34658A"/>
<path id="dot-3" d="M44.745 48.8999C46.1257 48.8999 47.245 47.7806 47.245 46.3999C47.245 45.0192 46.1257 43.8999 44.745 43.8999C43.3643 43.8999 42.245 45.0192 42.245 46.3999C42.245 47.7806 43.3643 48.8999 44.745 48.8999Z" fill="#34658A"/>
<path id="dot-4" d="M73.775 48.8999C75.1557 48.8999 76.275 47.7806 76.275 46.3999C76.275 45.0192 75.1557 43.8999 73.775 43.8999C72.3943 43.8999 71.275 45.0192 71.275 46.3999C71.275 47.7806 72.3943 48.8999 73.775 48.8999Z" fill="#34658A"/>
<path id="dot-5" d="M85.255 61.8999C86.6357 61.8999 87.755 60.7806 87.755 59.3999C87.755 58.0192 86.6357 56.8999 85.255 56.8999C83.8743 56.8999 82.755 58.0192 82.755 59.3999C82.755 60.7806 83.8743 61.8999 85.255 61.8999Z" fill="#34658A"/>
</g>
</svg>
