<svg width="22" height="23" viewBox="0 0 22 23" fill="none" xmlns="http://www.w3.org/2000/svg">
<g id="twitter 1" clip-path="url(#clip0_1697_1617)">
<path id="Vector" d="M19.7393 6.68984C19.7533 6.88526 19.7533 7.08073 19.7533 7.27615C19.7533 13.2368 15.2165 20.1048 6.92459 20.1048C4.37001 20.1048 1.99693 19.3649 0.000732422 18.0807C0.363689 18.1226 0.712639 18.1365 1.08956 18.1365C3.19739 18.1365 5.13778 17.4246 6.68727 16.2102C4.70504 16.1683 3.04387 14.8701 2.47152 13.0832C2.75073 13.1251 3.0299 13.153 3.32308 13.153C3.72788 13.153 4.13274 13.0972 4.50961 12.9995C2.44363 12.5807 0.894096 10.766 0.894096 8.57436V8.51855C1.49433 8.85357 2.19235 9.06296 2.93215 9.09085C1.71768 8.28119 0.922025 6.89923 0.922025 5.33577C0.922025 4.49822 1.14533 3.73045 1.53622 3.0604C3.75577 5.79643 7.09208 7.5832 10.8332 7.77867C10.7634 7.44364 10.7215 7.09469 10.7215 6.7457C10.7215 4.2609 12.7316 2.23682 15.2304 2.23682C16.5286 2.23682 17.7012 2.78123 18.5248 3.66067C19.5438 3.46525 20.5209 3.08833 21.3865 2.57184C21.0514 3.61882 20.3395 4.49826 19.4042 5.0566C20.3116 4.95893 21.191 4.70761 22.0006 4.35866C21.3865 5.25202 20.6187 6.04767 19.7393 6.68984Z" fill="white"/>
</g>
<defs>
<clipPath id="clip0_1697_1617">
<rect width="22" height="22" fill="white" transform="translate(0.000732422 0.170898)"/>
</clipPath>
</defs>
</svg>
