<svg width="47" height="41" viewBox="0 0 47 41" fill="none" xmlns="http://www.w3.org/2000/svg">
<path d="M38.0059 30.5915V33.4298C38.0059 34.008 37.5294 34.481 36.9471 34.481H2.05882C1.47647 34.481 1 34.008 1 33.4298V10.198C1 9.61984 1.47647 9.14679 2.05882 9.14679H4.54706M41.6059 26.6495V29.3826C41.6059 29.9608 41.1294 30.4339 40.5471 30.4339H5.65882C5.07647 30.4339 4.6 29.9608 4.6 29.3826V6.15084C4.6 5.57267 5.07647 5.09962 5.65882 5.09962H8.41177M15.7706 34.481C15.5588 36.7937 15.4 38.0551 15.3471 38.2654C15.2941 38.4756 15.1353 38.6333 14.9765 38.7384C14.5529 39.0012 14.1824 39.264 13.7588 39.5794C13.7059 39.6845 14.5529 39.7371 15.1353 39.7371H19.7412M19.0529 39.7371H23.6588C24.1882 39.7371 25.0882 39.6845 25.0353 39.5794C24.6647 39.264 24.2412 39.0012 23.8706 38.7384C23.7118 38.6333 23.5529 38.4756 23.5 38.2654C23.4471 38.1077 23.3412 36.8463 23.0765 34.481M9.52353 1.2627H44.4118C44.9941 1.2627 45.4706 1.73574 45.4706 2.31391V25.5457C45.4706 26.1239 44.9941 26.5969 44.4118 26.5969H9.52353C8.94118 26.5969 8.46471 26.1239 8.46471 25.5457V2.31391C8.46471 1.73574 8.94118 1.2627 9.52353 1.2627ZM12.6471 4.41633H20.0588C20.3765 4.41633 20.5882 4.62658 20.5882 4.94194V22.8126C20.5882 23.1279 20.3765 23.3382 20.0588 23.3382H12.6471C12.3294 23.3382 12.1176 23.1279 12.1176 22.8126V4.94194C12.1176 4.62658 12.3294 4.41633 12.6471 4.41633ZM23.2353 4.41633H30.6471C30.9647 4.41633 31.1765 4.62658 31.1765 4.94194V22.8126C31.1765 23.1279 30.9647 23.3382 30.6471 23.3382H23.2353C22.9176 23.3382 22.7059 23.1279 22.7059 22.8126V4.94194C22.7059 4.62658 22.9176 4.41633 23.2353 4.41633ZM33.8235 4.41633H41.2353C41.5529 4.41633 41.7647 4.62658 41.7647 4.94194V22.8126C41.7647 23.1279 41.5529 23.3382 41.2353 23.3382H33.8235C33.5059 23.3382 33.2941 23.1279 33.2941 22.8126V4.94194C33.2941 4.62658 33.5059 4.41633 33.8235 4.41633Z" stroke="url(#paint0_linear_169_2272)" stroke-width="1.5" stroke-linecap="round" stroke-linejoin="round"/>
<path d="M39.9854 30.25C39.9854 29.1275 39.1079 28.25 37.9854 28.25C36.8628 28.25 35.9854 29.1275 35.9854 30.25C35.9854 31.3725 36.8628 32.25 37.9854 32.25C39.1079 32.25 39.9854 31.3725 39.9854 30.25Z" fill="white"/>
<path d="M39.9854 30.25C39.9854 29.1275 39.1079 28.25 37.9854 28.25C36.8628 28.25 35.9854 29.1275 35.9854 30.25C35.9854 31.3725 36.8628 32.25 37.9854 32.25C39.1079 32.25 39.9854 31.3725 39.9854 30.25Z" stroke="#00213E" stroke-width="1.5"/>
<path d="M39.9854 30.25C39.9854 29.1275 39.1079 28.25 37.9854 28.25C36.8628 28.25 35.9854 29.1275 35.9854 30.25C35.9854 31.3725 36.8628 32.25 37.9854 32.25C39.1079 32.25 39.9854 31.3725 39.9854 30.25Z" stroke="black" stroke-opacity="0.2" stroke-width="1.5"/>
<path d="M39.9854 30.25C39.9854 29.1275 39.1079 28.25 37.9854 28.25C36.8628 28.25 35.9854 29.1275 35.9854 30.25C35.9854 31.3725 36.8628 32.25 37.9854 32.25C39.1079 32.25 39.9854 31.3725 39.9854 30.25Z" stroke="black" stroke-opacity="0.2" stroke-width="1.5"/>
<path d="M7.98535 30.25C7.98535 29.1275 7.1079 28.25 5.98535 28.25C4.8628 28.25 3.98535 29.1275 3.98535 30.25C3.98535 31.3725 4.8628 32.25 5.98535 32.25C7.1079 32.25 7.98535 31.3725 7.98535 30.25Z" fill="white"/>
<path d="M7.98535 30.25C7.98535 29.1275 7.1079 28.25 5.98535 28.25C4.8628 28.25 3.98535 29.1275 3.98535 30.25C3.98535 31.3725 4.8628 32.25 5.98535 32.25C7.1079 32.25 7.98535 31.3725 7.98535 30.25Z" stroke="#00213E" stroke-width="1.5"/>
<path d="M7.98535 30.25C7.98535 29.1275 7.1079 28.25 5.98535 28.25C4.8628 28.25 3.98535 29.1275 3.98535 30.25C3.98535 31.3725 4.8628 32.25 5.98535 32.25C7.1079 32.25 7.98535 31.3725 7.98535 30.25Z" stroke="black" stroke-opacity="0.2" stroke-width="1.5"/>
<path d="M7.98535 30.25C7.98535 29.1275 7.1079 28.25 5.98535 28.25C4.8628 28.25 3.98535 29.1275 3.98535 30.25C3.98535 31.3725 4.8628 32.25 5.98535 32.25C7.1079 32.25 7.98535 31.3725 7.98535 30.25Z" stroke="black" stroke-opacity="0.2" stroke-width="1.5"/>
<path d="M21.4268 34.4248C21.4268 33.3023 20.5493 32.4248 19.4268 32.4248C18.3042 32.4248 17.4268 33.3023 17.4268 34.4248C17.4268 35.5474 18.3042 36.4248 19.4268 36.4248C20.5493 36.4248 21.4268 35.5474 21.4268 34.4248Z" fill="white"/>
<path d="M21.4268 34.4248C21.4268 33.3023 20.5493 32.4248 19.4268 32.4248C18.3042 32.4248 17.4268 33.3023 17.4268 34.4248C17.4268 35.5474 18.3042 36.4248 19.4268 36.4248C20.5493 36.4248 21.4268 35.5474 21.4268 34.4248Z" stroke="#00213E" stroke-width="1.5"/>
<path d="M21.4268 34.4248C21.4268 33.3023 20.5493 32.4248 19.4268 32.4248C18.3042 32.4248 17.4268 33.3023 17.4268 34.4248C17.4268 35.5474 18.3042 36.4248 19.4268 36.4248C20.5493 36.4248 21.4268 35.5474 21.4268 34.4248Z" stroke="black" stroke-opacity="0.2" stroke-width="1.5"/>
<path d="M21.4268 34.4248C21.4268 33.3023 20.5493 32.4248 19.4268 32.4248C18.3042 32.4248 17.4268 33.3023 17.4268 34.4248C17.4268 35.5474 18.3042 36.4248 19.4268 36.4248C20.5493 36.4248 21.4268 35.5474 21.4268 34.4248Z" stroke="black" stroke-opacity="0.2" stroke-width="1.5"/>
<path d="M42.9854 5.25C42.9854 4.12745 42.1079 3.25 40.9854 3.25C39.8628 3.25 38.9854 4.12745 38.9854 5.25C38.9854 6.37255 39.8628 7.25 40.9854 7.25C42.1079 7.25 42.9854 6.37255 42.9854 5.25Z" fill="white"/>
<path d="M42.9854 5.25C42.9854 4.12745 42.1079 3.25 40.9854 3.25C39.8628 3.25 38.9854 4.12745 38.9854 5.25C38.9854 6.37255 39.8628 7.25 40.9854 7.25C42.1079 7.25 42.9854 6.37255 42.9854 5.25Z" stroke="#00213E" stroke-width="1.5"/>
<path d="M42.9854 5.25C42.9854 4.12745 42.1079 3.25 40.9854 3.25C39.8628 3.25 38.9854 4.12745 38.9854 5.25C38.9854 6.37255 39.8628 7.25 40.9854 7.25C42.1079 7.25 42.9854 6.37255 42.9854 5.25Z" stroke="black" stroke-opacity="0.2" stroke-width="1.5"/>
<path d="M42.9854 5.25C42.9854 4.12745 42.1079 3.25 40.9854 3.25C39.8628 3.25 38.9854 4.12745 38.9854 5.25C38.9854 6.37255 39.8628 7.25 40.9854 7.25C42.1079 7.25 42.9854 6.37255 42.9854 5.25Z" stroke="black" stroke-opacity="0.2" stroke-width="1.5"/>
<path d="M14.9854 5.25C14.9854 4.12745 14.1079 3.25 12.9854 3.25C11.8628 3.25 10.9854 4.12745 10.9854 5.25C10.9854 6.37255 11.8628 7.25 12.9854 7.25C14.1079 7.25 14.9854 6.37255 14.9854 5.25Z" fill="white"/>
<path d="M14.9854 5.25C14.9854 4.12745 14.1079 3.25 12.9854 3.25C11.8628 3.25 10.9854 4.12745 10.9854 5.25C10.9854 6.37255 11.8628 7.25 12.9854 7.25C14.1079 7.25 14.9854 6.37255 14.9854 5.25Z" stroke="#00213E" stroke-width="1.5"/>
<path d="M14.9854 5.25C14.9854 4.12745 14.1079 3.25 12.9854 3.25C11.8628 3.25 10.9854 4.12745 10.9854 5.25C10.9854 6.37255 11.8628 7.25 12.9854 7.25C14.1079 7.25 14.9854 6.37255 14.9854 5.25Z" stroke="black" stroke-opacity="0.2" stroke-width="1.5"/>
<path d="M14.9854 5.25C14.9854 4.12745 14.1079 3.25 12.9854 3.25C11.8628 3.25 10.9854 4.12745 10.9854 5.25C10.9854 6.37255 11.8628 7.25 12.9854 7.25C14.1079 7.25 14.9854 6.37255 14.9854 5.25Z" stroke="black" stroke-opacity="0.2" stroke-width="1.5"/>
<defs>
<linearGradient id="paint0_linear_169_2272" x1="0.735294" y1="20.4894" x2="45.7353" y2="20.4894" gradientUnits="userSpaceOnUse">
<stop stop-color="#7FC6A4"/>
<stop offset="1" stop-color="#33658A"/>
</linearGradient>
</defs>
</svg>
