<svg width="61" height="43" viewBox="0 0 61 43" fill="none" xmlns="http://www.w3.org/2000/svg">
<g id="web-hosting-icon">
<path id="Vector" d="M3.23926 39.7899H57.4946M11.5659 39.5256V30.6703M5.35396 6.54945H17.91M5.35396 11.1754H17.91M5.35396 15.8013H17.91M30.7304 39.5256V30.6703M24.3863 6.54945H36.9423M24.3863 11.1754H36.9423M24.3863 15.8013H36.9423M49.8949 39.5917V30.6703M43.2864 6.54945H56.3711M43.2864 11.1754H56.3711M43.2864 15.8013H56.3711M5.6183 1.2627H17.5135C17.91 1.2627 18.1743 1.52703 18.1743 1.92354V30.3399C18.1743 30.7364 17.91 31.0007 17.5135 31.0007H5.6183C5.22179 31.0007 4.95745 30.7364 4.95745 30.3399V1.92354C4.95745 1.52703 5.22179 1.2627 5.6183 1.2627ZM11.5659 26.3748C12.6893 26.3748 13.5484 25.5157 13.5484 24.3923C13.5484 23.2688 12.6893 22.4097 11.5659 22.4097C10.4425 22.4097 9.58336 23.2688 9.58336 24.3923C9.58336 25.5157 10.4425 26.3748 11.5659 26.3748ZM24.7828 1.2627H36.678C37.0745 1.2627 37.3388 1.52703 37.3388 1.92354V30.3399C37.3388 30.7364 37.0745 31.0007 36.678 31.0007H24.7828C24.3863 31.0007 24.1219 30.7364 24.1219 30.3399V1.92354C24.1219 1.52703 24.3863 1.2627 24.7828 1.2627ZM30.7304 26.3748C31.8538 26.3748 32.7129 25.5157 32.7129 24.3923C32.7129 23.2688 31.8538 22.4097 30.7304 22.4097C29.6069 22.4097 28.7479 23.2688 28.7479 24.3923C28.7479 25.5157 29.6069 26.3748 30.7304 26.3748ZM43.9473 1.2627H55.8425C56.239 1.2627 56.5033 1.52703 56.5033 1.92354V30.3399C56.5033 30.7364 56.239 31.0007 55.8425 31.0007H43.9473C43.5508 31.0007 43.2864 30.7364 43.2864 30.3399V1.92354C43.2864 1.52703 43.5508 1.2627 43.9473 1.2627ZM49.8949 26.3748C51.0183 26.3748 51.8774 25.5157 51.8774 24.3923C51.8774 23.2688 51.0183 22.4097 49.8949 22.4097C48.7714 22.4097 47.9123 23.2688 47.9123 24.3923C47.9123 25.5157 48.7714 26.3748 49.8949 26.3748Z" stroke="url(#paint0_linear_1697_2571)" stroke-width="1.5" stroke-linecap="round" stroke-linejoin="round"/>
<path id="Vector_2" d="M13.621 30.8906C13.621 29.7625 12.7394 28.8809 11.6113 28.8809C10.4832 28.8809 9.60156 29.7625 9.60156 30.8906C9.60156 32.0187 10.4832 32.9003 11.6113 32.9003C12.7394 32.9003 13.621 32.0187 13.621 30.8906Z" fill="#00213E" stroke="white" stroke-width="1.5"/>
<path id="Vector_3" d="M32.7499 30.8916C32.7499 29.7635 31.8683 28.8818 30.7402 28.8818C29.6121 28.8818 28.7305 29.7635 28.7305 30.8916C28.7305 32.0196 29.6121 32.9013 30.7402 32.9013C31.8683 32.9013 32.7499 32.0196 32.7499 30.8916Z" fill="#00213E" stroke="white" stroke-width="1.5"/>
<path id="Vector_4" d="M51.8779 30.8916C51.8779 29.7635 50.9962 28.8818 49.8681 28.8818C48.7401 28.8818 47.8584 29.7635 47.8584 30.8916C47.8584 32.0196 48.7401 32.9013 49.8681 32.9013C50.9962 32.9013 51.8779 32.0196 51.8779 30.8916Z" fill="#00213E" stroke="white" stroke-width="1.5"/>
<path id="Vector_5" d="M59.6904 39.8105C59.6904 38.6825 58.8087 37.8008 57.6806 37.8008C56.5526 37.8008 55.6709 38.6825 55.6709 39.8105C55.6709 40.9386 56.5526 41.8203 57.6806 41.8203C58.8087 41.8203 59.6904 40.9386 59.6904 39.8105Z" fill="#00213E" stroke="white" stroke-width="1.5"/>
<path id="Vector_6" d="M5.26947 39.8105C5.26947 38.6825 4.3878 37.8008 3.25973 37.8008C2.13167 37.8008 1.25 38.6825 1.25 39.8105C1.25 40.9386 2.13167 41.8203 3.25973 41.8203C4.3878 41.8203 5.26947 40.9386 5.26947 39.8105Z" fill="#00213E" stroke="white" stroke-width="1.5"/>
</g>
<defs>
<linearGradient id="paint0_linear_1697_2571" x1="2.92866" y1="20.5098" x2="57.8316" y2="20.5098" gradientUnits="userSpaceOnUse">
<stop stop-color="#7FC6A4"/>
<stop offset="1" stop-color="#33658A"/>
</linearGradient>
</defs>
</svg>
