<svg width="16" height="23" viewBox="0 0 16 23" fill="none" xmlns="http://www.w3.org/2000/svg">
<g id="yelp 1" clip-path="url(#clip0_1697_1619)">
<path id="Vector" d="M1.78847 10.4974L5.9393 12.5861C6.7393 12.99 6.6143 14.1979 5.7518 14.4213L1.2718 15.5733C1.14029 15.6074 1.00322 15.612 0.869821 15.5869C0.736418 15.5619 0.609774 15.5076 0.498411 15.4278C0.387047 15.348 0.293547 15.2445 0.224202 15.1244C0.154856 15.0042 0.111274 14.8701 0.0963866 14.7311C-0.0410784 13.4955 0.0869524 12.2438 0.471387 11.065C0.514514 10.933 0.584452 10.8119 0.676533 10.71C0.768613 10.6081 0.880719 10.5275 1.00537 10.4738C1.13002 10.4201 1.26435 10.3944 1.39938 10.3985C1.53442 10.4025 1.66707 10.4363 1.78847 10.4974ZM3.6218 20.7777C4.61493 21.4793 5.74403 21.9501 6.93097 22.1574C7.06454 22.181 7.20147 22.1749 7.33255 22.1394C7.46363 22.1039 7.58582 22.0399 7.69091 21.9516C7.79599 21.8634 7.88152 21.7529 7.94176 21.6277C8.002 21.5025 8.03554 21.3655 8.04014 21.2258L8.20264 16.464C8.2318 15.5488 7.14014 15.0929 6.54389 15.7722L3.4518 19.3129C3.36126 19.4167 3.29328 19.5394 3.25243 19.6726C3.21158 19.8058 3.19879 19.9464 3.21493 20.0851C3.23106 20.2238 3.27575 20.3573 3.34599 20.4768C3.41623 20.5962 3.51041 20.6988 3.62222 20.7777H3.6218ZM9.67764 16.0545L12.1281 20.0936C12.2003 20.2122 12.2962 20.3135 12.4094 20.3909C12.5226 20.4682 12.6505 20.5198 12.7846 20.5422C12.9186 20.5645 13.0558 20.5572 13.1868 20.5206C13.3179 20.484 13.4399 20.419 13.5447 20.3299C14.4734 19.5382 15.223 18.5467 15.741 17.4248C15.798 17.2985 15.8286 17.1612 15.8306 17.0218C15.8325 16.8825 15.8059 16.7443 15.7524 16.6163C15.699 16.4883 15.6198 16.3734 15.5203 16.2792C15.4207 16.185 15.303 16.1135 15.1747 16.0696L10.7822 14.5975C9.93597 14.3182 9.2068 15.2764 9.67764 16.0545ZM15.8581 10.3728C15.3778 9.23343 14.6608 8.21676 13.7576 7.39461C13.656 7.30276 13.5366 7.23428 13.4073 7.1937C13.2781 7.15312 13.1419 7.14139 13.0079 7.15927C12.8739 7.17715 12.7451 7.22425 12.6301 7.29742C12.5151 7.3706 12.4166 7.46817 12.341 7.58367L9.75764 11.5334C9.2618 12.2939 9.95347 13.2783 10.8076 13.0248L15.251 11.7138C15.3812 11.6743 15.5018 11.6067 15.6048 11.5155C15.7078 11.4243 15.7908 11.3115 15.8483 11.1847C15.9059 11.058 15.9367 10.92 15.9386 10.78C15.9406 10.64 15.9137 10.5012 15.8597 10.3728H15.8581ZM2.58889 1.46793C2.47086 1.52651 2.36582 1.60956 2.28032 1.7119C2.19483 1.81424 2.13072 1.93366 2.09201 2.06271C2.0533 2.19175 2.04081 2.32764 2.05533 2.46189C2.06985 2.59613 2.11106 2.72585 2.17639 2.84293L6.51472 10.5962C7.00222 11.4642 8.29014 11.1075 8.29014 10.1064V1.15426C8.29132 1.01897 8.26516 0.884918 8.21333 0.760635C8.1615 0.636352 8.08513 0.524566 7.98909 0.432399C7.89305 0.340233 7.77945 0.269707 7.65553 0.225316C7.5316 0.180925 7.40006 0.163642 7.2693 0.174569C5.64572 0.307623 4.05945 0.745963 2.58889 1.46793Z" fill="white"/>
</g>
<defs>
<clipPath id="clip0_1697_1619">
<rect width="16" height="22" fill="white" transform="translate(0.000976562 0.170898)"/>
</clipPath>
</defs>
</svg>
