<svg width="25" height="23" viewBox="0 0 25 23" fill="none" xmlns="http://www.w3.org/2000/svg">
<g id="youtube 1" clip-path="url(#clip0_1697_1611)">
<path id="Vector" d="M23.8573 5.50259C23.5847 4.48638 22.7815 3.68604 21.7617 3.41444C19.9132 2.9209 12.5008 2.9209 12.5008 2.9209C12.5008 2.9209 5.08847 2.9209 3.2399 3.41444C2.22006 3.68609 1.41685 4.48638 1.14424 5.50259C0.648926 7.34453 0.648926 11.1876 0.648926 11.1876C0.648926 11.1876 0.648926 15.0306 1.14424 16.8726C1.41685 17.8888 2.22006 18.6558 3.2399 18.9274C5.08847 19.4209 12.5008 19.4209 12.5008 19.4209C12.5008 19.4209 19.9131 19.4209 21.7617 18.9274C22.7815 18.6558 23.5847 17.8888 23.8573 16.8726C24.3527 15.0306 24.3527 11.1876 24.3527 11.1876C24.3527 11.1876 24.3527 7.34453 23.8573 5.50259ZM10.0765 14.6768V7.69838L16.2718 11.1877L10.0765 14.6768Z" fill="white"/>
</g>
<defs>
<clipPath id="clip0_1697_1611">
<rect width="25" height="22" fill="white" transform="translate(0.000732422 0.170898)"/>
</clipPath>
</defs>
</svg>
